<svg height="512pt" viewBox="-39 0 512 512" width="512pt" xmlns="http://www.w3.org/2000/svg"><path d="m328.839844 35.335938h55.078125c27.867187 0 50.457031 22.582031 50.457031 50.449218v375.765625c0 27.859375-22.589844 50.449219-50.457031 50.449219h-333.46875c-27.867188 0-50.449219-22.589844-50.449219-50.449219v-375.765625c0-27.867187 22.582031-50.449218 50.449219-50.449218h55.074219" fill="#fcb52f"/><path d="m359.019531 463.160156h-283.667969c-13.964843 0-25.28125-11.316406-25.28125-25.277344v-312.386718c0-13.960938 11.320313-25.28125 25.28125-25.28125h283.667969c13.964844 0 25.28125 11.320312 25.28125 25.28125v312.386718c0 13.960938-11.320312 25.277344-25.28125 25.277344zm0 0" fill="#e5e5e5"/><path d="m276.457031 130.457031h-118.542969c-20.820312 0-37.753906-16.9375-37.753906-37.753906v-56.550781c0-4.328125 3.507813-7.835938 7.835938-7.835938s7.835937 3.507813 7.835937 7.835938v56.550781c0 12.175781 9.90625 22.078125 22.082031 22.078125h118.542969c12.175781 0 22.082031-9.902344 22.082031-22.078125v-56.550781c0-4.328125 3.507813-7.835938 7.835938-7.835938s7.835938 3.507813 7.835938 7.835938v56.550781c0 20.816406-16.9375 37.753906-37.753907 37.753906zm0 0" fill="#cbcbcb"/><path d="m134.855469 222.464844h-29.605469c-11.003906 0-19.921875-8.917969-19.921875-19.917969v-29.609375c0-11 8.917969-19.917969 19.921875-19.917969h29.605469c11 0 19.917969 8.917969 19.917969 19.917969v29.609375c0 11-8.917969 19.917969-19.917969 19.917969zm0 0" fill="#fff"/><path d="m134.855469 322.25h-29.605469c-11.003906 0-19.921875-8.921875-19.921875-19.921875v-29.605469c0-11.003906 8.917969-19.921875 19.921875-19.921875h29.605469c11 0 19.917969 8.917969 19.917969 19.921875v29.605469c0 11-8.917969 19.921875-19.917969 19.921875zm0 0" fill="#fff"/><path d="m134.855469 422.03125h-29.605469c-11.003906 0-19.921875-8.917969-19.921875-19.921875v-29.605469c0-11 8.917969-19.917968 19.921875-19.917968h29.605469c11 0 19.917969 8.917968 19.917969 19.917968v29.605469c0 11.003906-8.917969 19.921875-19.917969 19.921875zm0 0" fill="#fff"/><path d="m134.855469 230.300781h-29.605469c-15.304688 0-27.757812-12.449219-27.757812-27.753906v-29.609375c0-15.304688 12.453124-27.753906 27.757812-27.753906h29.605469c15.304687 0 27.757812 12.453125 27.757812 27.753906v29.609375c0 15.304687-12.453125 27.753906-27.757812 27.753906zm-29.605469-69.445312c-6.664062 0-12.082031 5.421875-12.082031 12.082031v29.609375c0 6.660156 5.417969 12.082031 12.082031 12.082031h29.605469c6.664062 0 12.082031-5.421875 12.082031-12.082031v-29.609375c0-6.660156-5.421875-12.082031-12.082031-12.082031zm0 0" fill="#cbcbcb"/><path d="m134.855469 330.085938h-29.605469c-15.304688 0-27.757812-12.453126-27.757812-27.757813v-29.605469c0-15.304687 12.453124-27.757812 27.757812-27.757812h29.605469c15.304687 0 27.757812 12.453125 27.757812 27.757812v29.605469c0 15.304687-12.453125 27.757813-27.757812 27.757813zm-29.605469-69.445313c-6.664062 0-12.082031 5.417969-12.082031 12.082031v29.605469c0 6.660156 5.417969 12.082031 12.082031 12.082031h29.605469c6.664062 0 12.082031-5.421875 12.082031-12.082031v-29.605469c0-6.664062-5.421875-12.082031-12.082031-12.082031zm0 0" fill="#cbcbcb"/><path d="m134.855469 429.867188h-29.605469c-15.304688 0-27.757812-12.453126-27.757812-27.757813v-29.605469c0-15.300781 12.453124-27.753906 27.757812-27.753906h29.605469c15.304687 0 27.757812 12.453125 27.757812 27.753906v29.605469c0 15.304687-12.453125 27.757813-27.757812 27.757813zm-29.605469-69.445313c-6.664062 0-12.082031 5.421875-12.082031 12.082031v29.605469c0 6.664063 5.417969 12.082031 12.082031 12.082031h29.605469c6.664062 0 12.082031-5.417968 12.082031-12.082031v-29.605469c0-6.660156-5.421875-12.082031-12.082031-12.082031zm0 0" fill="#cbcbcb"/><g fill="#5c5e71"><path d="m301.109375 179.921875h-113.019531c-4.332032 0-7.839844-3.511719-7.839844-7.839844s3.507812-7.835937 7.839844-7.835937h113.019531c4.328125 0 7.835937 3.507812 7.835937 7.835937s-3.507812 7.839844-7.835937 7.839844zm0 0"/><path d="m348.765625 211.238281h-160.675781c-4.332032 0-7.839844-3.507812-7.839844-7.835937s3.507812-7.835938 7.839844-7.835938h160.675781c4.328125 0 7.835937 3.507813 7.835937 7.835938s-3.507812 7.835937-7.835937 7.835937zm0 0"/><path d="m301.109375 279.703125h-113.019531c-4.332032 0-7.839844-3.507813-7.839844-7.835937 0-4.328126 3.507812-7.835938 7.839844-7.835938h113.019531c4.328125 0 7.835937 3.507812 7.835937 7.835938 0 4.328124-3.507812 7.835937-7.835937 7.835937zm0 0"/><path d="m348.765625 311.023438h-160.675781c-4.332032 0-7.839844-3.511719-7.839844-7.839844s3.507812-7.835938 7.839844-7.835938h160.675781c4.328125 0 7.835937 3.507813 7.835937 7.835938s-3.507812 7.839844-7.835937 7.839844zm0 0"/><path d="m301.109375 379.484375h-113.019531c-4.332032 0-7.839844-3.507813-7.839844-7.835937 0-4.328126 3.507812-7.835938 7.839844-7.835938h113.019531c4.328125 0 7.835937 3.507812 7.835937 7.835938 0 4.328124-3.507812 7.835937-7.835937 7.835937zm0 0"/><path d="m348.765625 410.804688h-160.675781c-4.332032 0-7.839844-3.507813-7.839844-7.835938s3.507812-7.835938 7.839844-7.835938h160.675781c4.328125 0 7.835937 3.507813 7.835937 7.835938s-3.507812 7.835938-7.835937 7.835938zm0 0"/></g><path d="m122.164062 208.632812c-2.066406 0-4.0625-.816406-5.539062-2.292968l-13.054688-13.054688c-3.0625-3.0625-3.0625-8.023437 0-11.082031 3.0625-3.0625 8.023438-3.0625 11.082032 0l6.464844 6.460937 33.328124-47.402343c2.488282-3.539063 7.378907-4.394531 10.917969-1.90625 3.539063 2.492187 4.390625 7.378906 1.902344 10.921875l-38.6875 55.027344c-1.332031 1.894531-3.429687 3.101562-5.738281 3.300781-.222656.019531-.449219.027343-.675782.027343zm0 0" fill="#f64f44"/><path d="m122.164062 307.339844c-2.066406 0-4.0625-.820313-5.539062-2.292969l-13.054688-13.058594c-3.0625-3.058593-3.0625-8.019531 0-11.082031 3.0625-3.058594 8.023438-3.058594 11.082032 0l6.464844 6.464844 33.328124-47.402344c2.488282-3.542969 7.378907-4.394531 10.917969-1.90625 3.539063 2.488281 4.390625 7.378906 1.902344 10.917969l-38.6875 55.03125c-1.332031 1.894531-3.429687 3.101562-5.738281 3.300781-.222656.019531-.449219.027344-.675782.027344zm0 0" fill="#f64f44"/><path d="m305.375 68.699219h-176.378906c-12.960938 0-23.46875-10.507813-23.46875-23.46875v-21.761719c0-12.960938 10.507812-23.46875 23.46875-23.46875h176.378906c12.960938 0 23.46875 10.507812 23.46875 23.46875v21.761719c0 12.960937-10.507812 23.46875-23.46875 23.46875zm0 0" fill="#5c5e71"/></svg>