<svg height="512pt" viewBox="0 -39 512 512" width="512pt" xmlns="http://www.w3.org/2000/svg" xmlns:xlink="http://www.w3.org/1999/xlink"><linearGradient id="a" gradientUnits="userSpaceOnUse" x1="237.7187907722" x2="526.8198153874" y1="178.9233125766" y2="477.7420009752"><stop offset="0" stop-color="#00c6f6"/><stop offset=".8567" stop-color="#0b9cfd"/><stop offset="1" stop-color="#0d94fe"/></linearGradient><linearGradient id="b"><stop offset="0" stop-color="#0d94fe" stop-opacity="0"/><stop offset=".5142" stop-color="#0681cd" stop-opacity=".513725"/><stop offset="1" stop-color="#0070a2"/></linearGradient><linearGradient id="c" gradientUnits="userSpaceOnUse" x1="284.8495153374" x2="284.8495153374" xlink:href="#b" y1="304.3673821646" y2="378.887207126"/><linearGradient id="d" gradientUnits="userSpaceOnUse" x1="517.5100451126" x2="359.5980337304" xlink:href="#b" y1="256.8643029296" y2="162.9269198208"/><linearGradient id="e" gradientUnits="userSpaceOnUse" x1="180.0200804896" x2="469.1210047126" y1="236.6220228592" y2="535.4407112578"><stop offset="0" stop-color="#ecf7ff"/><stop offset="1" stop-color="#c2e0ff"/></linearGradient><linearGradient id="f"><stop offset=".0029" stop-color="#c2e0ff" stop-opacity="0"/><stop offset=".0763" stop-color="#bfdcfd" stop-opacity=".07451"/><stop offset="1" stop-color="#9eb2e7"/></linearGradient><linearGradient id="g" gradientUnits="userSpaceOnUse" x1="473.0749515096" x2="414.3638862822" xlink:href="#f" y1="291.6389563032" y2="221.9955820646"/><linearGradient id="h"><stop offset="0" stop-color="#45425a"/><stop offset="1" stop-color="#2d3251"/></linearGradient><linearGradient id="i" gradientUnits="userSpaceOnUse" x1="236.2610960282" x2="310.0401269458" xlink:href="#h" y1="222.77934397" y2="296.5584752798"/><linearGradient id="j" gradientUnits="userSpaceOnUse" x1="171.1254319618" x2="408.8355890048" xlink:href="#h" y1="281.3319903058" y2="281.3319903058"/><linearGradient id="k" gradientUnits="userSpaceOnUse" x1="171.1254319618" x2="408.8355890048" xlink:href="#h" y1="327.5746454698" y2="327.5746454698"/><linearGradient id="l" gradientUnits="userSpaceOnUse" x1="171.1254319618" x2="365.7502685308" xlink:href="#h" y1="373.8175014182" y2="373.8175014182"/><linearGradient id="m"><stop offset="0" stop-color="#ffc738"/><stop offset=".4286" stop-color="#ffbb23"/><stop offset="1" stop-color="#ffa700"/></linearGradient><linearGradient id="n" gradientUnits="userSpaceOnUse" x1="71.1772666624" x2="130.381859945" xlink:href="#m" y1="273.7972545192" y2="333.0017474096"/><linearGradient id="o" gradientUnits="userSpaceOnUse" x1="227.1508050548" x2="227.1508050548" xlink:href="#f" y1="409.8447482712" y2="441.4271304692"/><linearGradient id="p" gradientUnits="userSpaceOnUse" x1="359.248970051" x2="498.9319665416" xlink:href="#m" y1="147.480676321" y2="231.132476971"/><linearGradient id="q" gradientUnits="userSpaceOnUse" x1="411.8493628488" x2="411.8493628488" xlink:href="#m" y1="100.382679613" y2="119.585699629"/><linearGradient id="r"><stop offset="0" stop-color="#ffa700" stop-opacity="0"/><stop offset=".0206" stop-color="#fea600" stop-opacity=".019608"/><stop offset=".6348" stop-color="#ec8c00" stop-opacity=".635294"/><stop offset="1" stop-color="#e58200"/></linearGradient><linearGradient id="s" gradientUnits="userSpaceOnUse" x1="455.771050741" x2="388.3146201872" xlink:href="#r" y1="169.4026182896" y2="55.4670085486"/><linearGradient id="t" gradientUnits="userSpaceOnUse" x1="490.1435329614" x2="457.5830295588" xlink:href="#r" y1="133.2151454854" y2="99.9390464812"/><linearGradient id="u" gradientUnits="userSpaceOnUse" x1="447.0598187626" x2="397.443684502" xlink:href="#r" y1="219.4037566372" y2="169.7876223766"/><linearGradient id="v"><stop offset="0" stop-color="#3b395f"/><stop offset=".0633" stop-color="#37355a"/><stop offset=".4033" stop-color="#232543"/><stop offset=".7232" stop-color="#171b35"/><stop offset="1" stop-color="#131830"/></linearGradient><linearGradient id="w" gradientUnits="userSpaceOnUse" x1="405.3602118252" x2="430.4344688738" xlink:href="#v" y1="167.3746958496" y2="213.780689123"/><linearGradient id="x" gradientUnits="userSpaceOnUse" x1="411.849463241" x2="411.849463241" xlink:href="#v" y1="88.457090175" y2="125.139396133"/><linearGradient id="y" gradientUnits="userSpaceOnUse" x1="411.849463241" x2="411.849463241" xlink:href="#r" y1="234.4471262384" y2="262.0844965452"/><path d="m485.277344 377.046875h-400.855469c-14.757813 0-26.722656-11.964844-26.722656-26.722656v-245.371094c0-14.761719 11.964843-26.722656 26.722656-26.722656h400.855469c14.757812 0 26.722656 11.960937 26.722656 26.722656v245.371094c0 14.757812-11.964844 26.722656-26.722656 26.722656zm0 0" fill="url(#a)"/><path d="m57.699219 250.921875v99.402344c0 14.757812 11.964843 26.722656 26.722656 26.722656h400.855469c14.757812 0 26.722656-11.964844 26.722656-26.722656v-99.402344zm0 0" fill="url(#c)"/><path d="m512 121.144531v229.179688c0 14.757812-11.964844 26.722656-26.722656 26.722656h-17.601563l-127.96875-127.96875c-3.304687-2.089844-5.417969-5.769531-5.417969-9.828125v-120.535156c0-5.234375 3.5-9.839844 8.550782-11.222656 3.839844-1.046876 7.675781-1.992188 11.527344-2.867188v-26.394531h19.972656v.203125l20.273437 20.285156h.011719c.484375-.035156.96875-.058594 1.46875-.09375.632812-.039062 1.261719-.074219 1.882812-.109375.085938 0 .167969-.015625.265626-.015625.546874-.023438 1.082031-.058594 1.628906-.070312.398437-.023438.800781-.050782 1.203125-.0625.289062-.011719.570312-.023438.859375-.035157.355468-.011719.707031-.023437 1.058594-.035156.242187-.015625.496093-.027344.742187-.027344.800781-.023437 1.601563-.046875 2.402344-.058593.257812-.011719.511719-.011719.765625-.027344.207031 0 .414062-.011719.621094-.011719 2.890624-.046875 5.792968-.046875 8.683593 0 .242188 0 .476563.011719.71875.011719.351563.015625.703125.015625 1.054688.027344.449219.011718.910156.023437 1.375.046874.375 0 .75.011719 1.140625.023438.183594.011719.375.011719.558594.023438.789062.027343 1.578124.0625 2.367187.097656.683594.023437 1.363281.0625 2.03125.097656.085937 0 .167969 0 .253906.011719 1.140625.0625 2.296875.132812 3.449219.207031.207031.023438.402344.035156.609375.050781.191406.011719.386719.023438.582031.035157.824219.058593 1.652344.121093 2.464844.195312.730469.058594 1.46875.121094 2.210938.195312.691406.046876 1.382812.121094 2.078124.191407.886719.085937 1.757813.183593 2.636719.28125.59375.058593 1.199219.121093 1.796875.191406.617188.074219 1.226563.148437 1.847656.234375.410157.046875.835938.09375 1.25.144531.097657.011719.183594.023438.277344.035157.207032.035156.4375.0625.65625.085937.242188.035156.484375.0625.71875.097656.046875.011719.09375.011719.144532.023438.011718-.011719.011718 0 .023437 0 .484375.074219.984375.132812 1.480469.207031.5.0625.996094.132812 1.484375.21875h.023437c-.011718-.011719-.023437-.011719-.023437-.011719v-22.667969h19.664062zm0 0" fill="url(#d)"/><path d="m427.578125 434.746094h-400.855469c-14.757812 0-26.722656-11.964844-26.722656-26.722656v-245.371094c0-14.757813 11.964844-26.722656 26.722656-26.722656h400.855469c14.757813 0 26.722656 11.964843 26.722656 26.722656v245.371094c0 14.757812-11.964843 26.722656-26.722656 26.722656zm0 0" fill="url(#e)"/><path d="m427.578125 135.929688h-93.285156v103.320312c0 4.0625 2.109375 7.738281 5.410156 9.828125l114.597656 114.597656v-201.023437c0-14.761719-11.964843-26.722656-26.722656-26.722656zm0 0" fill="url(#g)"/><path d="m0 182.085938h454.300781v63.164062h-454.300781zm0 0" fill="url(#i)"/><path d="m171.125 271.976562h237.710938v18.714844h-237.710938zm0 0" fill="url(#j)"/><path d="m171.125 318.21875h237.710938v18.714844h-237.710938zm0 0" fill="url(#k)"/><path d="m171.125 364.460938h194.625v18.714843h-194.625zm0 0" fill="url(#l)"/><path d="m136.972656 318.945312h-88.265625c-1.789062 0-3.242187-1.453124-3.242187-3.242187v-40.488281c0-1.789063 1.453125-3.242188 3.242187-3.242188h88.265625c1.789063 0 3.242188 1.453125 3.242188 3.242188v40.488281c0 1.789063-1.453125 3.242187-3.242188 3.242187zm0 0" fill="url(#n)"/><path d="m0 382.511719v25.511719c0 14.757812 11.964844 26.722656 26.722656 26.722656h400.855469c14.757813 0 26.722656-11.964844 26.722656-26.722656v-25.511719zm0 0" fill="url(#o)"/><path d="m480.859375 250.46875c-45.710937 12.476562-92.3125 12.476562-138.019531 0-5.050782-1.378906-8.546875-5.984375-8.546875-11.21875v-120.535156c0-5.238282 3.492187-9.839844 8.546875-11.21875 45.707031-12.480469 92.308594-12.480469 138.019531 0 5.050781 1.378906 8.546875 5.984375 8.546875 11.21875v120.535156c0 5.234375-3.496094 9.839844-8.546875 11.21875zm0 0" fill="url(#p)"/><path d="m478.488281 106.867188c-.933593-.246094-1.867187-.488282-2.800781-.722657-.628906-.160156-1.253906-.3125-1.882812-.46875-.910157-.222656-1.816407-.4375-2.726563-.652343-.636719-.148438-1.273437-.292969-1.910156-.4375-.90625-.207032-1.820313-.40625-2.730469-.601563-.625-.132813-1.253906-.269531-1.882812-.398437-.941407-.195313-1.878907-.382813-2.816407-.566407-.597656-.117187-1.195312-.238281-1.789062-.347656-1.03125-.195313-2.0625-.378906-3.09375-.5625-.503907-.089844-1.003907-.183594-1.511719-.269531-1.527344-.261719-3.0625-.511719-4.59375-.742188-.027344-.003906-.054688-.011718-.082031-.015625-1.507813-.226562-3.015625-.441406-4.523438-.644531-.503906-.070312-1.011719-.128906-1.519531-.191406-1.027344-.132813-2.058594-.265625-3.089844-.382813-.601562-.070312-1.199218-.132812-1.796875-.199219-.941406-.101562-1.886719-.203124-2.828125-.296874-.628906-.0625-1.261718-.117188-1.890625-.175782-.917969-.082031-1.832031-.160156-2.746093-.234375-.640626-.050781-1.285157-.101562-1.925782-.144531-.914062-.066406-1.824218-.128906-2.738281-.183594-.632813-.039062-1.269531-.078125-1.902344-.113281-.941406-.050781-1.886719-.09375-2.828125-.132813-.597656-.027343-1.199218-.054687-1.796875-.078124-1.035156-.035157-2.070312-.0625-3.105469-.089844-.503906-.011719-1.011718-.027344-1.515624-.035156-1.539063-.027344-3.074219-.046876-4.613282-.046876-1.539062 0-3.078125.019532-4.613281.046876-.507813.007812-1.011719.023437-1.519531.035156-1.035156.027344-2.066406.054687-3.101563.089844-.601562.019531-1.199219.050781-1.800781.078124-.941406.039063-1.882812.082032-2.828125.132813-.632813.035156-1.265625.074219-1.898437.113281-.914063.054688-1.828126.117188-2.742188.183594-.640625.042969-1.28125.09375-1.921875.144531-.914063.074219-1.828125.152344-2.746094.234375-.628906.058594-1.261719.117188-1.890625.175782-.941406.09375-1.886718.195312-2.828125.296874-.597656.066407-1.199219.128907-1.796875.199219-1.03125.117188-2.058594.25-3.089844.382813-.507812.0625-1.015624.125-1.523437.191406-1.503906.203125-3.007813.417969-4.515625.644531-.027344.003907-.058594.007813-.085938.015625-1.53125.230469-3.066406.480469-4.59375.742188-.503906.085937-1.007812.179687-1.511718.269531-1.03125.183594-2.0625.367187-3.09375.5625-.59375.113281-1.1875.230469-1.785156.347656-.941407.183594-1.878907.371094-2.820313.566407-.628906.128906-1.253906.265624-1.882813.398437-.910156.199219-1.820312.394531-2.726562.601563-.640625.144531-1.277344.292968-1.914062.441406-.910157.210937-1.816407.429687-2.722657.652344-.628906.152343-1.257812.304687-1.886719.464843-.933593.234375-1.867187.480469-2.800781.726563-.597656.15625-1.191406.308594-1.785156.46875-.265625.074218-.527344.148437-.789063.21875-2.800781.820312-5.105468 2.636718-6.574218 5 50.132812 15.070312 101.449218 15.070312 151.582031 0-1.472656-2.363282-3.777344-4.179688-6.578125-5-.261719-.070313-.523438-.148438-.789062-.21875-.59375-.160156-1.1875-.316406-1.785157-.472656zm0 0" fill="url(#q)"/><path d="m480.859375 107.492188c-41.871094-11.429688-84.492187-12.382813-126.492187-2.871094v1.472656c0 3.460938 1.765624 6.507812 4.449218 8.289062l129.585938 129.589844c.648437-1.457031 1.003906-3.058594 1.003906-4.722656v-120.535156c0-5.238282-3.496094-9.839844-8.546875-11.222656zm0 0" fill="url(#s)"/><path d="m489.40625 118.714844c0-5.238282-3.496094-9.839844-8.546875-11.21875-10.421875-2.847656-20.894531-5.042969-31.386719-6.589844v5.1875c0 3.460938 1.765625 6.507812 4.445313 8.292969l35.488281 35.488281zm0 0" fill="url(#t)"/><path d="m475.949219 210.515625-49.054688-49.054687c-4.074219-4.335938-10-6.910157-16.515625-6.460938-10.164062.703125-18.402344 8.925781-19.128906 19.089844-.464844 6.535156 2.121094 12.476562 6.472656 16.5625l4.902344 4.902344c1.582031 2.414062 2.4375 5.289062 2.4375 8.246093v8.457031c0 2.191407 1.011719 4.195313 2.601562 5.496094l39.613282 39.613282c7.144531-.992188 14.28125-2.285157 21.394531-3.875.035156-4.421876 2.027344-8.664063 5.570313-11.3125 5.035156-3.765626 8.292968-9.773438 8.292968-16.542969 0-5.972657-2.535156-11.351563-6.585937-15.121094zm0 0" fill="url(#u)"/><path d="m432.5 175.601562c0-11.890624-10.050781-21.4375-22.121094-20.601562-10.164062.703125-18.402344 8.925781-19.128906 19.089844-.523438 7.328125 2.785156 13.914062 8.125 17.964844 3.644531 2.769531 5.6875 7.167968 5.6875 11.746093v8.457031c0 3.734376 2.921875 6.9375 6.660156 7.007813 3.804688.070313 6.910156-2.996094 6.910156-6.785156v-8.90625c0-4.464844 2-8.757813 5.574219-11.429688 5.035157-3.765625 8.292969-9.769531 8.292969-16.542969zm0 0" fill="url(#w)"/><path d="m459.375 116.050781c-5.496094 0-9.953125-4.457031-9.953125-9.957031v-48.609375c0-20.71875-16.855469-37.574219-37.574219-37.574219s-37.570312 16.855469-37.570312 37.574219v48.609375c0 5.5-4.457032 9.957031-9.957032 9.957031-5.496093 0-9.953124-4.457031-9.953124-9.957031v-48.609375c0-31.699219 25.785156-57.484375 57.480468-57.484375 31.695313 0 57.484375 25.785156 57.484375 57.484375v48.609375c0 5.5-4.457031 9.957031-9.957031 9.957031zm0 0" fill="url(#x)"/><path d="m334.292969 206.160156v33.089844c0 5.234375 3.492187 9.839844 8.546875 11.21875 45.707031 12.476562 92.308594 12.476562 138.019531 0 5.050781-1.378906 8.546875-5.984375 8.546875-11.21875v-33.089844zm0 0" fill="url(#y)"/></svg>