<?xml version="1.0" encoding="UTF-8"?>
<svg width="16px" height="16px" viewBox="0 0 16 16" version="1.1" xmlns="http://www.w3.org/2000/svg" xmlns:xlink="http://www.w3.org/1999/xlink">
    <!-- Generator: Sketch 62 (91390) - https://sketch.com -->
    <title>类型管理 </title>
    <desc>Created with Sketch.</desc>
    <g id="页面-1" stroke="none" stroke-width="1" fill="none" fill-rule="evenodd">
        <g id="图标" transform="translate(-721.000000, -516.000000)" fill="#31A2FA">
            <g id="类型管理-" transform="translate(721.000000, 516.000000)">
                <g id="类型管理-(2)">
                    <path d="M6.246875,11.55625 L6.246875,8.925 L3.615625,8.925 C2.1875,8.925 0.984375,10.175 0.984375,11.55625 C0.984375,12.9375 2.23125,14.23125 3.615625,14.23125 C4.996875,14.23125 6.246875,12.984375 6.246875,11.55625 L6.246875,11.55625 Z M7.18125,11.55625 C7.18125,13.5625 5.575,15.16875 3.56875,15.16875 C1.5625,15.16875 0.003125,13.5625 0.003125,11.55625 C0.003125,9.55 1.609375,7.94375 3.615625,7.94375 L7.228125,7.94375 L7.228125,11.55625 L7.18125,11.55625 L7.18125,11.55625 Z M8.921875,11.55625 L8.921875,8.925 L11.553125,8.925 C12.98125,8.925 14.228125,10.040625 14.228125,11.55625 C14.228125,12.984375 13.1125,14.23125 11.553125,14.23125 C10.125,14.23125 8.921875,12.984375 8.921875,11.55625 L8.921875,11.55625 Z M7.984375,11.55625 C7.984375,13.5625 9.590625,15.16875 11.596875,15.16875 C13.603125,15.16875 15.209375,13.5625 15.209375,11.55625 C15.209375,9.55 13.603125,7.94375 11.596875,7.94375 L7.984375,7.94375 L7.984375,11.55625 L7.984375,11.55625 Z M6.246875,3.621875 L6.246875,6.253125 L3.615625,6.253125 C2.1,6.253125 0.984375,5.00625 0.984375,3.621875 C0.984375,2.10625 2.14375,0.990625 3.615625,0.990625 C5.040625,0.946875 6.246875,2.10625 6.246875,3.621875 L6.246875,3.621875 Z M7.18125,3.621875 C7.18125,1.615625 5.575,0.009375 3.56875,0.009375 C1.5625,0.009375 0.003125,1.615625 0.003125,3.621875 C0.003125,5.628125 1.609375,7.234375 3.615625,7.234375 L7.228125,7.234375 L7.228125,3.621875 L7.18125,3.621875 Z" id="形状" fill-rule="nonzero"></path>
                    <path d="M7.984375,3.621875 C7.984375,1.615625 9.590625,0.009375 11.596875,0.009375 C13.603125,0.009375 15.1625,1.615625 15.1625,3.621875 C15.1625,5.628125 13.55625,7.234375 11.55,7.234375 L7.940625,7.234375 L7.940625,3.621875 L7.984375,3.621875 Z M8.921875,3.621875 L8.921875,6.253125 L11.553125,6.253125 C12.98125,6.253125 14.228125,5.1375 14.228125,3.621875 C14.228125,2.10625 13.1125,0.990625 11.553125,0.990625 C10.125,0.946875 8.921875,2.10625 8.921875,3.621875 L8.921875,3.621875 Z" id="形状" fill-rule="nonzero"></path>
                </g>
            </g>
        </g>
    </g>
</svg>