<?xml version="1.0" encoding="UTF-8"?>
<svg width="14px" height="21.6px" viewBox="0 0 15 15" version="1.1" xmlns="http://www.w3.org/2000/svg" xmlns:xlink="http://www.w3.org/1999/xlink">
    <!-- Generator: Sketch 62 (91390) - https://sketch.com -->
    <title>cbb通用件</title>
    <desc>Created with Sketch.</desc>
    <g id="页面-1" stroke="none" stroke-width="1" fill="none" fill-rule="evenodd">
        <g id="图标" transform="translate(-923.000000, -576.000000)" fill="#1E77FF" fill-rule="nonzero">
            <g id="cbb通用件" transform="translate(923.000000, 576.000000)">
                <path d="M7.54285714,11.0857143 C5.82857143,11.0857143 4.45714286,9.71428571 4.45714286,8 C4.45714286,6.28571429 5.82857143,4.91428571 7.54285714,4.91428571 C9.25714286,4.91428571 10.6285714,6.28571429 10.6285714,8 C10.7428571,9.71428571 9.25714286,11.0857143 7.54285714,11.0857143 Z M7.54285714,10.0571429 C8.22857143,10.0571429 8.91428571,9.71428571 9.25714286,9.02857143 C9.6,8.34285714 9.6,7.65714286 9.25714286,6.97142857 C9.02857143,6.4 8.34285714,5.94285714 7.54285714,5.94285714 C6.4,5.94285714 5.48571429,6.85714286 5.48571429,8 C5.48571429,9.14285714 6.4,10.0571429 7.54285714,10.0571429 Z M12.5714286,14.4 L15.5428571,14.4 C15.6571429,14.4 15.7714286,14.4 15.8857143,14.5142857 C16,14.6285714 16,14.7428571 16,14.8571429 L16,14.9714286 C16,15.0857143 16,15.2 15.8857143,15.3142857 C15.7714286,15.4285714 15.6571429,15.4285714 15.5428571,15.4285714 L12.5714286,15.4285714 C12.4571429,15.4285714 12.3428571,15.4285714 12.2285714,15.3142857 C12.1142857,15.2 12.1142857,15.0857143 12.1142857,14.9714286 L12.1142857,14.8571429 C12.1142857,14.7428571 12.1142857,14.6285714 12.2285714,14.5142857 C12.3428571,14.5142857 12.4571429,14.4 12.5714286,14.4 Z M12.5714286,12.3428571 L15.5428571,12.3428571 C15.6571429,12.3428571 15.7714286,12.3428571 15.8857143,12.4571429 C16,12.5714286 16,12.6857143 16,12.8 L16,12.9142857 C16,13.0285714 16,13.1428571 15.8857143,13.2571429 C15.7714286,13.3714286 15.6571429,13.3714286 15.5428571,13.3714286 L12.5714286,13.3714286 C12.4571429,13.3714286 12.3428571,13.3714286 12.2285714,13.2571429 C12.1142857,13.1428571 12.1142857,13.0285714 12.1142857,12.9142857 L12.1142857,12.8 C12.1142857,12.6857143 12.1142857,12.5714286 12.2285714,12.4571429 C12.3428571,12.3428571 12.4571429,12.3428571 12.5714286,12.3428571 Z M12.5714286,10.2857143 L15.5428571,10.2857143 C15.6571429,10.2857143 15.7714286,10.2857143 15.8857143,10.4 C16,10.5142857 16,10.6285714 16,10.7428571 L16,10.8571429 C16,10.9714286 16,11.0857143 15.8857143,11.2 C15.7714286,11.3142857 15.6571429,11.3142857 15.5428571,11.3142857 L12.5714286,11.3142857 C12.4571429,11.3142857 12.3428571,11.3142857 12.2285714,11.2 C12.1142857,11.0857143 12.1142857,10.9714286 12.1142857,10.8571429 L12.1142857,10.7428571 C12.1142857,10.6285714 12.1142857,10.5142857 12.2285714,10.4 C12.3428571,10.2857143 12.4571429,10.2857143 12.5714286,10.2857143 Z" id="形状"></path>
                <path d="M10.6285714,12.1142857 L10.6285714,13.3714286 C10.4,13.4857143 10.0571429,13.7142857 9.71428571,13.8285714 L9.71428571,14.7428571 C9.71428571,15.0857143 9.6,15.4285714 9.37142857,15.6571429 C9.25714286,15.8857143 8.91428571,16 8.57142857,16 L6.62857143,16 C6.28571429,16 5.94285714,15.8857143 5.71428571,15.6571429 C5.48571429,15.4285714 5.37142857,15.0857143 5.37142857,14.7428571 L5.37142857,13.8285714 C4.8,13.6 4.22857143,13.2571429 3.65714286,12.8 L2.85714286,13.2571429 C2.28571429,13.6 1.48571429,13.4857143 1.14285714,12.8 L0.114285714,11.0857143 C-0.114285714,10.5142857 2.55004351e-16,9.82857143 0.571428571,9.48571429 L1.37142857,9.02857143 C1.25714286,8.34285714 1.25714286,7.65714286 1.37142857,7.08571429 L0.571428571,6.51428571 C5.0914134e-16,6.17142857 -0.114285714,5.48571429 0.228571429,4.8 L1.14285714,3.2 C1.48571429,2.62857143 2.28571429,2.4 2.85714286,2.74285714 L3.65714286,3.2 C4.11428571,2.74285714 4.8,2.4 5.37142857,2.17142857 L5.37142857,1.25714286 C5.37142857,0.914285714 5.48571429,0.571428571 5.71428571,0.342857143 C5.94285714,0.114285714 6.28571429,0 6.62857143,0 L8.57142857,0 C9.25714286,0 9.82857143,0.571428571 9.82857143,1.25714286 L9.82857143,2.17142857 C10.4,2.4 10.9714286,2.74285714 11.5428571,3.2 L12.3428571,2.74285714 C12.9142857,2.4 13.7142857,2.62857143 14.0571429,3.2 L15.0857143,4.91428571 C15.4285714,5.48571429 15.2,6.28571429 14.6285714,6.62857143 L13.7142857,6.97142857 C13.8285714,7.54285714 13.8285714,8.22857143 13.7142857,8.8 L12.6857143,8.8 C12.8,8 12.8,7.2 12.5714286,6.4 L13.4857143,5.82857143 L13.7142857,5.71428571 C14.0571429,5.48571429 14.0571429,5.14285714 13.9428571,4.91428571 L13.3714286,4 C13.1428571,3.65714286 12.8,3.65714286 12.5714286,3.77142857 L12.3428571,3.88571429 L11.4285714,4.45714286 C10.7428571,3.65714286 9.82857143,3.2 8.8,2.97142857 L8.8,1.71428571 C8.8,1.6 8.68571429,1.37142857 8.57142857,1.25714286 C8.45714286,1.14285714 8.22857143,1.02857143 8.11428571,1.02857143 L7.08571429,1.02857143 C6.74285714,1.02857143 6.51428571,1.25714286 6.51428571,1.6 L6.51428571,2.85714286 C5.37142857,3.2 4.57142857,3.77142857 3.77142857,4.45714286 L2.85714286,3.88571429 L2.74285714,3.88571429 C2.4,3.65714286 2.05714286,3.77142857 1.82857143,4.11428571 L1.37142857,5.02857143 C1.14285714,5.25714286 1.25714286,5.71428571 1.6,5.82857143 L1.71428571,5.94285714 L2.62857143,6.51428571 C2.51428571,6.97142857 2.4,7.54285714 2.4,8 C2.4,8.45714286 2.51428571,9.02857143 2.62857143,9.48571429 L1.71428571,10.0571429 L1.6,10.1714286 C1.25714286,10.2857143 1.14285714,10.7428571 1.37142857,10.9714286 L1.94285714,11.8857143 C2.17142857,12.2285714 2.51428571,12.2285714 2.74285714,12.1142857 L2.85714286,12 L3.77142857,11.4285714 C4.45714286,12.2285714 5.37142857,12.6857143 6.4,12.9142857 L6.4,14.1714286 C6.4,14.2857143 6.51428571,14.5142857 6.62857143,14.6285714 C6.74285714,14.8571429 6.85714286,14.9714286 7.08571429,14.9714286 L8.11428571,14.9714286 C8.22857143,14.9714286 8.45714286,14.8571429 8.57142857,14.7428571 C8.68571429,14.6285714 8.8,14.5142857 8.8,14.2857143 L8.8,13.0285714 C9.48571429,12.9142857 10.0571429,12.5714286 10.6285714,12.1142857 L10.6285714,12.1142857 Z" id="路径"></path>
            </g>
        </g>
    </g>
</svg>