<svg height="512pt" viewBox="-61 0 512 512.00103" width="512pt" xmlns="http://www.w3.org/2000/svg"><path d="m266.980469 512h-198.800781c-37.652344 0-68.179688-30.523438-68.179688-68.179688v-375.640624c0-37.65625 30.527344-68.179688 68.179688-68.179688h198.800781c37.652343 0 68.179687 30.523438 68.179687 68.179688v375.640624c0 37.65625-30.527344 68.179688-68.179687 68.179688zm0 0" fill="#acabb1"/><path d="m322.574219 512h-198.796875c-37.65625 0-68.179688-30.523438-68.179688-68.179688v-375.640624c0-37.65625 30.523438-68.179688 68.179688-68.179688h198.796875c37.65625 0 68.183593 30.523438 68.183593 68.179688v375.640624c0 37.65625-30.527343 68.179688-68.183593 68.179688zm0 0" fill="#b2e59c"/><path d="m123.777344 0c-37.65625 0-68.179688 30.523438-68.179688 68.179688v375.640624c0 37.65625 30.523438 68.179688 68.179688 68.179688h51.988281c4.644531-74.886719 9.605469-223.460938-16.335937-307.96875-35.695313-116.277344-7.003907-204.03125-7.003907-204.03125zm0 0" fill="#9ad880"/><path d="m322.574219 0h-198.796875c-37.65625 0-68.179688 30.523438-68.179688 68.179688v37.316406h335.15625v-37.316406c.003906-37.65625-30.523437-68.179688-68.179687-68.179688zm0 0" fill="#eaeaea"/><path d="m123.777344 0c-37.65625 0-68.179688 30.523438-68.179688 68.179688v37.316406h86.40625c-3.183594-63.882813 10.421875-105.496094 10.421875-105.496094zm0 0" fill="#d8d7da"/><path d="m322.574219 512h-198.796875c-37.65625 0-68.179688-30.523438-68.179688-68.179688v-37.316406h335.15625v37.316406c.003906 37.65625-30.523437 68.179688-68.179687 68.179688zm0 0" fill="#eaeaea"/><path d="m245.589844 459.25c0 12.378906-10.035156 22.414062-22.414063 22.414062-12.375 0-22.410156-10.035156-22.410156-22.414062 0-12.375 10.035156-22.410156 22.410156-22.410156 12.378907 0 22.414063 10.035156 22.414063 22.410156zm0 0" fill="#d8d7da"/><path d="m173.082031 52.75c0 11.40625-9.25 20.652344-20.65625 20.652344s-20.652343-9.246094-20.652343-20.652344c0-11.410156 9.246093-20.65625 20.652343-20.65625s20.65625 9.246094 20.65625 20.65625zm0 0" fill="#c6c5ca"/><path d="m293.929688 73.402344h-71.632813c-11.40625 0-20.652344-9.246094-20.652344-20.652344 0-11.410156 9.246094-20.65625 20.652344-20.65625h71.632813c11.40625 0 20.652343 9.246094 20.652343 20.65625 0 11.40625-9.246093 20.652344-20.652343 20.652344zm0 0" fill="#c6c5ca"/><path d="m188.035156 239.136719h-27.925781c-10.09375 0-18.277344-8.183594-18.277344-18.277344v-27.925781c0-10.097656 8.183594-18.28125 18.277344-18.28125h27.925781c10.09375 0 18.277344 8.183594 18.277344 18.28125v27.925781c0 10.09375-8.183594 18.277344-18.277344 18.277344zm0 0" fill="#fff"/><g fill="#898890"><path d="m112.765625 217.796875c-4.265625 0-7.726563-3.457031-7.726563-7.726563v-22.511718c0-27.40625 22.292969-49.699219 49.695313-49.699219h22.511719c4.269531 0 7.726562 3.460937 7.726562 7.726563 0 4.269531-3.457031 7.726562-7.726562 7.726562h-22.511719c-18.882813 0-34.242187 15.363281-34.242187 34.246094v22.511718c0 4.269532-3.460938 7.726563-7.726563 7.726563zm0 0"/><path d="m177.246094 374.140625h-22.511719c-27.402344 0-49.695313-22.296875-49.695313-49.699219v-22.511718c0-4.269532 3.457032-7.726563 7.726563-7.726563 4.265625 0 7.726563 3.457031 7.726563 7.726563v22.511718c0 18.882813 15.359374 34.246094 34.242187 34.246094h22.511719c4.269531 0 7.726562 3.457031 7.726562 7.726562 0 4.265626-3.457031 7.726563-7.726562 7.726563zm0 0"/><path d="m333.589844 217.796875c-4.269532 0-7.726563-3.457031-7.726563-7.726563v-22.511718c0-18.882813-15.359375-34.246094-34.242187-34.246094h-22.515625c-4.265625 0-7.726563-3.457031-7.726563-7.726562 0-4.265626 3.460938-7.726563 7.726563-7.726563h22.515625c27.402344 0 49.695312 22.296875 49.695312 49.699219v22.511718c0 4.269532-3.457031 7.726563-7.726562 7.726563zm0 0"/><path d="m291.621094 374.140625h-22.515625c-4.265625 0-7.726563-3.460937-7.726563-7.726563 0-4.269531 3.460938-7.726562 7.726563-7.726562h22.515625c18.882812 0 34.242187-15.363281 34.242187-34.246094v-22.511718c0-4.269532 3.457031-7.726563 7.726563-7.726563 4.265625 0 7.726562 3.457031 7.726562 7.726563v22.511718c0 27.402344-22.292968 49.699219-49.695312 49.699219zm0 0"/><path d="m188.035156 334.171875h-27.925781c-10.09375 0-18.277344-8.183594-18.277344-18.28125v-27.921875c0-10.097656 8.183594-18.28125 18.277344-18.28125h27.925781c10.09375 0 18.277344 8.183594 18.277344 18.28125v27.921875c0 10.097656-8.183594 18.28125-18.277344 18.28125zm0 0"/><path d="m283.070312 239.136719h-27.925781c-10.097656 0-18.28125-8.183594-18.28125-18.277344v-27.925781c0-10.097656 8.183594-18.28125 18.28125-18.28125h27.925781c10.09375 0 18.277344 8.183594 18.277344 18.28125v27.925781c0 10.09375-8.183594 18.277344-18.277344 18.277344zm0 0"/></g><path d="m252.445312 334.171875c-8.605468 0-15.582031-6.976563-15.582031-15.582031v-33.324219c0-8.601563 6.976563-15.578125 15.582031-15.578125 8.605469 0 15.582032 6.976562 15.582032 15.578125v33.324219c-.003906 8.605468-6.976563 15.582031-15.582032 15.582031zm0 0" fill="#fff"/><path d="m293.621094 334.171875c-4.265625 0-7.726563-3.460937-7.726563-7.726563v-49.03125c0-4.265624 3.460938-7.726562 7.726563-7.726562 4.269531 0 7.726562 3.460938 7.726562 7.726562v49.03125c0 4.265626-3.457031 7.726563-7.726562 7.726563zm0 0" fill="#fff"/><path d="m179.464844 406.503906h-123.867188v37.316406c0 37.65625 30.523438 68.179688 68.179688 68.179688h51.988281c1.707031-27.5 3.457031-64.941406 3.699219-105.496094zm0 0" fill="#d8d7da"/></svg>