<svg width="40" height="40" viewBox="0 0 40 40" fill="none" xmlns="http://www.w3.org/2000/svg">
<path d="M38.91 13.64C38.28 14 37.6 14.17 36.92 14.17C36.5 14.17 36.08 14.1 35.68 13.97C34.73 14.42 33.68 14.68 32.56 14.68C31.66 14.68 30.81 14.51 30.02 14.22C31.27 16.36 33.44 17.79 35.87 18.11C35.96 18.78 36 19.47 36 20.16C36 20.75 35.97 21.33 35.9 21.91C33.51 22.27 31.39 23.71 30.19 25.8C28.89 28.03 28.8 30.63 29.71 32.86C28.69 33.64 27.58 34.3 26.41 34.81C24.94 32.98 22.68 31.81 20.18 31.81C17.61 31.81 15.31 33.03 13.85 34.93C12.68 34.44 11.57 33.81 10.54 33.06C11.4 30.88 11.27 28.35 10 26.14C8.76 23.98 6.56 22.53 4.12 22.21C4.04 21.54 4 20.86 4 20.16C4 19.57 4.03 18.98 4.1 18.4C6.49 18.03 8.61 16.6 9.81 14.51C11.11 12.29 11.2 9.68 10.28 7.45C11.3 6.67 12.41 6.01 13.58 5.5C15.05 7.33 17.31 8.51 19.81 8.51C21.94 8.51 23.87 7.66 25.31 6.3C25.57 4.49 26.48 2.9 27.81 1.76C26.54 1.22 25.21 0.799999 23.82 0.529999C23.81 2.73 22.02 4.51 19.82 4.51C17.64 4.51 15.87 2.77 15.82 0.609999C11.5 1.52 7.71 3.83 4.92 7.04C6.81 8.16 7.47 10.59 6.36 12.49C5.63 13.78 4.28 14.49 2.9 14.49C2.25 14.49 1.59 14.33 0.98 14C0.34 15.94 0 18.01 0 20.16C0 22.44 0.38 24.64 1.09 26.68C1.72 26.32 2.41 26.15 3.08 26.15C4.46 26.15 5.8 26.86 6.54 28.14C7.63 30.03 7.01 32.43 5.16 33.56C8 36.71 11.84 38.96 16.19 39.79C16.2 37.59 17.99 35.81 20.19 35.81C22.37 35.81 24.14 37.55 24.19 39.71C28.51 38.8 32.31 36.48 35.09 33.27C33.2 32.16 32.54 29.72 33.65 27.82C34.38 26.53 35.73 25.82 37.11 25.82C37.76 25.82 38.42 25.98 39.03 26.31C39.66 24.37 40 22.31 40 20.16C40 17.87 39.62 15.68 38.91 13.64Z" fill="#1890FF"/>
<path d="M20 14.16C16.69 14.16 14 16.85 14 20.16C14 23.47 16.69 26.16 20 26.16C23.31 26.16 26 23.47 26 20.16C26 16.85 23.31 14.16 20 14.16ZM20 22.16C18.9 22.16 18 21.26 18 20.16C18 19.06 18.9 18.16 20 18.16C21.1 18.16 22 19.06 22 20.16C22 21.26 21.1 22.16 20 22.16Z" fill="#1890FF"/>
<path d="M25.31 6.3C25.26 6.64 25.23 6.99 25.23 7.34C25.23 10.49 27.23 13.18 30.03 14.22C30.82 14.51 31.68 14.68 32.57 14.68C33.69 14.68 34.74 14.42 35.69 13.97C38.18 12.79 39.91 10.27 39.91 7.34C39.91 3.29 36.62 0 32.57 0C30.75 0 29.09 0.67 27.81 1.77C26.48 2.9 25.57 4.49 25.31 6.3ZM25.81 8.01V6.51H30.31V8.01H25.81ZM28.47 12.18L27.61 11.32L30.18 8.75L31.04 9.61L28.47 12.18ZM31.74 14.09V9.59H33.24V14.09H31.74ZM36.55 12.29L33.98 9.72L34.84 8.86L37.41 11.43L36.55 12.29ZM39.32 6.67V8.17H34.82V6.67H39.32ZM36.66 2.5L37.52 3.36L34.95 5.93L34.09 5.07L36.66 2.5ZM34.61 7.34C34.61 8.47 33.69 9.38 32.57 9.38C31.44 9.38 30.53 8.46 30.53 7.34C30.53 6.21 31.45 5.3 32.57 5.3C33.69 5.3 34.61 6.21 34.61 7.34ZM31.89 0.59H33.39V5.09H31.89V0.59ZM28.58 2.39L31.15 4.96L30.29 5.82L27.72 3.25L28.58 2.39Z" fill="#FFEBB3"/>
<path d="M32.57 5.29999C31.44 5.29999 30.53 6.21999 30.53 7.33999C30.53 8.46999 31.45 9.37999 32.57 9.37999C33.7 9.37999 34.61 8.45999 34.61 7.33999C34.61 6.20999 33.69 5.29999 32.57 5.29999Z" fill="white"/>
<path d="M33.39 0.589996H31.89V5.09H33.39V0.589996Z" fill="#DD4E4E"/>
<path d="M30.1796 8.75699L27.6128 11.3238L28.4684 12.1794L31.0352 9.61258L30.1796 8.75699Z" fill="#DD4E4E"/>
<path d="M28.5764 2.38736L27.7209 3.24295L30.2876 5.80972L31.1432 4.95413L28.5764 2.38736Z" fill="#DD4E4E"/>
<path d="M36.6573 2.49542L34.0905 5.06219L34.9461 5.91779L37.5129 3.35101L36.6573 2.49542Z" fill="#DD4E4E"/>
<path d="M34.8381 8.86502L33.9825 9.72061L36.5493 12.2874L37.4048 11.4318L34.8381 8.86502Z" fill="#DD4E4E"/>
<path d="M30.31 6.51001H25.81V8.01001H30.31V6.51001Z" fill="#DD4E4E"/>
<path d="M33.24 9.59H31.74V14.09H33.24V9.59Z" fill="#DD4E4E"/>
<path d="M39.32 6.67001H34.82V8.17001H39.32V6.67001Z" fill="#DD4E4E"/>
</svg>
