<svg width="34" height="43" viewBox="0 0 34 43" fill="none" xmlns="http://www.w3.org/2000/svg">
<path d="M18.24 10.53H6.23999V14.53H18.24V10.53Z" fill="#36B87F"/>
<path d="M26.27 19.52H6.23999V23.52H26.27V19.52Z" fill="#36B87F"/>
<path d="M26.23 28.46H6.23999V32.46H26.23V28.46Z" fill="#36B87F"/>
<path d="M31.86 11.06L28 7.19999V10.02H24V6.01999H26.83L22.97 2.15999L22.83 2.01999H17.99H4C1.79 2.01999 0 3.81999 0 6.01999V38.02C0 40.23 1.79 42.02 4 42.02H28C30.21 42.02 32 40.23 32 38.02V16.04V11.2L31.86 11.06ZM28 38.02H4V6.01999H20V10.02C20 12.23 21.79 14.02 24 14.02H28V38.02Z" fill="#36B87F"/>
<path d="M32 11.2V16.04L31.59 16.45L25.16 10.02L24 8.84999L17.58 2.42999L17.99 2.01999H22.83L22.97 2.15999L26.83 6.01999L28 7.19999L32 11.2Z" fill="#36B87F"/>
<path d="M26.05 0C22 0 18.71 3.29 18.71 7.34C18.71 11.39 22 14.68 26.05 14.68C30.1 14.68 33.39 11.39 33.39 7.34C33.39 3.29 30.1 0 26.05 0ZM30.15 2.5L31.01 3.36L28.44 5.93L27.58 5.07L30.15 2.5ZM25.38 0.59H26.88V5.09H25.38V0.59ZM22.07 2.39L24.64 4.96L23.78 5.82L21.21 3.25L22.07 2.39ZM19.3 8.01V6.51H23.8V8.01H19.3ZM21.96 12.18L21.1 11.32L23.67 8.75L24.53 9.61L21.96 12.18ZM24.01 7.34C24.01 6.21 24.93 5.3 26.05 5.3C27.18 5.3 28.09 6.22 28.09 7.34C28.09 8.47 27.17 9.38 26.05 9.38C24.93 9.38 24.01 8.47 24.01 7.34ZM26.73 14.09H25.23V9.59H26.73V14.09ZM30.04 12.29L27.47 9.72L28.33 8.86L30.9 11.43L30.04 12.29ZM28.31 8.17V6.67H32.81V8.17H28.31Z" fill="#FFEBB3"/>
<path d="M28.1 7.33999C28.1 6.20999 27.18 5.29999 26.06 5.29999C24.93 5.29999 24.02 6.21999 24.02 7.33999C24.02 8.46999 24.94 9.37999 26.06 9.37999C27.18 9.37999 28.1 8.46999 28.1 7.33999Z" fill="white"/>
<path d="M26.88 0.589996H25.38V5.09H26.88V0.589996Z" fill="#DD4E4E"/>
<path d="M23.6662 8.75549L21.0995 11.3223L21.955 12.1779L24.5218 9.61108L23.6662 8.75549Z" fill="#DD4E4E"/>
<path d="M22.0702 2.39285L21.2146 3.24844L23.7813 5.81522L24.6369 4.95962L22.0702 2.39285Z" fill="#DD4E4E"/>
<path d="M30.144 2.50797L27.5772 5.07474L28.4328 5.93033L30.9996 3.36356L30.144 2.50797Z" fill="#DD4E4E"/>
<path d="M28.3248 8.86356L27.4692 9.71915L30.036 12.2859L30.8915 11.4303L28.3248 8.86356Z" fill="#DD4E4E"/>
<path d="M23.8 6.51001H19.3V8.01001H23.8V6.51001Z" fill="#DD4E4E"/>
<path d="M26.73 9.59H25.23V14.09H26.73V9.59Z" fill="#DD4E4E"/>
<path d="M32.81 6.67001H28.31V8.17001H32.81V6.67001Z" fill="#DD4E4E"/>
</svg>
