<svg width="40" height="36" viewBox="0 0 40 36" fill="none" xmlns="http://www.w3.org/2000/svg">
<path d="M39.89 14.9901C40.01 14.5201 39.96 14.0001 39.71 13.5401L38.55 11.5701C37.22 13.4501 35.03 14.6801 32.56 14.6801C30.23 14.6801 28.16 13.5901 26.81 11.8901H20C17.79 11.8901 16 10.1001 16 7.89014C16 5.68014 14.21 3.89014 12 3.89014H4C1.79 3.88014 0 5.68014 0 7.88014V31.8801C0 34.0901 1.79 35.8801 4 35.8801H36C38.21 35.8801 40 34.0901 40 31.8801V15.8801C40 15.5701 39.96 15.2801 39.89 14.9901ZM36 31.8801H4V7.88014H12C12 12.2901 15.59 15.8801 20 15.8801H36V31.8801Z" fill="#EDBD66"/>
<path d="M26.0907 3.88023H18.1007C17.0007 3.88023 16.1007 4.78023 16.1007 5.88023C16.1007 6.98023 17.0007 7.88023 18.1007 7.88023H25.2507C25.2407 7.70023 25.2207 7.52023 25.2207 7.33023C25.2307 6.09023 25.5407 4.91023 26.0907 3.88023Z" fill="#EDBD66"/>
<path d="M32.5691 14.68C35.0391 14.68 37.2291 13.45 38.5591 11.57C39.4091 10.37 39.9091 8.91 39.9091 7.34C39.9091 3.29 36.6191 0 32.5691 0C29.7691 0 27.3291 1.58 26.0991 3.89C25.5491 4.92 25.2291 6.1 25.2291 7.34C25.2291 7.52 25.2391 7.7 25.2591 7.89C25.3691 9.4 25.9391 10.78 26.8191 11.89C28.1591 13.58 30.2391 14.68 32.5691 14.68ZM31.7391 14.09V9.59H33.2391V14.09H31.7391ZM30.5191 7.33C30.5191 6.2 31.4391 5.29 32.5591 5.29C33.6891 5.29 34.5991 6.21 34.5991 7.33C34.5991 8.46 33.6791 9.37 32.5591 9.37C31.4391 9.38 30.5191 8.46 30.5191 7.33ZM36.5491 12.29L33.9791 9.72L34.8391 8.86L37.4091 11.43L36.5491 12.29ZM39.3191 6.66V8.16H34.8191V6.66H39.3191ZM37.5191 3.35L34.9491 5.92L34.0891 5.06L36.6591 2.49L37.5191 3.35ZM33.3891 0.58V5.08H31.8891V0.58H33.3891ZM27.7191 3.24L28.5791 2.38L31.1491 4.95L30.2891 5.81L27.7191 3.24ZM25.8091 6.51H30.3091V8.01H25.8091V6.51V6.51ZM27.6091 11.32L30.1791 8.75L31.0391 9.61L28.4691 12.18L27.6091 11.32Z" fill="#FFEBB3"/>
<path d="M32.5693 9.37991C33.6992 9.37991 34.6092 8.45991 34.6092 7.33991C34.6092 6.20991 33.6892 5.29991 32.5693 5.29991C31.4393 5.29991 30.5293 6.21991 30.5293 7.33991C30.5193 8.45991 31.4393 9.37991 32.5693 9.37991Z" fill="white"/>
<path d="M33.3907 0.579842H31.8907V5.07984H33.3907V0.579842Z" fill="#DD4E4E"/>
<path d="M30.1834 8.75739L27.6166 11.3242L28.4722 12.1797L31.039 9.61298L30.1834 8.75739Z" fill="#DD4E4E"/>
<path d="M28.578 2.38636L27.7224 3.24195L30.2892 5.80872L31.1448 4.95313L28.578 2.38636Z" fill="#DD4E4E"/>
<path d="M36.66 2.49422L34.0932 5.06099L34.9488 5.91658L37.5156 3.34981L36.66 2.49422Z" fill="#DD4E4E"/>
<path d="M34.8395 8.86379L33.9839 9.71938L36.5507 12.2861L37.4063 11.4306L34.8395 8.86379Z" fill="#DD4E4E"/>
<path d="M30.3108 6.50998H25.8108V8.00998H30.3108V6.50998Z" fill="#DD4E4E"/>
<path d="M33.2395 9.58983H31.7395V14.0898H33.2395V9.58983Z" fill="#DD4E4E"/>
<path d="M39.3193 6.66018H34.8193V8.16018H39.3193V6.66018Z" fill="#DD4E4E"/>
</svg>
