<svg width="39" height="44" viewBox="0 0 39 44" fill="none" xmlns="http://www.w3.org/2000/svg">
<path d="M33.6602 5.92986H33.6702L34.9902 4.60986H34.9802L33.6602 5.92986Z" fill="#36B87F"/>
<path d="M31 14.67V40.09H4V4.91H24.36C24.94 3.25 26.1 1.86 27.6 1H4C1.79 1 0 2.75 0 4.91V40.09C0 42.25 1.79 44 4 44H31C33.21 44 35 42.25 35 40.09V13.66C33.91 14.31 32.64 14.68 31.28 14.68C31.19 14.68 31.09 14.68 31 14.67Z" fill="#1890FF"/>
<path d="M31 9.58984H31.96V14.0898V9.58984H31Z" fill="#36B87F"/>
<path d="M35.0001 10.3101V10.3001L33.5601 8.87012L35.0001 10.3101Z" fill="#36B87F"/>
<path d="M26.4399 3.25014L27.2999 2.39014L28.9299 4.02014L27.2999 2.39014L26.4399 3.25014L28.0999 4.91014L26.4399 3.25014Z" fill="#36B87F"/>
<path d="M22 9H6.5V13H22V14.5H26V13H26.61C25.02 11.69 23.99 9.71 23.95 7.5H22V9Z" fill="#1890FF"/>
<path d="M27.1799 12.1799L26.8999 11.8899L27.1799 12.1799L28.4999 10.8699V10.8599L27.1799 12.1799Z" fill="#36B87F"/>
<path d="M9 25.5H13V24H28.5V20H13V18.5H9V20H6.5V24H9V25.5Z" fill="#1890FF"/>
<path d="M22 36.5H26V35H28.5V31H26V29.5H22V31H6.5V35H22V36.5Z" fill="#1890FF"/>
<path d="M31.2799 0C29.9399 0 28.6799 0.36 27.5999 1C26.0999 1.86 24.9399 3.25 24.3599 4.91C24.0899 5.67 23.9399 6.49 23.9399 7.34C23.9399 7.39 23.9399 7.45 23.9499 7.5C23.9899 9.71 25.0199 11.69 26.6099 13C27.8199 14 29.3399 14.61 30.9999 14.67C31.0899 14.68 31.1899 14.68 31.2799 14.68C32.6399 14.68 33.9099 14.31 34.9999 13.66C37.1699 12.39 38.6199 10.03 38.6199 7.34C38.6199 3.29 35.3299 0 31.2799 0ZM35.3799 2.5L36.2299 3.36H36.2399L34.9899 4.61L33.6699 5.93H33.6599L32.7999 5.07L35.3799 2.5ZM33.3199 7.34C33.3199 8.47 32.3999 9.38 31.2799 9.38C31.1899 9.38 31.0899 9.37 30.9999 9.36C30.0099 9.22 29.2399 8.37 29.2399 7.34C29.2399 6.31 30.0099 5.46 30.9999 5.32C31.0899 5.31 31.1899 5.3 31.2799 5.3C32.4099 5.3 33.3199 6.22 33.3199 7.34ZM30.6099 0.59H32.1099V1.16V5.09H30.6099V0.59ZM26.4399 3.25L27.2999 2.39L28.9299 4.02L29.8199 4.91H29.8299L29.8599 4.94L29.8799 4.96H29.8899L29.0299 5.82L28.0999 4.91L26.4399 3.25ZM24.5299 6.51H29.0299V8.01H24.5299V6.51V6.51ZM28.4999 10.87L27.1799 12.18L26.8899 11.89L26.3199 11.32L28.8899 8.75L28.8999 8.74L29.7499 9.6H29.7599L28.4999 10.87ZM31.9599 14.09H30.4599V9.59H30.9999H31.9599V14.09ZM35.2699 12.29H35.2599L34.9999 12.03V12.02L32.6999 9.72L33.5599 8.86L33.5699 8.87L35.0099 10.3V10.31L36.1299 11.43H36.1399L35.2699 12.29ZM38.0399 8.17H33.5399V6.67H34.9999H38.0399V8.17Z" fill="#FFEBB3"/>
<path d="M30.6099 5.08984H32.1099V1.15984V0.589844H30.6099V5.08984Z" fill="#DD4E4E"/>
<path d="M28.5001 10.8598L29.7501 9.60977L28.9001 8.75977H28.8901L26.3301 11.3198L26.9001 11.8898L27.1801 12.1798L28.5001 10.8598Z" fill="#DD4E4E"/>
<path d="M26.4399 3.25014L28.0999 4.91014L29.0099 5.81014L29.8699 4.96014L29.8499 4.94014L29.8199 4.91014L28.9299 4.02014L27.2999 2.39014L26.4399 3.25014Z" fill="#DD4E4E"/>
<path d="M32.8101 5.06977L33.6601 5.92977L34.9801 4.60977L36.2301 3.35977L35.3701 2.50977L32.8101 5.06977Z" fill="#DD4E4E"/>
<path d="M36.1202 11.4299L35.0002 10.3099L33.5602 8.86986L33.5502 8.85986L32.7002 9.71986L35.0002 12.0199L35.2602 12.2899L36.1202 11.4299Z" fill="#DD4E4E"/>
<path d="M29.0298 8.00977V6.50977H24.5298V8.00977H29.0298Z" fill="#DD4E4E"/>
<path d="M31 9.58984H30.46V14.0898H31.96V9.58984H31Z" fill="#DD4E4E"/>
<path d="M35 6.66992H33.54V8.16992H38.04V6.66992H35Z" fill="#DD4E4E"/>
</svg>
