<svg width="41" height="45" viewBox="0 0 41 45" fill="none" xmlns="http://www.w3.org/2000/svg">
<path d="M28 0.0299988H4C1.8 0.0299988 0 1.83 0 4.03V36.03C0 38.23 1.8 40.03 4 40.03H5.09V36.03H4V4.03H28V4.67H32V4.03C32 1.83 30.2 0.0299988 28 0.0299988Z" fill="#36B87F"/>
<path d="M23.38 14.91H11.38V18.91H23.38V14.91Z" fill="#36B87F"/>
<path d="M31.41 23.9H11.38V27.9H31.41V23.9Z" fill="#36B87F"/>
<path d="M31.37 32.84H11.38V36.84H31.37V32.84Z" fill="#36B87F"/>
<path d="M37 13.78L33.14 9.92001V12.74H29.14V8.74001H31.97L28.11 4.88001L27.97 4.74001H23.13H9.14001C6.93001 4.74001 5.14001 6.54001 5.14001 8.74001V40.74C5.14001 42.95 6.93001 44.74 9.14001 44.74H33.14C35.35 44.74 37.14 42.95 37.14 40.74V18.76V13.92L37 13.78ZM33.14 40.74H9.14001V8.74001H25.14V12.74C25.14 14.95 26.93 16.74 29.14 16.74H33.14V40.74Z" fill="#36B87F"/>
<path d="M33.56 0C29.51 0 26.22 3.29 26.22 7.34C26.22 11.39 29.51 14.68 33.56 14.68C37.61 14.68 40.9 11.39 40.9 7.34C40.9 3.29 37.61 0 33.56 0ZM37.66 2.5L38.52 3.36L35.95 5.93L35.09 5.07L37.66 2.5ZM32.89 0.59H34.39V5.09H32.89V0.59ZM29.58 2.39L32.15 4.96L31.29 5.82L28.72 3.25L29.58 2.39ZM26.81 8.01V6.51H31.31V8.01H26.81ZM29.47 12.18L28.61 11.32L31.18 8.75L32.04 9.61L29.47 12.18ZM31.52 7.34C31.52 6.21 32.44 5.3 33.56 5.3C34.69 5.3 35.6 6.22 35.6 7.34C35.6 8.47 34.68 9.38 33.56 9.38C32.44 9.38 31.52 8.47 31.52 7.34ZM34.24 14.09H32.74V9.59H34.24V14.09ZM37.55 12.29L34.98 9.72L35.84 8.86L38.41 11.43L37.55 12.29ZM35.82 8.17V6.67H40.32V8.17H35.82Z" fill="#FFEBB3"/>
<path d="M34.39 0.589996H32.89V5.09H34.39V0.589996Z" fill="#DD4E4E"/>
<path d="M31.18 8.75999L28.61 11.33L29.47 12.19L32.04 9.61999L31.18 8.75999Z" fill="#DD4E4E"/>
<path d="M29.58 2.39L28.72 3.25L31.29 5.82L32.15 4.96L29.58 2.39Z" fill="#DD4E4E"/>
<path d="M37.66 2.50999L35.09 5.07999L35.95 5.93999L38.51 3.36999L37.66 2.50999Z" fill="#DD4E4E"/>
<path d="M35.84 8.87L34.98 9.72999L37.55 12.3L38.41 11.44L35.84 8.87Z" fill="#DD4E4E"/>
<path d="M31.31 6.50999H26.81V8.00999H31.31V6.50999Z" fill="#DD4E4E"/>
<path d="M34.24 9.59H32.74V14.09H34.24V9.59Z" fill="#DD4E4E"/>
<path d="M40.32 6.67H35.82V8.17H40.32V6.67Z" fill="#DD4E4E"/>
</svg>
