<?xml version="1.0" encoding="UTF-8"?>
<svg width="14px" height="14px" viewBox="0 0 14 14" version="1.1" xmlns="http://www.w3.org/2000/svg" xmlns:xlink="http://www.w3.org/1999/xlink">
    <!-- Generator: Sketch 62 (91390) - https://sketch.com -->
    <title>组织</title>
    <desc>Created with Sketch.</desc>
    <g id="页面-1" stroke="none" stroke-width="1" fill="none" fill-rule="evenodd">
        <g id="图标" transform="translate(-232.000000, -457.000000)" fill="#FF9053" fill-rule="nonzero">
            <g id="组织" transform="translate(232.000000, 457.000000)">
                <path d="M11.3062187,8.90034375 L11.3062187,7.6771875 C11.3062187,6.81125 10.60425,6.10929687 9.73832812,6.10929687 L7.2724375,6.10929687 L7.2724375,5.10296875 C7.72407983,4.98910233 8.13621833,4.75446809 8.46467187,4.42421875 C9.47357812,3.4153125 9.47357812,1.77959375 8.46467187,0.7706875 C7.45576563,-0.23821875 5.82003125,-0.23821875 4.811125,0.7706875 C4.3266355,1.25518156 4.05445271,1.9122939 4.05445313,2.59746875 C4.05445313,3.80529687 4.88339063,4.8194375 6.00335938,5.10228125 L6.00335938,6.10929687 L3.544125,6.10929687 C2.67453125,6.10929687 1.96959375,6.81423437 1.96959375,7.68382812 L1.96959375,8.89403125 C0.842609375,9.1718125 0.004296875,10.1910312 0.004296875,11.4025312 C0.004296875,12.8270625 1.16323438,13.9859687 2.58775,13.9859687 C4.01226563,13.9859687 5.1711875,12.8270625 5.1711875,11.4025312 C5.1711875,10.2027656 4.34910938,9.19145312 3.23865625,8.90220312 L3.23865625,7.68384375 C3.23865625,7.51540625 3.3756875,7.378375 3.54414062,7.378375 L9.73835937,7.378375 C9.903125,7.378375 10.0371875,7.51242187 10.0371875,7.6771875 L10.0371875,8.89571875 C8.91370312,9.17596875 8.07882812,10.1935156 8.07882812,11.4025312 C8.07882812,12.8270625 9.23775,13.9859687 10.6622656,13.9859687 C12.0867812,13.9859687 13.2457344,12.8270625 13.2457344,11.4025312 C13.2457344,10.2002656 12.4202031,9.1871875 11.3062344,8.90034375 L11.3062187,8.90034375 Z M5.32351562,2.59746875 C5.32351562,2.246375 5.46023437,1.9163125 5.70848437,1.66804687 C5.95675,1.41979687 6.28679687,1.28307812 6.63789062,1.28307812 C6.98896875,1.28307812 7.31904687,1.41979687 7.56729687,1.66804687 C7.81553125,1.9163125 7.95228125,2.246375 7.95228125,2.59745313 C7.95228125,2.94853125 7.8155625,3.27860938 7.56728125,3.52684375 L7.56484375,3.5293125 C7.32307813,3.77240625 6.98776562,3.91184375 6.64492188,3.91184375 L6.63789062,3.91184375 C5.91314062,3.91184375 5.32351562,3.32221875 5.32351562,2.59746875 L5.32351562,2.59746875 Z M3.90210937,11.4025312 C3.90210937,12.1272969 3.31248437,12.7169219 2.58773437,12.7169219 C1.86296875,12.7169219 1.27332812,12.1272969 1.27332812,11.4025469 C1.27332812,10.6777969 1.86296875,10.0881719 2.58771875,10.0881719 C3.31248437,10.0881719 3.90210937,10.6777969 3.90210937,11.4025469 L3.90210937,11.4025312 Z M10.6622656,12.7169219 C9.9375,12.7169219 9.347875,12.1272969 9.347875,11.4025469 C9.347875,10.6777969 9.9375,10.0881719 10.66225,10.0881719 C11.387,10.0881719 11.976625,10.6777969 11.976625,11.4025469 C11.976625,12.1272969 11.387,12.7169219 10.66225,12.7169219 L10.6622656,12.7169219 Z" id="形状"></path>
            </g>
        </g>
    </g>
</svg>