<?xml version="1.0" encoding="UTF-8"?>
<svg width="14px" height="21.6px" viewBox="0 0 12 14" version="1.1" xmlns="http://www.w3.org/2000/svg" xmlns:xlink="http://www.w3.org/1999/xlink">
    <!-- Generator: Sketch 62 (91390) - https://sketch.com -->
    <title>字典管理</title>
    <desc>Created with Sketch.</desc>
    <g id="页面-1" stroke="none" stroke-width="1" fill="none" fill-rule="evenodd">
        <g id="图标" transform="translate(-287.000000, -746.000000)" fill="#000000" fill-rule="nonzero">
            <g id="字典管理" transform="translate(287.000000, 746.000000)">
                <path d="M4.93125,0.815625 L2.653125,0.815625 C2.43125,0.815625 2.2515625,0.6359375 2.2515625,0.4140625 C2.2515625,0.1921875 2.43125,0.0125 2.653125,0.0125 L4.93125,0.0125 C5.153125,0.0125 5.3328125,0.1921875 5.3328125,0.4140625 C5.3328125,0.6359375 5.153125,0.815625 4.93125,0.815625 Z" id="路径"></path>
                <path d="M0.4078125,12.4265625 C0.1859375,12.4265625 0.00625,12.246875 0.00625,12.025 L0.00625,1.615625 C0.00625,0.73125 0.725,0.0125 1.609375,0.0125 L2.653125,0.0125 C2.875,0.0125 3.0546875,0.1921875 3.0546875,0.4140625 C3.0546875,0.6359375 2.875,0.815625 2.653125,0.815625 L1.609375,0.815625 C1.16875,0.815625 0.8109375,1.1734375 0.8109375,1.6140625 L0.8109375,12.0234375 C0.809375,12.246875 0.6296875,12.4265625 0.4078125,12.4265625 Z M6.24375,4.4171875 C6.1453125,4.4171875 6.05,4.396875 5.96875,4.3625 C5.7578125,4.271875 5.6265625,4.0828125 5.6265625,3.86875 L5.6265625,0.415625 C5.6265625,0.19375 5.80625,0.0140625 6.028125,0.0140625 C6.25,0.0140625 6.4296875,0.19375 6.4296875,0.415625 L6.4296875,3.36875 L6.8625,2.953125 C7.0828125,2.7421875 7.4265625,2.7421875 7.6453125,2.953125 L7.990625,3.2859375 L7.990625,0.4140625 C7.990625,0.1921875 8.1703125,0.0125 8.3921875,0.0125 C8.6140625,0.0125 8.79375,0.1921875 8.79375,0.4140625 L8.79375,3.8453125 C8.79375,4.071875 8.659375,4.275 8.45,4.3640625 C8.2421875,4.453125 8.0015625,4.409375 7.8375,4.2515625 L7.2515625,3.6890625 L6.665625,4.2515625 C6.546875,4.3703125 6.3921875,4.4171875 6.24375,4.4171875 L6.24375,4.4171875 Z" id="形状"></path>
                <path d="M11.1265625,13.9828125 L1.6078125,13.9828125 C0.7234375,13.9828125 0.0046875,13.2640625 0.0046875,12.3796875 L0.0046875,12.0234375 C0.0046875,11.8015625 0.184375,11.621875 0.40625,11.621875 C0.628125,11.621875 0.8078125,11.8015625 0.8078125,12.0234375 L0.8078125,12.3796875 C0.8078125,12.8203125 1.165625,13.178125 1.60625,13.178125 L11.125,13.178125 C11.346875,13.178125 11.5265726,13.3578125 11.5265726,13.5796875 C11.528125,13.803125 11.3484375,13.9828125 11.1265625,13.9828125 Z" id="路径"></path>
                <path d="M0.4078125,12.6875 L0.39375,12.6875 C0.171875,12.6796875 -0.0015625,12.49375 0.00625,12.271875 C0.021875,11.83125 0.1046875,11.5140625 0.2671875,11.278125 C0.4828125,10.9640625 0.8203125,10.8046875 1.271875,10.8046875 L10.88125,10.8046875 C10.93125,10.7625 10.98125,10.709375 11.015625,10.6703125 L11.015625,1.0796875 C10.9875,1 10.8328125,0.8453125 10.753125,0.8171875 L4.93125,0.8171875 C4.709375,0.8171875 4.5296875,0.6375 4.5296875,0.415625 C4.5296875,0.19375 4.709375,0.0140625 4.93125,0.0140625 L10.76875,0.0140625 C11.078125,0.0140625 11.3421875,0.23125 11.471875,0.3609375 C11.6015625,0.490625 11.81875,0.7546875 11.81875,1.0640625 L11.81875,10.7765625 C11.81875,10.9453125 11.721875,11.0828125 11.6265625,11.19375 C11.5546875,11.278125 11.465625,11.365625 11.3828125,11.434375 C11.3671875,11.4484375 11.35,11.4609375 11.3328125,11.4734375 C11.2484375,11.5375 11.13125,11.6109375 10.984375,11.6109375 L1.2703125,11.6109375 C1.0359375,11.6109375 0.8328125,11.6109375 0.809375,12.3015625 C0.8015625,12.5171875 0.6234375,12.6875 0.4078125,12.6875 Z" id="路径"></path>
                <path d="M2.35,11.6 C2.128125,11.6 1.9484375,11.4203125 1.9484375,11.1984375 L1.9484375,0.4140625 C1.9484375,0.1921875 2.128125,0.0125 2.35,0.0125 C2.571875,0.0125 2.7515625,0.1921875 2.7515625,0.4140625 L2.7515625,11.196875 C2.7515625,11.4203125 2.571875,11.6 2.35,11.6 Z M11.1078125,13.984375 L11.0828125,13.984375 C10.9796875,13.9796875 10.6140625,13.9484375 10.2671875,13.7203125 C9.9625,13.521875 9.6015625,13.1265625 9.6015625,12.371875 C9.6015625,11.3984375 10.159375,10.79375 11.05625,10.79375 C11.278125,10.79375 11.4578125,10.9734375 11.4578125,11.1953125 C11.4578125,11.4171875 11.278125,11.596875 11.05625,11.596875 C10.8609375,11.596875 10.4046875,11.596875 10.4046875,12.371875 C10.4046875,12.7 10.5078125,12.9234375 10.71875,13.05625 C10.884375,13.159375 11.0640625,13.178125 11.109375,13.18125 C11.13125,13.1796875 11.1546875,13.18125 11.178125,13.184375 C11.3921875,13.2109375 11.546875,13.403125 11.5296875,13.6171875 C11.515625,13.765625 11.3921875,13.984375 11.1078125,13.984375 L11.1078125,13.984375 Z M11.1265625,13.1996875 C11.0942096,13.2096875 11.0589154,13.2296875 11.0265625,13.2596875 C11.0589154,13.2296875 11.0912684,13.2096875 11.1265625,13.1996875 Z" id="形状"></path>
            </g>
        </g>
    </g>
</svg>