<?xml version="1.0" encoding="UTF-8"?>
<svg width="28px" height="28px" viewBox="0 0 28 28" version="1.1" xmlns="http://www.w3.org/2000/svg" xmlns:xlink="http://www.w3.org/1999/xlink">
    <!-- Generator: Sketch 62 (91390) - https://sketch.com -->
    <title>文档备份</title>
    <desc>Created with Sketch.</desc>
    <g id="页面-1" stroke="none" stroke-width="1" fill="none" fill-rule="evenodd">
        <g id="图标" transform="translate(-700.000000, -123.000000)">
            <g id="文档备份" transform="translate(700.000000, 123.000000)">
                <rect id="矩形" fill="#3FBD5A" x="0" y="0" width="28" height="28" rx="4"></rect>
                <g id="编组-17" transform="translate(7.569378, 6.296651)" fill-rule="nonzero">
                    <path d="M0.824915827,0.33492823 L9.28412864,0.33492823 C9.51798116,0.33492823 9.74084468,0.426810032 9.89728374,0.587718798 L13.1518757,3.93529902 C13.2882031,4.07552154 13.3636364,4.25749475 13.3636364,4.44614483 L13.3636364,13.5712919 C13.3636364,13.9930366 12.994309,14.3349282 12.5387205,14.3349282 L0.824915827,14.3349282 C0.369327395,14.3349282 0,13.9930366 0,13.5712919 L0,1.0985646 C0,0.676819875 0.369327395,0.33492823 0.824915827,0.33492823 Z" id="Rectangle-17" stroke="#FFFFFF" stroke-width="2.111111" fill="#FFFFFF"></path>
                    <path d="M2.00956938,5.49282297 L6.43062203,5.49282297 C6.83756869,5.49282297 7.16746411,5.82271843 7.16746411,6.22966509 C7.16746411,6.63661175 6.83756869,6.96650718 6.43062203,6.96650718 L2.00956938,6.96650718 C1.60262272,6.96650718 1.27272727,6.63661175 1.27272727,6.22966509 C1.27272727,5.82271843 1.60262272,5.49282297 2.00956938,5.49282297 Z" id="Rectangle-19" fill="#3FBD5A"></path>
                    <path d="M2.00956937,8.44019139 L9.37799042,8.44019139 C9.78493708,8.44019139 10.1148325,8.77008681 10.1148325,9.17703347 C10.1148325,9.58398014 9.78493708,9.9138756 9.37799042,9.9138756 L2.00956937,9.9138756 C1.60262272,9.9138756 1.27272727,9.58398014 1.27272727,9.17703347 C1.27272727,8.77008681 1.60262272,8.44019139 2.00956937,8.44019139 Z" id="Rectangle-19" fill="#3FBD5A"></path>
                    <path d="M2.00956937,11.3875598 L9.37799042,11.3875598 C9.78493708,11.3875598 10.1148325,11.7174552 10.1148325,12.1244019 C10.1148325,12.5313486 9.78493708,12.861244 9.37799042,12.861244 L2.00956937,12.861244 C1.60262272,12.861244 1.27272727,12.5313486 1.27272727,12.1244019 C1.27272727,11.7174552 1.60262272,11.3875598 2.00956937,11.3875598 Z" id="Rectangle-19" fill="#3FBD5A"></path>
                    <path d="M9.7980052,1.56860551 L12.3030743,4.57944613 C12.4639718,4.82087257 12.4639718,4.96157723 12.454835,5.11647566 C12.4438159,5.30328742 12.3579739,5.45264642 12.2408899,5.55593196 C12.1220998,5.66072258 11.8879476,5.73342483 11.6812955,5.73342483 L9.17622635,5.76076555 C8.71423272,5.76076555 8.33971292,5.45119926 8.33971292,5.06932989 L8.33971292,2.03114856 C8.33971292,1.6492792 8.71423272,1.33971292 9.17622635,1.33971292 C9.41336836,1.33971292 9.63936661,1.42290862 9.7980052,1.56860551 Z" id="Rectangle-20" fill="#3FBD5A"></path>
                </g>
            </g>
        </g>
    </g>
</svg>