<svg t="1610068810061" class="icon" viewBox="0 0 1335 1024" version="1.1" xmlns="http://www.w3.org/2000/svg" p-id="3164" width="200" height="200"><path d="M666.842794 0.000618A690.020665 690.020665 0 0 1 1335.045357 514.425734a691.133203 691.133203 0 0 1-1335.045357-4.944612A690.020665 690.020665 0 0 1 666.842794 0.000618z m1.297961 942.813976" fill="#467CFD" p-id="3165"></path><path d="M667.522679 804.798099a292.844671 292.844671 0 1 1 294.884324-292.844671A293.833594 293.833594 0 0 1 667.522679 804.798099z m0-81.153451a211.69122 211.69122 0 1 0-213.730873-211.69122A212.74195 212.74195 0 0 0 667.522679 723.644648z m0 0" fill="#FFFFFF" p-id="3166"></path><path d="M667.522679 723.644648a211.69122 211.69122 0 1 0-213.730873-211.69122A212.74195 212.74195 0 0 0 667.522679 723.644648" fill="#85A5FF" p-id="3167"></path></svg>
