<svg height="512pt" viewBox="0 0 512.00102 512" width="512pt" xmlns="http://www.w3.org/2000/svg"><path d="m441.996094 138.875v344.960938c0 15.257812-12.363282 27.617187-27.617188 27.617187h-386.757812c-15.257813 0-27.61718775-12.359375-27.61718775-27.617187v-344.960938c0-15.257812 12.35937475-27.617188 27.61718775-27.617188h386.757812c15.253906 0 27.617188 12.359376 27.617188 27.617188zm0 0" fill="#c4e2f2"/><path d="m441.992188 138.871094v32.988281h-441.992188v-32.988281c0-15.253906 12.359375-27.613282 27.617188-27.613282h386.757812c15.253906 0 27.617188 12.359376 27.617188 27.613282zm0 0" fill="#83b2c6"/><g fill="#e6e6e6"><path d="m36.574219 151.484375c-.511719 0-1.035157-.050781-1.535157-.15625-.503906-.09375-.992187-.25-1.464843-.449219-.480469-.1875-.929688-.4375-1.355469-.71875-.429688-.285156-.828125-.609375-1.195312-.972656-.355469-.355469-.6875-.761719-.96875-1.191406-.285157-.417969-.523438-.878906-.722657-1.347656-.195312-.480469-.34375-.972657-.449219-1.472657-.09375-.503906-.144531-1.015625-.144531-1.527343 0-.511719.050781-1.023438.144531-1.535157.105469-.5.25-.992187.449219-1.464843.199219-.46875.441407-.929688.722657-1.347657.28125-.4375.613281-.835937.96875-1.191406.367187-.363281.765624-.6875 1.195312-.980469.425781-.28125.875-.523437 1.355469-.722656.472656-.1875.960937-.34375 1.464843-.4375 2.546876-.523438 5.253907.3125 7.074219 2.140625.363281.355469.6875.753906.972657 1.191406.28125.417969.519531.878907.71875 1.347657.199218.472656.34375.964843.449218 1.464843.105469.511719.15625 1.023438.15625 1.535157 0 .511718-.050781 1.023437-.15625 1.527343-.105468.5-.25.992188-.449218 1.472657-.199219.46875-.4375.929687-.71875 1.347656-.285157.429687-.609376.835937-.972657 1.191406-1.464843 1.460938-3.480469 2.296875-5.539062 2.296875zm0 0"/><path d="m89.863281 151.484375c-.511719 0-1.023437-.050781-1.535156-.15625-.5-.09375-.992187-.25-1.460937-.449219-.472657-.1875-.933594-.4375-1.359376-.71875-.429687-.285156-.824218-.609375-1.191406-.972656-.355468-.355469-.691406-.761719-.972656-1.191406-.28125-.417969-.523438-.878906-.722656-1.347656-.195313-.480469-.34375-.972657-.449219-1.472657-.09375-.503906-.144531-1.015625-.144531-1.527343 0-.511719.050781-1.023438.144531-1.535157.105469-.5.25-.992187.449219-1.464843.199218-.46875.441406-.929688.722656-1.355469.28125-.429688.617188-.828125.972656-1.191407.367188-.355468.761719-.679687 1.191406-.972656.425782-.28125.886719-.523437 1.359376-.722656.46875-.195312.960937-.34375 1.460937-.449219 1.015625-.195312 2.058594-.195312 3.0625 0 .5.105469.992187.253907 1.472656.449219.46875.199219.917969.441406 1.347657.722656.425781.292969.835937.617188 1.191406.972656.367187.363282.691406.761719.972656 1.191407.28125.425781.523438.886719.71875 1.355469.199219.472656.347656.964843.449219 1.464843.105469.511719.15625 1.023438.15625 1.535157 0 .511718-.050781 1.023437-.15625 1.527343-.101563.5-.25.992188-.449219 1.472657-.195312.46875-.4375.929687-.71875 1.347656-.28125.429687-.605469.835937-.972656 1.191406-.355469.363281-.761719.6875-1.191406.972656-.429688.28125-.878907.53125-1.347657.71875-.480469.199219-.972656.355469-1.472656.449219-.503906.105469-1.015625.15625-1.527344.15625zm0 0"/><path d="m63.21875 151.484375c-.511719 0-1.023438-.050781-1.535156-.15625-.5-.09375-.992188-.25-1.464844-.449219-.46875-.1875-.929688-.425781-1.355469-.71875-.429687-.285156-.828125-.609375-1.191406-.972656-1.453125-1.453125-2.289063-3.480469-2.289063-5.539062 0-.511719.050782-1.023438.144532-1.535157.105468-.5.253906-.992187.449218-1.464843.199219-.46875.441407-.929688.722657-1.347657.285156-.4375.617187-.835937.972656-1.199219.367187-.355468.761719-.679687 1.191406-.972656.429688-.28125.886719-.523437 1.359375-.722656.46875-.1875.960938-.34375 1.460938-.4375 2.550781-.523438 5.253906.3125 7.074218 2.132812.367188.363282.691407.761719.972657 1.199219.28125.417969.523437.878907.722656 1.347657.195313.472656.34375.964843.449219 1.464843.105468.511719.15625 1.023438.15625 1.535157 0 2.058593-.835938 4.085937-2.300782 5.539062-1.464843 1.460938-3.480468 2.296875-5.539062 2.296875zm0 0"/></g><path d="m299.34375 242.246094c-.351562 1.890625-.550781 3.835937-.550781 5.828125 0 17.367187 14.082031 31.441406 31.449219 31.441406h-50.667969c-17.363281 0-31.4375-14.074219-31.4375-31.441406 0-17.363281 14.074219-31.449219 31.4375-31.449219v-81.523438c0-8.246093 1.066406-16.238281 3.085937-23.84375h131.71875c15.253906 0 27.617188 12.359376 27.617188 27.617188v103.371094zm0 0" fill="#83b2c6"/><path d="m391.246094 0h-7.726563c-8.160156 0-14.773437 6.613281-14.773437 14.773438v55.105468h37.269531v-55.105468c0-8.160157-6.613281-14.773438-14.769531-14.773438zm0 0" fill="#eabb36"/><path d="m480.550781 135.101562v107.144532h-186.347656v-107.144532c0-51.460937 41.722656-93.171874 93.175781-93.171874 51.460938 0 93.171875 41.710937 93.171875 93.171874zm0 0" fill="#ffe14d"/><path d="m411.523438 279.515625c0 14.085937-8.417969 26.199219-20.488282 31.589844-4.308594 1.933593-9.082031 3-14.101562 3-19.101563 0-34.589844-15.484375-34.589844-34.589844 0-19.101563 15.488281-34.582031 34.589844-34.582031 5.019531 0 9.792968 1.070312 14.101562 3 12.070313 5.390625 20.488282 17.5 20.488282 31.582031zm0 0" fill="#83b2c6"/><path d="m421.972656 279.515625c0 14.085937-8.417968 26.199219-20.488281 31.589844-4.308594 1.933593-9.082031 3-14.101563 3-19.101562 0-34.589843-15.484375-34.589843-34.589844 0-19.101563 15.488281-34.582031 34.589843-34.582031 5.019532 0 9.792969 1.070312 14.101563 3 12.070313 5.390625 20.488281 17.5 20.488281 31.582031zm0 0" fill="#eabb36"/><path d="m421.972656 279.515625c0 14.085937-8.417968 26.199219-20.488281 31.589844-12.070313-5.390625-20.488281-17.503907-20.488281-31.589844 0-14.082031 8.417968-26.191406 20.488281-31.582031 12.070313 5.390625 20.488281 17.5 20.488281 31.582031zm0 0" fill="#ffe14d"/><path d="m386.078125 41.953125c-27.371094 1.28125-49.359375 42.507813-49.359375 93.148437v107.148438h-42.507812v-107.148438c-.003907-51.011718 41.015624-92.472656 91.867187-93.148437zm0 0" fill="#ffbe1d"/><path d="m294.203125 199.382812h186.347656v42.863282h-186.347656zm0 0" fill="#ffbe1d"/><path d="m480.554688 279.519531h-186.347657c-17.367187 0-31.445312-14.078125-31.445312-31.445312 0-17.367188 14.078125-31.449219 31.445312-31.449219h186.347657c17.367187 0 31.445312 14.082031 31.445312 31.449219 0 17.367187-14.078125 31.445312-31.445312 31.445312zm0 0" fill="#ffe14d"/><path d="m313.425781 248.074219c0-17.367188 14.078125-31.449219 31.445313-31.449219h-50.664063c-17.367187 0-31.445312 14.082031-31.445312 31.449219 0 17.367187 14.078125 31.445312 31.445312 31.445312h50.664063c-17.367188 0-31.445313-14.078125-31.445313-31.445312zm0 0" fill="#ffbe1d"/><path d="m231.828125 365.136719-2.738281 20.894531-8.769532 66.761719c-1.574218 12.023437-11.816406 21.011719-23.949218 21.011719h-104.632813c-12.132812 0-22.371093-8.988282-23.949219-21.011719l-11.503906-87.65625 87.769532-23.511719zm0 0" fill="#ed3618"/><path d="m229.089844 386.03125-8.769532 66.761719c-1.574218 12.023437-11.816406 21.011719-23.949218 21.011719h-71.199219c-12.128906 0-22.371094-8.988282-23.949219-21.011719l-5.941406-45.246094c-1.496094-11.398437 7.378906-21.515625 18.875-21.515625zm0 0" fill="#ff491f"/><path d="m243.84375 341.5v12.789062c0 5.988282-4.859375 10.847657-10.847656 10.847657h-177.882813c-5.988281 0-10.847656-4.859375-10.847656-10.847657v-12.789062c0-5.988281 4.859375-10.847656 10.847656-10.847656h177.882813c5.988281 0 10.847656 4.859375 10.847656 10.847656zm0 0" fill="#ed3618"/><path d="m243.84375 341.5v12.789062c0 5.988282-4.859375 10.847657-10.847656 10.847657h-136.085938c-5.988281 0-10.847656-4.859375-10.847656-10.847657v-12.789062c0-5.988281 4.859375-10.847656 10.847656-10.847656h136.085938c5.988281 0 10.847656 4.859375 10.847656 10.847656zm0 0" fill="#ff491f"/><path d="m144.054688 281.542969c-9.808594 0-17.761719 7.953125-17.761719 17.761719v84.636718c0 9.8125 7.953125 17.765625 17.761719 17.765625 9.8125 0 17.761718-7.953125 17.761718-17.765625v-84.636718c0-9.808594-7.949218-17.761719-17.761718-17.761719zm0 0" fill="#3c3f4d"/><path d="m206.964844 215.671875h-148.894532c-4.328124 0-7.835937-3.511719-7.835937-7.839844 0-4.324219 3.507813-7.835937 7.835937-7.835937h148.894532c4.328125 0 7.835937 3.511718 7.835937 7.835937 0 4.328125-3.511719 7.839844-7.835937 7.839844zm0 0" fill="#3c3f4d"/><path d="m158.378906 252.523438h-100.308594c-4.328124 0-7.835937-3.507813-7.835937-7.835938s3.507813-7.835938 7.835937-7.835938h100.304688c4.332031 0 7.839844 3.507813 7.839844 7.835938s-3.507813 7.835938-7.835938 7.835938zm0 0" fill="#3c3f4d"/><path d="m391.898438 407.398438h-100.304688c-4.328125 0-7.835938-3.507813-7.835938-7.835938s3.507813-7.835938 7.835938-7.835938h100.304688c4.328124 0 7.835937 3.507813 7.835937 7.835938s-3.507813 7.835938-7.835937 7.835938zm0 0" fill="#2c92bf"/><path d="m391.898438 444.253906h-100.304688c-4.328125 0-7.835938-3.507812-7.835938-7.835937s3.507813-7.839844 7.835938-7.839844h100.304688c4.328124 0 7.835937 3.511719 7.835937 7.839844s-3.507813 7.835937-7.835937 7.835937zm0 0" fill="#2c92bf"/></svg>