<?xml version="1.0" encoding="UTF-8"?>
<svg width="14px" height="21.6px" viewBox="0 0 15 15" version="1.1" xmlns="http://www.w3.org/2000/svg" xmlns:xlink="http://www.w3.org/1999/xlink">
    <!-- Generator: Sketch 62 (91390) - https://sketch.com -->
    <title>组织</title>
    <desc>Created with Sketch.</desc>
    <g id="页面-1" stroke="none" stroke-width="1" fill="none" fill-rule="evenodd">
        <g id="图标" transform="translate(-81.000000, -397.000000)" fill="#FF9053">
            <g id="组织" transform="translate(81.000000, 397.000000)">
                <g id="形状">
                    <path d="M14.3641602,13.9166602 L13.7891602,13.9166602 L13.7891602,5.16916016 C13.7891602,4.53583984 13.2716602,4.02083984 12.6408398,4.02083984 L9.76833984,4.02083984 L9.76833984,1.14833984 C9.76833984,0.515839844 9.25166016,0 8.62,0 L2.3025,0 C1.67166016,0 1.15416016,0.5175 1.15416016,1.14833984 L1.15416016,13.9166602 L0.579160156,13.9166602 C0.2625,13.9166602 0.00416015625,14.0425 0.00416015625,14.3583398 C0.00416015625,14.675 0.2625,14.9341602 0.579160156,14.9341602 L14.3625,14.9341602 C14.6791602,14.9341602 14.9375,14.6758398 14.9375,14.3591602 C14.9375,14.0425 14.6808398,13.9166602 14.3641602,13.9166602 Z M8.75,5.16916016 L8.75,13.9166602 L2.16666016,13.9166602 L2.16666016,1.0675 L8.75,1.0675 L8.75,5.16916016 Z M12.75,13.9166602 L9.76833984,13.9166602 L9.76833984,5.16916016 L12.75,5.16916016 L12.75,13.9166602 Z" fill-rule="nonzero"></path>
                    <path d="M4.02583984,4.44583984 L6.89833984,4.44583984 C7.215,4.44583984 7.47333984,4.22083984 7.47333984,3.94583984 C7.47333984,3.67083984 7.215,3.44583984 6.89833984,3.44583984 L4.025,3.44583984 C3.70833984,3.44583984 3.45,3.67083984 3.45,3.94583984 C3.45166016,4.22083984 3.70833984,4.44583984 4.025,4.44583984 L4.02583984,4.44583984 Z M4.02583984,11.3366602 L6.89833984,11.3366602 C7.215,11.3366602 7.47333984,11.1116602 7.47333984,10.8366602 C7.47333984,10.5616602 7.215,10.3366602 6.89833984,10.3366602 L4.025,10.3366602 C3.70833984,10.3366602 3.45,10.5616602 3.45,10.8366602 C3.45,11.1116602 3.70833984,11.3366602 4.025,11.3366602 L4.02583984,11.3366602 Z M10.9191406,8.46583984 L11.4941406,8.46583984 C11.8108203,8.46583984 12.0691406,8.24083984 12.0691406,7.96583984 C12.0691406,7.69083984 11.8108203,7.46583984 11.4941406,7.46583984 L10.9191406,7.46583984 C10.6024805,7.46583984 10.3441406,7.69083984 10.3441406,7.96583984 C10.3441406,8.24083984 10.6024805,8.46583984 10.9191406,8.46583984 Z M10.9191406,11.3366602 L11.4941406,11.3366602 C11.8108203,11.3366602 12.0691406,11.1116602 12.0691406,10.8366602 C12.0691406,10.5616602 11.8108203,10.3366602 11.4941406,10.3366602 L10.9191406,10.3366602 C10.6024805,10.3366602 10.3441406,10.5616602 10.3441406,10.8366602 C10.3441406,11.1116602 10.6024805,11.3366602 10.9191406,11.3366602 Z M4.025,7.89083984 L6.8975,7.89083984 C7.21416016,7.89083984 7.4725,7.66583984 7.4725,7.39083984 C7.4725,7.11583984 7.21416016,6.89083984 6.8975,6.89083984 L4.025,6.89083984 C3.70833984,6.89083984 3.45,7.11583984 3.45,7.39083984 C3.45,7.66583984 3.70833984,7.89083984 4.025,7.89083984 Z" fill-rule="nonzero"></path>
                </g>
            </g>
        </g>
    </g>
</svg>