<svg height="512pt" viewBox="0 0 512 512" width="512pt" xmlns="http://www.w3.org/2000/svg"><path d="m410.640625 367.691406v73.855469c-42.9375 42.9375-102.027344 69.722656-167.382813 70.433594zm0 0" fill="#ff451b"/><path d="m243.257812 511.980469c-.90625.007812-1.804687.019531-2.710937.019531l-61.808594-120.273438 61.808594-120.273437 158.050781 46.359375v111.691406c-37.890625 49.828125-93.375 81.578125-155.339844 82.476563zm0 0" fill="#ff6523"/><path d="m450.1875 271.453125h30.90625c0 66.425781-26.929688 126.566406-70.453125 170.09375l-12.042969-12.042969zm0 0" fill="#ffa433"/><path d="m240.546875 271.453125h209.640625c0 60.503906-19.46875 115.78125-51.589844 158.050781zm0 0" fill="#ffc43b"/><path d="m512 240.546875h-30.90625l-206.933594-240.5273438c131.609375 1.4414068 237.839844 108.5820308 237.839844 240.5273438zm0 0" fill="#5dc75d"/><path d="m481.09375 240.546875h-209.640625v-240.546875c.90625 0 1.800781.0117188 2.707031.0195312 114.539063 1.6601568 206.933594 108.7148438 206.933594 240.5273438zm0 0" fill="#aed06d"/><path d="m240.546875 271.453125v240.546875c-132.851563 0-240.546875-107.695312-240.546875-240.546875l120.273438-61.8125zm0 0" fill="#08e2ff"/><path d="m240.546875 30.90625v240.546875h-240.546875c0-132.851563 107.695312-240.546875 240.546875-240.546875zm0 0" fill="#199aff"/></svg>