<svg height="512pt" viewBox="0 0 512 512" width="512pt" xmlns="http://www.w3.org/2000/svg" xmlns:xlink="http://www.w3.org/1999/xlink"><linearGradient id="a"><stop offset="0" stop-color="#ecf7ff"/><stop offset="1" stop-color="#c2e0ff"/></linearGradient><linearGradient id="b" gradientUnits="userSpaceOnUse" x1="57.3887995612" x2="345.5144135612" xlink:href="#a" y1="-77.7183204534" y2="431.2702339388"/><linearGradient id="c"><stop offset=".0029" stop-color="#c2e0ff" stop-opacity="0"/><stop offset=".0763" stop-color="#bfdcfd" stop-opacity=".07451"/><stop offset="1" stop-color="#9eb2e7"/></linearGradient><linearGradient id="d" gradientUnits="userSpaceOnUse" x1="456.3361584348" x2="3.5673364348" xlink:href="#c" y1="487.844852758" y2="247.907494758"/><linearGradient id="e"><stop offset="0" stop-color="#8be1e2"/><stop offset=".1873" stop-color="#87e1e1"/><stop offset=".3558" stop-color="#7ce2dd"/><stop offset=".5172" stop-color="#6ae2d7"/><stop offset=".6741" stop-color="#50e4ce"/><stop offset=".8278" stop-color="#2fe5c2"/><stop offset=".9772" stop-color="#07e7b4"/><stop offset="1" stop-color="#00e7b2"/></linearGradient><radialGradient id="f" cx="112.1188120976" cy="258.3339274734" gradientUnits="userSpaceOnUse" r="216.9187316386" xlink:href="#e"/><linearGradient id="g" gradientUnits="userSpaceOnUse" x1="261.7188512808" x2="175.6510119456" y1="394.852059859" y2="308.7842205238"><stop offset=".0029" stop-color="#00e7b2" stop-opacity="0"/><stop offset=".4308" stop-color="#1bc4b7" stop-opacity=".427451"/><stop offset="1" stop-color="#3b9abe"/></linearGradient><linearGradient id="h" gradientUnits="userSpaceOnUse" x1="148.2646221388" x2="199.8729392162" y1="281.397830717" y2="333.0060474022"><stop offset="0" stop-color="#f9f9f9"/><stop offset="1" stop-color="#e6e6e6"/></linearGradient><linearGradient id="i"><stop offset="0" stop-color="#45425a"/><stop offset="1" stop-color="#2d3251"/></linearGradient><linearGradient id="j" gradientUnits="userSpaceOnUse" x1="100.3514407668" x2="100.3514407668" xlink:href="#i" y1="15.7308553868" y2="60.9457955994"/><linearGradient id="k" gradientUnits="userSpaceOnUse" x1="301.0542219082" x2="301.0542219082" y1="15.7308553868" y2="60.9457955994"><stop offset="0" stop-color="#8be1e2"/><stop offset=".1426" stop-color="#7fe2de"/><stop offset=".4015" stop-color="#5fe3d3"/><stop offset=".7443" stop-color="#2be5c1"/><stop offset="1" stop-color="#00e7b2"/></linearGradient><linearGradient id="l" gradientUnits="userSpaceOnUse" x1="256.00011" x2="256.00011" xlink:href="#a" y1="120.47064" y2="70.6271174064"/><linearGradient id="m" gradientUnits="userSpaceOnUse" x1="256.00011" x2="256.00011" xlink:href="#c" y1="447.2819867012" y2="506.5876749292"/><linearGradient id="n" gradientUnits="userSpaceOnUse" x1="323.2258392782" x2="493.427663" xlink:href="#i" y1="350.8534715416" y2="350.8534715416"/><linearGradient id="o" gradientUnits="userSpaceOnUse" x1="323.2258392782" x2="493.427663" xlink:href="#i" y1="388.0646436092" y2="388.0646436092"/><linearGradient id="p" gradientUnits="userSpaceOnUse" x1="323.2258392782" x2="458.7571163378" xlink:href="#i" y1="425.2761168534" y2="425.2761168534"/><radialGradient id="q" cx="40.5114652504" cy="14.2776782918" gradientUnits="userSpaceOnUse" r="29.9857446492" xlink:href="#e"/><radialGradient id="r" cx="94.3279087668" cy="16.053716702" gradientUnits="userSpaceOnUse" r="28.9574273446"><stop offset="0" stop-color="#ffd459"/><stop offset=".2296" stop-color="#ffd355"/><stop offset=".4362" stop-color="#ffcf4a"/><stop offset=".634" stop-color="#ffc838"/><stop offset=".825" stop-color="#ffbf1f"/><stop offset="1" stop-color="#ffb400"/></radialGradient><radialGradient id="s" cx="147.3281636972" cy="12.6195003244" gradientUnits="userSpaceOnUse" r="30.80534657"><stop offset="0" stop-color="#ff6e3a"/><stop offset=".2085" stop-color="#ff6a3c"/><stop offset=".396" stop-color="#ff5f44"/><stop offset=".5755" stop-color="#ff4d50"/><stop offset=".7501" stop-color="#ff3361"/><stop offset=".9195" stop-color="#ff1278"/><stop offset="1" stop-color="#ff0084"/></radialGradient><linearGradient id="t" gradientUnits="userSpaceOnUse" x1="48.5755691076" x2="48.5755691076" xlink:href="#i" y1="104.407888" y2="135.9281274262"/><linearGradient id="u" gradientUnits="userSpaceOnUse" x1="78.8142017086" x2="78.8142017086" xlink:href="#i" y1="104.407888" y2="135.9281274262"/><linearGradient id="v" gradientUnits="userSpaceOnUse" x1="107.3285982746" x2="107.3285982746" xlink:href="#i" y1="104.407888" y2="135.9281274262"/><linearGradient id="w" gradientUnits="userSpaceOnUse" x1="137.8727243402" x2="137.8727243402" xlink:href="#i" y1="104.407888" y2="135.9281274262"/><linearGradient id="x" gradientUnits="userSpaceOnUse" x1="170.5035022828" x2="170.5035022828" xlink:href="#i" y1="104.407888" y2="135.9281274262"/><linearGradient id="y" gradientUnits="userSpaceOnUse" x1="201.0480299172" x2="201.0480299172" xlink:href="#i" y1="104.407888" y2="135.9281274262"/><path d="m200.703125 58.210938v-13.65625c0-24.609376-19.945313-44.554688-44.554687-44.554688h-111.59375c-24.609376 0-44.554688 19.945312-44.554688 44.554688v422.890624c0 24.609376 19.945312 44.554688 44.554688 44.554688h422.890624c24.609376 0 44.554688-19.945312 44.554688-44.554688v-397.1875c0-6.65625-5.394531-12.046874-12.046875-12.046874zm0 0" fill="url(#b)"/><path d="m256.496094 211.570312c-25.164063-26.085937-60.472656-42.3125-99.574219-42.3125-76.410156 0-138.347656 61.9375-138.347656 138.347657 0 39.101562 16.226562 74.410156 42.3125 99.574219l104.820312 104.820312h301.738281c24.609376 0 44.554688-19.945312 44.554688-44.554688v-.371093zm0 0" fill="url(#d)"/><path d="m295.265625 307.605469c0 76.40625-61.9375 138.34375-138.34375 138.34375-76.410156 0-138.347656-61.9375-138.347656-138.34375 0-76.410157 61.9375-138.347657 138.347656-138.347657 76.40625 0 138.34375 61.9375 138.34375 138.347657zm0 0" fill="url(#f)"/><path d="m295.265625 307.605469c0-3.859375-.164063-7.679688-.472656-11.457031l-53.285157-53.28125c-5.640624-5.644532-14.792968-5.644532-20.4375 0l-77.335937 77.335937c-5.644531 5.644531-14.796875 5.644531-20.441406 0l-30.527344-30.527344c-5.640625-5.640625-14.792969-5.640625-20.4375 0l-13.5625 13.5625c-5.644531 5.644531-5.644531 14.796875 0 20.4375l120.472656 120.472657c65.792969-10.671876 116.027344-67.738282 116.027344-136.542969zm0 0" fill="url(#g)"/><path d="m120.910156 385.816406c6.960938 6.960938 18.25 6.960938 25.210938 0l108.949218-108.949218c5.644532-5.644532 5.644532-14.792969 0-20.4375l-13.5625-13.5625c-5.640624-5.644532-14.792968-5.644532-20.4375 0l-77.335937 77.335937c-5.644531 5.644531-14.796875 5.644531-20.441406 0l-30.527344-30.527344c-5.640625-5.640625-14.792969-5.640625-20.4375 0l-13.5625 13.5625c-5.644531 5.644531-5.644531 14.796875 0 20.4375zm0 0" fill="url(#h)"/><path d="m156.148438 0h-111.59375c-24.609376 0-44.554688 19.945312-44.554688 44.554688v13.65625h200.703125v-13.65625c0-24.609376-19.945313-44.554688-44.554687-44.554688zm0 0" fill="url(#j)"/><path d="m356.851562 0h-111.59375c-24.609374 0-44.554687 19.945312-44.554687 44.554688v13.65625h200.703125v-13.65625c0-24.609376-19.949219-44.554688-44.554688-44.554688zm0 0" fill="url(#k)"/><path d="m474.605469 137.355469h-437.210938c-10.394531 0-18.820312-8.429688-18.820312-18.824219v-26.421875c0-10.394531 8.425781-18.824219 18.820312-18.824219h437.210938c10.394531 0 18.820312 8.429688 18.820312 18.824219v26.421875c0 10.394531-8.425781 18.824219-18.820312 18.824219zm0 0" fill="url(#l)"/><path d="m0 421.261719v46.183593c0 24.609376 19.945312 44.554688 44.554688 44.554688h422.890624c24.609376 0 44.554688-19.945312 44.554688-44.554688v-46.183593zm0 0" fill="url(#m)"/><path d="m323.226562 343.324219h170.199219v15.058593h-170.199219zm0 0" fill="url(#n)"/><path d="m323.226562 380.535156h170.199219v15.058594h-170.199219zm0 0" fill="url(#o)"/><path d="m323.226562 417.746094h135.53125v15.058594h-135.53125zm0 0" fill="url(#p)"/><path d="m64.4375 29.105469c0 9.0625-7.347656 16.410156-16.410156 16.410156s-16.410156-7.347656-16.410156-16.410156 7.347656-16.410157 16.410156-16.410157 16.410156 7.347657 16.410156 16.410157zm0 0" fill="url(#q)"/><path d="m116.761719 29.105469c0 9.0625-7.347657 16.410156-16.410157 16.410156s-16.410156-7.347656-16.410156-16.410156 7.347656-16.410157 16.410156-16.410157 16.410157 7.347657 16.410157 16.410157zm0 0" fill="url(#r)"/><path d="m169.085938 29.105469c0 9.0625-7.347657 16.410156-16.410157 16.410156s-16.410156-7.347656-16.410156-16.410156 7.347656-16.410157 16.410156-16.410157 16.410157 7.347657 16.410157 16.410157zm0 0" fill="url(#s)"/><path d="m48.15625 120.621094c2.003906 0 3.675781-.484375 5.007812-1.449219 1.335938-.960937 2.003907-2.445313 2.003907-4.449219 0-1.632812-.445313-2.941406-1.335938-3.921875-.890625-.984375-2-1.816406-3.335937-2.503906-1.335938-.6875-2.792969-1.335937-4.367188-1.949219-1.578125-.613281-3.035156-1.351562-4.367187-2.226562-1.335938-.871094-2.449219-1.992188-3.339844-3.363282-.890625-1.371093-1.335937-3.171874-1.335937-5.398437 0-2.039063.390624-3.746094 1.167968-5.117187.78125-1.371094 1.789063-2.476563 3.035156-3.3125 1.238282-.835938 2.621094-1.417969 4.144532-1.753907 1.519531-.332031 3.023437-.5 4.503906-.5.890625 0 1.921875.066407 3.089844.195313 1.167968.128906 2.273437.351562 3.308594.667968 1.039062.3125 1.921874.722657 2.644531 1.222657.722656.5 1.085937 1.140625 1.085937 1.917969 0 .300781-.050781.625-.140625.976562-.09375.351562-.242187.695312-.445312 1.027344-.203125.332031-.464844.613281-.777344.835937-.316406.222657-.679687.332031-1.085937.332031-.371094 0-.761719-.109374-1.167969-.332031-.410157-.222656-.902344-.464843-1.476563-.726562-.574218-.257813-1.261718-.5-2.058594-.722657-.796874-.222656-1.789062-.332031-2.976562-.332031-2.039062 0-3.710938.398438-5.007812 1.195313-1.300782.800781-1.949219 2.085937-1.949219 3.867187 0 1.375.445312 2.460938 1.335937 3.257813s2.003906 1.5 3.339844 2.113281 2.789062 1.214844 4.367188 1.808594c1.574218.59375 3.03125 1.382812 4.367187 2.363281 1.335937.984375 2.449219 2.246094 3.339844 3.785156.890625 1.539063 1.335937 3.53125 1.335937 5.980469 0 2.003906-.316406 3.746094-.949218 5.230469-.628907 1.484375-1.511719 2.71875-2.640626 3.699218-1.132812.980469-2.476562 1.714844-4.035156 2.195313-1.558594.484375-3.246094.726563-5.0625.726563s-3.476562-.214844-4.976562-.640626c-1.503906-.425781-2.804688-.964843-3.894532-1.613281-1.097656-.648437-1.941406-1.355469-2.535156-2.113281-.59375-.761719-.890625-1.496094-.890625-2.199219 0-.332031.066407-.6875.195313-1.058593.132812-.367188.316406-.710938.558594-1.027344.238281-.316406.519531-.574219.832031-.78125.316406-.203125.640625-.304688.976562-.304688.480469 0 .960938.230469 1.445313.695313.480468.464843 1.066406.964843 1.753906 1.503906.683594.535156 1.519531 1.039063 2.503906 1.5.980469.46875 2.253906.699219 3.808594.699219zm0 0" fill="url(#t)"/><path d="m72.527344 102.816406h8.570312c.628906 0 1.109375.242188 1.445313.722656.332031.484376.5 1.039063.5 1.667969 0 .523438-.15625 1.03125-.472657 1.53125-.316406.5-.808593.75-1.472656.75h-8.570312v12.796875h16.523437c.632813 0 1.113281.261719 1.449219.78125.332031.519532.5 1.148438.5 1.890625 0 .632813-.160156 1.214844-.472656 1.753907-.316406.539062-.808594.804687-1.476563.804687h-19.804687c-.632813 0-1.226563-.164063-1.78125-.5-.554688-.332031-.835938-.816406-.835938-1.445313v-36.777343c0-.628907.28125-1.113281.835938-1.445313.554687-.335937 1.148437-.503906 1.78125-.503906h19.804687c.667969 0 1.160157.269531 1.476563.808594.3125.539062.472656 1.121094.472656 1.753906 0 .742188-.167969 1.371094-.503906 1.890625-.332032.519531-.816406.777344-1.445313.777344h-16.523437zm0 0" fill="url(#u)"/><path d="m113.921875 96.027344c-.035156-.480469-.128906-1.066406-.277344-1.753906-.148437-.683594-.445312-1.332032-.890625-1.945313-.445312-.613281-1.085937-1.140625-1.921875-1.585937-.832031-.445313-1.972656-.667969-3.417969-.667969-2.152343 0-3.804687.582031-4.953124 1.753906-1.148438 1.167969-1.722657 2.976563-1.722657 5.421875v16.191406c0 2.449219.574219 4.257813 1.722657 5.425782 1.148437 1.167968 2.839843 1.753906 5.0625 1.753906 1.410156 0 2.53125-.210938 3.367187-.640625.832031-.425781 1.464844-.953125 1.890625-1.585938.425781-.628906.703125-1.304687.835938-2.03125.128906-.722656.230468-1.398437.304687-2.03125.074219-.742187.371094-1.25.890625-1.527343.519531-.277344 1.1875-.417969 2.003906-.417969 1.035156 0 1.796875.203125 2.28125.613281.480469.40625.722656 1.222656.722656 2.445312 0 1.523438-.308593 2.921876-.917968 4.199219-.613282 1.28125-1.476563 2.386719-2.589844 3.3125-1.109375.929688-2.445312 1.640625-4.003906 2.144531-1.558594.5-3.28125.75-5.175782.75-1.667968 0-3.253906-.222656-4.757812-.667968-1.5-.445313-2.808594-1.160156-3.921875-2.144532-1.109375-.980468-1.992187-2.261718-2.640625-3.835937-.648438-1.578125-.972656-3.496094-.972656-5.761719v-16.1875c0-2.261718.324218-4.183594.972656-5.757812.648438-1.578125 1.539062-2.859375 2.671875-3.839844 1.128906-.984375 2.445313-1.699219 3.949219-2.144531 1.5-.445313 3.085937-.667969 4.757812-.667969 1.890625 0 3.617188.25 5.171875.753906 1.558594.5 2.894531 1.195313 4.007813 2.085938 1.113281.890625 1.964844 1.945312 2.558594 3.171875.59375 1.222656.890624 2.578125.890624 4.058593 0 1.261719-.242187 2.085938-.722656 2.476563-.484375.390625-1.222656.585937-2.226562.585937-.890625 0-1.59375-.160156-2.113282-.472656-.523437-.316406-.800781-.808594-.835937-1.476562zm0 0" fill="url(#v)"/><path d="m144.6875 86.738281c0-.667969.308594-1.152343.917969-1.449219.613281-.296874 1.289062-.445312 2.03125-.445312.742187 0 1.417969.148438 2.03125.445312.609375.296876.917969.78125.917969 1.449219v26.703125c0 2.265625-.324219 4.183594-.972657 5.761719-.652343 1.574219-1.550781 2.855469-2.699219 3.835937-1.152343.984376-2.503906 1.699219-4.0625 2.144532-1.558593.445312-3.226562.667968-5.007812.667968-1.777344 0-3.441406-.222656-4.980469-.667968-1.539062-.445313-2.882812-1.160156-4.03125-2.144532-1.152343-.980468-2.050781-2.261718-2.699219-3.835937-.648437-1.578125-.972656-3.496094-.972656-5.761719v-26.703125c0-.667969.304688-1.152343.917969-1.449219.609375-.296874 1.285156-.445312 2.027344-.445312.742187 0 1.421875.148438 2.03125.445312.613281.296876.917969.78125.917969 1.449219v26.703125c0 2.449219.605468 4.257813 1.808593 5.425782 1.207031 1.167968 2.867188 1.753906 4.980469 1.753906 2.148438 0 3.828125-.585938 5.035156-1.753906 1.203125-1.167969 1.808594-2.976563 1.808594-5.425782zm0 0" fill="url(#w)"/><path d="m157.761719 86.738281c0-.519531.175781-.964843.53125-1.335937.351562-.371094.824219-.558594 1.417969-.558594h10.570312c1.742188 0 3.394531.1875 4.953125.558594 1.554687.371094 2.917969 1 4.085937 1.890625 1.167969.890625 2.085938 2.058593 2.753907 3.503906.667969 1.449219 1 3.246094 1 5.398437 0 1.667969-.203125 3.125-.609375 4.367188-.410156 1.242188-.957032 2.308594-1.640625 3.199219-.6875.890625-1.511719 1.621093-2.476563 2.195312-.964844.578125-2.003906.996094-3.117187 1.253907l7.789062 14.632812c.148438.257812.222657.539062.222657.832031 0 .371094-.109376.742188-.332032 1.113281-.222656.371094-.5.695313-.835937.972657-.332031.28125-.714844.503906-1.140625.667969-.425782.167968-.84375.25-1.25.25-.964844 0-1.746094-.574219-2.335938-1.722657l-8.125-15.914062h-5.617187v15.523437c0 .632813-.308594 1.113282-.917969 1.445313-.613281.335937-1.289062.503906-2.03125.503906s-1.410156-.167969-2.003906-.503906c-.59375-.332031-.890625-.8125-.890625-1.445313zm5.84375 3.335938v13.242187h6.675781c2.078125 0 3.746094-.5 5.007812-1.5 1.261719-1.003906 1.890626-2.710937 1.890626-5.121094 0-2.410156-.632813-4.117187-1.890626-5.117187-1.261718-1.003906-2.929687-1.503906-5.007812-1.503906zm0 0" fill="url(#x)"/><path d="m194.761719 102.816406h8.566406c.632813 0 1.113281.242188 1.449219.722656.332031.484376.5 1.039063.5 1.667969 0 .523438-.160156 1.03125-.472656 1.53125-.316407.5-.808594.75-1.476563.75h-8.566406v12.796875h16.523437c.628906 0 1.113282.261719 1.445313.78125.335937.519532.503906 1.148438.503906 1.890625 0 .632813-.160156 1.214844-.472656 1.753907-.316407.539062-.808594.804687-1.476563.804687h-19.808594c-.628906 0-1.222656-.164063-1.777343-.5-.558594-.332031-.835938-.816406-.835938-1.445313v-36.777343c0-.628907.277344-1.113281.835938-1.445313.554687-.335937 1.148437-.503906 1.777343-.503906h19.808594c.667969 0 1.160156.269531 1.476563.808594.3125.539062.472656 1.121094.472656 1.753906 0 .742188-.167969 1.371094-.503906 1.890625-.332031.519531-.816407.777344-1.445313.777344h-16.523437zm0 0" fill="url(#y)"/></svg>