<?xml version="1.0" encoding="UTF-8"?>
<svg width="16px" height="16px" viewBox="0 0 16 16" version="1.1" xmlns="http://www.w3.org/2000/svg" xmlns:xlink="http://www.w3.org/1999/xlink">
    <!-- Generator: Sketch 62 (91390) - https://sketch.com -->
    <title>流程</title>
    <desc>Created with Sketch.</desc>
    <g id="页面-1" stroke="none" stroke-width="1" fill="none" fill-rule="evenodd">
        <g id="图标" transform="translate(-232.000000, -576.000000)" fill="#409EFF" fill-rule="nonzero">
            <g id="流程" transform="translate(232.000000, 576.000000)">
                <path d="M7.99866667,4.45088889 C9.22711111,4.45088889 10.2226667,3.45533333 10.2226667,2.22688889 C10.2226667,0.998444444 9.22711111,0.00111111111 7.99866667,0.00111111111 C6.77022222,0.00111111111 5.77466667,0.996666667 5.77466667,2.22511111 C5.77466667,3.45355556 6.77022222,4.45088889 7.99866667,4.45088889 Z M7.99866667,1.13888889 C8.59777778,1.13888889 9.08488889,1.626 9.08488889,2.22511111 C9.08488889,2.82422222 8.59777778,3.31133333 7.99866667,3.31133333 C7.39955556,3.31133333 6.91244444,2.82422222 6.91244444,2.22511111 C6.91244444,1.626 7.39955556,1.13888889 7.99866667,1.13888889 Z M4.164,11.0251111 C3.75155556,10.3122222 3.00488889,9.91222222 2.23511111,9.91222222 C1.85822222,9.91222222 1.476,10.0082222 1.124,10.2108889 C0.0591111111,10.826 -0.305333333,12.186 0.309777778,13.2491111 C0.722222222,13.962 1.46888889,14.362 2.23866667,14.362 C2.61555556,14.362 2.99777778,14.266 3.34977778,14.0633333 C4.41288889,13.45 4.77733333,12.09 4.164,11.0251111 Z M2.78088889,13.0784444 C2.61377778,13.1744444 2.43066667,13.2242222 2.23866667,13.2242222 C2.05022222,13.2242222 1.86355556,13.1744444 1.7,13.082 C1.53288889,12.9877778 1.39244444,12.8491111 1.29466667,12.6802222 C0.994222222,12.1611111 1.17377778,11.4944444 1.69288889,11.1957778 C1.86,11.0997778 2.04311111,11.05 2.23511111,11.05 C2.42355556,11.05 2.61022222,11.0997778 2.77377778,11.1922222 C2.94088889,11.2864444 3.08133333,11.4251111 3.17911111,11.594 C3.47777778,12.1131111 3.3,12.7797778 2.78088889,13.0784444 Z M14.8146667,10.2446667 C14.4644444,10.042 14.0822222,9.946 13.7035556,9.946 C12.9355556,9.946 12.1871111,10.3442222 11.7746667,11.0588889 C11.1595556,12.1237778 11.5257778,13.4837778 12.5888889,14.0971111 C12.9391111,14.2997778 13.3213333,14.3957778 13.7,14.3957778 C14.468,14.3957778 15.2164444,13.9975556 15.6288889,13.2828889 C16.2422222,12.2197778 15.8777778,10.8597778 14.8146667,10.2446667 Z M14.644,12.7157778 C14.5462222,12.8846667 14.4075556,13.0233333 14.2386667,13.1175556 C14.0751111,13.21 13.8884444,13.2597778 13.7,13.2597778 C13.508,13.2597778 13.3266667,13.21 13.1577778,13.114 C12.6386667,12.8135556 12.4608889,12.1486667 12.7595556,11.6295556 C12.8573333,11.4606667 12.996,11.322 13.1648889,11.2277778 C13.3284444,11.1353333 13.5151111,11.0855556 13.7035556,11.0855556 C13.8955556,11.0855556 14.0768889,11.1353333 14.244,11.2313333 C14.7648889,11.53 14.9426667,12.1966667 14.644,12.7157778 Z M10.7791111,3.37888889 C12.7897778,4.42777778 14.0395556,6.48822222 14.0395556,8.75488889 C14.0395556,8.88644444 14.036,9.02155556 14.0271111,9.15311111 C14.0075556,9.466 14.244,9.738 14.5586667,9.75755556 C14.5711111,9.75755556 14.5835556,9.75933333 14.596,9.75933333 C14.8928889,9.75933333 15.1435556,9.52822222 15.1631111,9.22777778 C15.1737778,9.07133333 15.1791111,8.91133333 15.1791111,8.75488889 C15.1791111,7.41444444 14.8075556,6.106 14.1053333,4.97177778 C13.4226667,3.86955556 12.4555556,2.97 11.3071111,2.37088889 C11.028,2.22511111 10.6848889,2.33355556 10.5391111,2.61266667 C10.3915556,2.89 10.5,3.23488889 10.7791111,3.37888889 Z M1.36044444,9.722 C1.37111111,9.722 1.38355556,9.722 1.39422222,9.72022222 C1.70711111,9.70244444 1.94711111,9.43222222 1.92933333,9.11933333 C1.92222222,8.99844444 1.91866667,8.87577778 1.91866667,8.75666667 C1.91866667,6.474 3.18088889,4.40822222 5.21288889,3.36288889 C5.492,3.21888889 5.60222222,2.87577778 5.45822222,2.59666667 C5.31422222,2.31755556 4.97111111,2.20733333 4.692,2.35133333 C3.53288889,2.94688889 2.55688889,3.84644444 1.86533333,4.954 C1.156,6.09355556 0.780888889,7.40733333 0.780888889,8.75666667 C0.780888889,8.89888889 0.784444444,9.04288889 0.793333333,9.18688889 C0.811111111,9.48733333 1.06177778,9.722 1.36044444,9.722 Z M11.2004444,13.8908889 C10.2368889,14.4971111 9.124,14.8171111 7.97911111,14.8171111 C6.82355556,14.8171111 5.69822222,14.49 4.72755556,13.8731111 C4.46266667,13.7042222 4.11066667,13.7824444 3.94177778,14.0473333 C3.77288889,14.3122222 3.85111111,14.6642222 4.116,14.8331111 C5.26977778,15.5673333 6.60488889,15.9566667 7.97911111,15.9566667 C9.33733333,15.9566667 10.66,15.5762222 11.8048889,14.8562222 C12.0715556,14.6891111 12.1515556,14.3371111 11.9844444,14.0722222 C11.8173333,13.8037778 11.4653333,13.7237778 11.2004444,13.8908889 L11.2004444,13.8908889 Z" id="形状"></path>
            </g>
        </g>
    </g>
</svg>
