<?xml version="1.0" encoding="iso-8859-1"?>
<!-- Generator: Adobe Illustrator 19.0.0, SVG Export Plug-In . SVG Version: 6.00 Build 0)  -->
<svg version="1.1" id="Layer_1" xmlns="http://www.w3.org/2000/svg" xmlns:xlink="http://www.w3.org/1999/xlink" x="0px" y="0px"
	 viewBox="0 0 512 512" style="enable-background:new 0 0 512 512;" xml:space="preserve">
<path style="fill:#6B8F9C;" d="M463.248,309.283H272.696v-26.891c0-9.22-7.475-16.696-16.696-16.696s-16.696,7.475-16.696,16.696
	v26.891H48.751c-9.22,0-16.696,7.475-16.696,16.696v74.154c0,9.22,7.475,16.696,16.696,16.696s16.696-7.475,16.696-16.696v-57.459
	h173.857v57.459c0,9.22,7.475,16.696,16.696,16.696s16.696-7.475,16.696-16.696v-57.459h173.856v57.459
	c0,9.22,7.475,16.696,16.696,16.696c9.22,0,16.696-7.475,16.696-16.696v-74.154C479.943,316.758,472.468,309.283,463.248,309.283z"
	/>
<path style="fill:#325763;" d="M463.248,309.283H272.696v-26.891c0-9.22-7.475-16.696-16.696-16.696v151.132
	c9.22,0,16.696-7.475,16.696-16.696v-57.459h173.856v57.459c0,9.22,7.475,16.696,16.696,16.696c9.22,0,16.696-7.475,16.696-16.696
	v-74.154C479.943,316.758,472.468,309.283,463.248,309.283z"/>
<g>
	<path style="fill:#FAE8AC;" d="M256,480.94c-26.881,0-48.751-21.869-48.751-48.751s21.87-48.752,48.751-48.752
		s48.752,21.87,48.752,48.752S282.881,480.94,256,480.94z"/>
	<path style="fill:#FAE8AC;" d="M48.751,480.94C21.87,480.94,0,459.071,0,432.189s21.87-48.752,48.751-48.752
		c26.882,0,48.752,21.87,48.752,48.752S75.634,480.94,48.751,480.94z"/>
</g>
<path style="fill:#FBB071;" d="M256,243.966c-58.699,0-106.454-47.754-106.454-106.454c0-58.697,47.755-106.453,106.454-106.453
	s106.454,47.754,106.454,106.453S314.699,243.966,256,243.966z"/>
<g>
	<path style="fill:#FF835D;" d="M256,31.059v212.905c58.699,0,106.454-47.754,106.454-106.454
		C362.454,78.815,314.699,31.059,256,31.059z"/>
	<path style="fill:#FF835D;" d="M256,188.314c-28.012,0-50.802-22.79-50.802-50.802c0-28.011,22.79-50.8,50.802-50.8
		s50.802,22.79,50.802,50.8C306.802,165.524,284.012,188.314,256,188.314z M256,120.103c-9.6,0-17.41,7.81-17.41,17.409
		c0,9.6,7.81,17.41,17.41,17.41s17.41-7.81,17.41-17.41C273.41,127.913,265.6,120.103,256,120.103z"/>
</g>
<g>
	<path style="fill:#F6D86E;" d="M256,383.437v97.504c26.881,0,48.752-21.869,48.752-48.751S282.881,383.437,256,383.437z"/>
	<path style="fill:#F6D86E;" d="M463.248,480.94c-26.881,0-48.751-21.869-48.751-48.751s21.869-48.752,48.751-48.752
		S512,405.308,512,432.189S490.13,480.94,463.248,480.94z"/>
</g>
<path style="fill:#FB5858;" d="M256,86.712v33.391c9.6,0,17.41,7.81,17.41,17.409c0,9.6-7.81,17.41-17.41,17.41v33.391
	c28.012,0,50.802-22.79,50.802-50.802C306.802,109.501,284.012,86.712,256,86.712z"/>
<g>
</g>
<g>
</g>
<g>
</g>
<g>
</g>
<g>
</g>
<g>
</g>
<g>
</g>
<g>
</g>
<g>
</g>
<g>
</g>
<g>
</g>
<g>
</g>
<g>
</g>
<g>
</g>
<g>
</g>
</svg>
