<?xml version="1.0" encoding="UTF-8"?>
<svg width="14px" height="21.6px" viewBox="0 0 15 16" version="1.1" xmlns="http://www.w3.org/2000/svg" xmlns:xlink="http://www.w3.org/1999/xlink">
    <!-- Generator: Sketch 62 (91390) - https://sketch.com -->
    <title>设备型号</title>
    <desc>Created with Sketch.</desc>
    <g id="页面-1" stroke="none" stroke-width="1" fill="none" fill-rule="evenodd">
        <g id="图标" transform="translate(-232.000000, -518.000000)" fill="#36B87F" fill-rule="nonzero">
            <g id="设备型号" transform="translate(240.000000, 526.000000) rotate(-270.000000) translate(-240.000000, -526.000000) translate(232.000000, 518.000000)">
                <path d="M2.99636362,4.16 C2.99636362,4.48132931 3.2568525,4.74181819 3.57818181,4.74181819 C3.89951112,4.74181819 4.16,4.48132931 4.16,4.16 C4.16,3.83867069 3.89951112,3.57818181 3.57818181,3.57818181 C3.2568525,3.57818181 2.99636362,3.83867069 2.99636362,4.16 L2.99636362,4.16 Z" id="路径"></path>
                <path d="M5.7890909,4.04363638 C5.7890909,4.36496569 6.04957978,4.62545456 6.37090909,4.62545456 C6.6922384,4.62545456 6.95272727,4.36496569 6.95272727,4.04363638 C6.95272727,3.72230706 6.6922384,3.46181819 6.37090909,3.46181819 C6.04957978,3.46181819 5.7890909,3.72230706 5.7890909,4.04363638 L5.7890909,4.04363638 Z" id="路径"></path>
                <path d="M2.76363637,8.46545455 C2.76363637,8.78678386 3.02412524,9.04727273 3.34545455,9.04727273 C3.66678386,9.04727273 3.92727272,8.78678386 3.92727272,8.46545455 C3.92727272,8.14412524 3.66678386,7.88363638 3.34545455,7.88363638 C3.02412524,7.88363638 2.76363637,8.14412524 2.76363637,8.46545455 L2.76363637,8.46545455 Z" id="路径"></path>
                <path d="M5.55636362,8.3490909 C5.55636362,8.67042021 5.8168525,8.93090909 6.13818181,8.93090909 C6.45951112,8.93090909 6.72,8.67042021 6.72,8.3490909 C6.72,8.02776159 6.45951112,7.76727271 6.13818181,7.76727271 C5.8168525,7.76727271 5.55636362,8.02776159 5.55636362,8.3490909 Z" id="路径"></path>
                <path d="M2.76363637,12.7709091 C2.76363637,13.0922384 3.02412524,13.3527273 3.34545455,13.3527273 C3.66678386,13.3527273 3.92727272,13.0922384 3.92727272,12.7709091 C3.92727272,12.4495798 3.66678386,12.1890909 3.34545455,12.1890909 C3.02412524,12.1890909 2.76363637,12.4495798 2.76363637,12.7709091 L2.76363637,12.7709091 Z" id="路径"></path>
                <path d="M5.55636362,12.7709091 C5.55636362,13.0922384 5.8168525,13.3527273 6.13818181,13.3527273 C6.45951112,13.3527273 6.72,13.0922384 6.72,12.7709091 C6.72,12.4495798 6.45951112,12.1890909 6.13818181,12.1890909 C5.8168525,12.1890909 5.55636362,12.4495798 5.55636362,12.7709091 Z" id="路径"></path>
                <path d="M15.9127273,6.83636362 L0.552727275,6.83636362 L0.552727275,3.11272727 C0.552727275,2.18181817 1.36727272,1.36727272 2.29818182,1.36727272 L14.1672727,1.36727272 C15.0981818,1.36727272 15.9127273,2.18181817 15.9127273,3.11272727 L15.9127273,6.83636362 Z M1.71636362,5.67272727 L14.7490909,5.67272727 L14.7490909,3.11272727 C14.7490909,2.76363637 14.5163636,2.5309091 14.1672727,2.5309091 L2.29818182,2.5309091 C1.94909092,2.5309091 1.71636362,2.76363637 1.71636362,3.11272727 L1.71636362,5.67272727 Z" id="形状"></path>
                <path d="M15.9127273,11.3745454 L0.552727275,11.3745454 L0.552727275,5.67272727 L15.9127273,5.67272727 L15.9127273,11.3745454 Z M1.71636362,10.2109091 L14.7490909,10.2109091 L14.7490909,6.83636362 L1.71636362,6.83636362 L1.71636362,10.2109091 Z" id="形状"></path>
                <path d="M14.1672727,15.5636364 L2.29818182,15.5636364 C1.36727272,15.5636364 0.552727275,14.7490909 0.552727275,13.8181818 L0.552727275,10.0945455 L15.9127273,10.0945455 L15.9127273,13.8181818 C15.9127273,14.8654546 15.0981818,15.5636364 14.1672727,15.5636364 Z M1.71636362,11.3745455 L1.71636362,13.8181818 C1.71636362,14.1672727 1.9490909,14.4 2.29818182,14.4 L14.1672727,14.4 C14.5163636,14.4 14.7490909,14.1672727 14.7490909,13.8181818 L14.7490909,11.2581818 L1.71636362,11.2581818 L1.71636362,11.3745455 Z" id="形状"></path>
            </g>
        </g>
    </g>
</svg>