<?xml version="1.0" encoding="UTF-8"?>
<svg width="14px" height="21.6px" viewBox="0 0 13 16" version="1.1" xmlns="http://www.w3.org/2000/svg" xmlns:xlink="http://www.w3.org/1999/xlink">
    <!-- Generator: Sketch 62 (91390) - https://sketch.com -->
    <title>报告模版</title>
    <desc>Created with Sketch.</desc>
    <g id="页面-1" stroke="none" stroke-width="1" fill="none" fill-rule="evenodd">
        <g id="图标" transform="translate(-420.000000, -396.000000)" fill="#F34E19" fill-rule="nonzero">
            <g id="报告模版" transform="translate(420.000000, 396.000000)">
                <path d="M9.42395536,6.459625 L3.42573214,6.459625 C3.14890179,6.459625 2.96433371,6.260875 2.96433371,5.96273437 C2.96433371,5.66459375 3.14888728,5.36645312 3.42571763,5.36645312 L9.33167857,5.36645312 C9.60850893,5.36645312 9.7930625,5.56520313 9.7930625,5.96273437 C9.88535379,6.26085937 9.70078571,6.459625 9.42395536,6.459625 Z M9.42395536,9.63975 L3.42573214,9.63975 C3.14890179,9.63975 2.96433371,9.441 2.96433371,9.04348437 C2.96433371,8.74534375 3.14888728,8.44720312 3.42571763,8.44720312 L9.33167857,8.44720312 C9.60850893,8.44720312 9.7930625,8.64595312 9.7930625,9.04348437 C9.88535379,9.44098437 9.70078571,9.63975 9.42395536,9.63975 Z M9.42395536,12.7205 L3.42573214,12.7205 C3.14890179,12.7205 2.96433371,12.52175 2.96433371,12.1242187 C2.96433371,11.8260937 3.14888728,11.5279531 3.42571763,11.5279531 L9.33167857,11.5279531 C9.60850893,11.5279531 9.7930625,11.7267031 9.7930625,12.1242188 C9.88535379,12.5217344 9.70078571,12.7205 9.42395536,12.7205 L9.42395536,12.7205 Z M1.4878471,2.18632813 C1.76467746,2.18632813 1.94923103,2.38509375 1.94923103,2.68323438 C1.94923103,2.981375 1.76467746,3.180125 1.4878471,3.180125 C1.21101674,3.180125 1.02643415,3.378875 1.02643415,3.67701563 L1.02643415,14.2111875 C1.02643415,14.5093125 1.21098772,14.7080625 1.4878471,14.7080625 L11.3618404,14.7080625 C11.6386708,14.7080625 11.8232388,14.5093125 11.8232388,14.2111875 L11.8232388,3.77639063 C11.8232388,3.47826563 11.6386853,3.27951563 11.3618549,3.27951563 C11.0850246,3.27951563 10.900442,3.08075 10.900442,2.78260938 C10.900442,2.48446875 11.0849955,2.28571875 11.3618404,2.28571875 C12.1923605,2.28571875 12.838327,2.98135938 12.838327,3.87578125 L12.838327,14.4099375 C12.838327,15.3043438 12.1923605,16 11.3618404,16 L1.4878471,16 C0.6573125,15.900625 0.0113604911,15.2049688 0.0113604911,14.3105625 L0.0113604911,3.77639063 C0.0113604911,2.88198438 0.6573125,2.18632813 1.4878471,2.18632813 Z M9.42394085,3.180125 L3.42574665,3.180125 C3.14891629,3.180125 2.96434821,2.981375 2.96434821,2.68323438 C2.96434821,2.38509375 3.14890179,2.18632813 3.42573214,2.18632813 L3.97942188,2.18632813 C4.25625223,0.89440625 5.2713404,0 6.47098214,0 C7.67062388,0 8.68571205,0.89440625 8.87026563,2.08695312 L9.42395536,2.08695312 C9.70078571,2.08695312 9.88535379,2.28570312 9.88535379,2.58384375 C9.88535379,2.98135937 9.70080022,3.180125 9.42395536,3.180125 L9.42394085,3.180125 Z M6.47099665,1.09317187 C5.82503013,1.09317187 5.27135491,1.5900625 5.08678683,2.18632813 L7.85520647,2.18632813 C7.6706529,1.5900625 7.11696317,1.09317187 6.47099665,1.09317187 Z" id="形状"></path>
            </g>
        </g>
    </g>
</svg>