<svg height="512pt" viewBox="-64 0 512 512" width="512pt" xmlns="http://www.w3.org/2000/svg"><path d="m263.753906 512h-250.691406c-7.214844 0-13.0625-5.847656-13.0625-13.0625v-485.875c0-7.214844 5.847656-13.0625 13.0625-13.0625h250.691406c7.210938 0 13.058594 5.847656 13.058594 13.0625v485.875c0 7.214844-5.847656 13.0625-13.058594 13.0625zm-237.632812-26.121094h224.570312v-459.757812h-224.570312zm0 0"/><path d="m13.058594 13.0625h250.695312v485.875h-250.695312zm0 0" fill="#d7f5ff"/><path d="m263.753906 512h-250.691406c-7.214844 0-13.0625-5.847656-13.0625-13.0625v-485.875c0-7.214844 5.847656-13.0625 13.0625-13.0625h250.691406c7.210938 0 13.058594 5.847656 13.058594 13.0625v485.875c0 7.214844-5.847656 13.0625-13.058594 13.0625zm-237.632812-26.121094h224.570312v-459.757812h-224.570312zm0 0" fill="#3c5a73"/><path d="m356.410156 330.460938h14.628906v49.632812h-14.628906zm0 0" fill="#3c5a73"/><path d="m163.664062 139.847656h-50.515624c-5.125 0-9.28125 4.15625-9.28125 9.277344v83.566406c0 5.125 4.15625 9.28125 9.28125 9.28125h50.515624c5.125 0 9.277344-4.15625 9.277344-9.28125v-83.566406c.003906-5.121094-4.152344-9.277344-9.277344-9.277344zm0 0" fill="#a5c8cd"/><path d="m316.015625 512c11.785156 0 21.339844-9.554688 21.339844-21.34375v-170.59375c0-11.785156-9.554688-21.34375-21.339844-21.34375-11.789063 0-21.34375 9.554688-21.34375 21.34375v170.59375c0 11.789062 9.554687 21.34375 21.34375 21.34375zm0 0" fill="#748488"/><path d="m264.492188 512c11.789062 0 21.34375-9.554688 21.34375-21.34375v-170.59375c0-11.785156-9.554688-21.34375-21.34375-21.34375-11.785157 0-21.34375 9.554688-21.34375 21.34375v170.59375c0 11.789062 9.554687 21.34375 21.34375 21.34375zm0 0" fill="#55696e"/><path d="m144.789062 180.390625c6.503907-7.359375 17.746094-8.054687 25.105469-1.554687l30.0625 26.550781v-13.890625c.113281-23.089844 19.289063-41.878906 42.742188-41.878906h95.484375c23.453125 0 42.628906 18.789062 42.746094 41.878906v.089844 130.664062c0 9.824219-7.964844 17.785156-17.785157 17.785156-9.824219 0-17.789062-7.960937-17.789062-17.785156v-130.605469c-.035157-3.382812-3.445313-6.453125-7.171875-6.453125h-.828125v134.871094h-94.207031v-134.871094h-.449219c-3.734375 0-7.15625 3.089844-7.171875 6.394532v53.242187c0 15.292969-18.101563 23.449219-29.558594 13.328125l-59.621094-52.660156c-7.363281-6.503906-8.058594-17.742188-1.558594-25.105469zm0 0" fill="#ba6746"/><path d="m242.699219 149.617188h27.316406c-.449219 11.152343 9.902344 20.636718 20.710937 20.636718 11.585938 0 20.167969-9.445312 20.707032-20.636718h26.75c23.453125 0 42.628906 18.789062 42.746094 41.878906v.089844 38.386718h-35.570313v-38.328125c-.039063-3.382812-3.449219-6.453125-7.175781-6.453125h-.824219v134.871094h-94.207031v-134.871094h-.449219c-3.738281 0-7.15625 3.089844-7.175781 6.394532v38.386718l-23.101563-12.507812-12.46875-12.078125v-13.890625c.113281-23.089844 19.289063-41.878906 42.742188-41.878906zm0 0" fill="#ffda52"/><path d="m327.304688 101.007812c0 20.359376-16.503907 36.863282-36.863282 36.863282-20.355468 0-36.859375-16.503906-36.859375-36.863282 0-20.355468 16.503907-36.859374 36.859375-36.859374 20.359375 0 36.863282 16.503906 36.863282 36.859374zm0 0" fill="#ba6746"/><g fill="#a5c8cd"><path d="m147.132812 108.851562c-.699218-1.261718-2.289062-1.71875-3.550781-1.019531l-2.5625 1.421875v-2.929687c0-1.445313-1.167969-2.613281-2.613281-2.613281-1.441406 0-2.609375 1.167968-2.609375 2.613281v2.929687l-2.566406-1.421875c-1.257813-.699219-2.847657-.242187-3.550781 1.019531-.699219 1.261719-.242188 2.851563 1.019531 3.550782l2.320312 1.289062-2.320312 1.289063c-1.261719.699219-1.71875 2.289062-1.019531 3.550781.476562.859375 1.367187 1.347656 2.289062 1.347656.425781 0 .859375-.109375 1.261719-.328125l2.566406-1.421875v2.929688c0 1.445312 1.167969 2.613281 2.609375 2.613281 1.445312 0 2.613281-1.167969 2.613281-2.613281v-2.929688l2.5625 1.421875c.402344.21875.835938.328125 1.265625.328125.917969 0 1.808594-.488281 2.285156-1.347656.699219-1.261719.246094-2.851562-1.015624-3.550781l-2.324219-1.289063 2.324219-1.289062c1.261718-.699219 1.714843-2.289063 1.015624-3.550782zm0 0"/><path d="m122.578125 108.851562c-.699219-1.261718-2.292969-1.71875-3.550781-1.019531l-2.5625 1.421875v-2.929687c0-1.445313-1.171875-2.613281-2.613282-2.613281-1.445312 0-2.613281 1.167968-2.613281 2.613281v2.929687l-2.5625-1.421875c-1.261719-.699219-2.851562-.242187-3.550781 1.019531-.699219 1.261719-.246094 2.851563 1.015625 3.550782l2.324219 1.289062-2.324219 1.289063c-1.261719.699219-1.714844 2.289062-1.015625 3.550781.476562.859375 1.367188 1.347656 2.285156 1.347656.429688 0 .863282-.109375 1.265625-.328125l2.5625-1.421875v2.929688c0 1.445312 1.167969 2.613281 2.613281 2.613281 1.441407 0 2.613282-1.167969 2.613282-2.613281v-2.929688l2.5625 1.421875c.402344.21875.835937.328125 1.261718.328125.921876 0 1.8125-.488281 2.289063-1.347656.699219-1.261719.242187-2.851562-1.019531-3.550781l-2.320313-1.289063 2.320313-1.289062c1.261718-.699219 1.71875-2.289063 1.019531-3.550782zm0 0"/><path d="m170.671875 114.976562-2.324219-1.285156 2.324219-1.289062c1.261719-.699219 1.714844-2.289063 1.015625-3.550782-.699219-1.261718-2.289062-1.71875-3.550781-1.019531l-2.5625 1.421875v-2.933594c0-1.441406-1.167969-2.609374-2.613281-2.609374-1.441407 0-2.609376 1.167968-2.609376 2.609374v2.933594l-2.566406-1.421875c-1.257812-.699219-2.851562-.242187-3.550781 1.019531-.699219 1.261719-.242187 2.851563 1.019531 3.550782l2.320313 1.289062-2.320313 1.285156c-1.261718.703126-1.71875 2.292969-1.019531 3.554688.480469.859375 1.367187 1.34375 2.289063 1.34375.425781 0 .863281-.105469 1.261718-.328125l2.566406-1.421875v2.933594c0 1.441406 1.167969 2.613281 2.609376 2.613281 1.445312 0 2.613281-1.171875 2.613281-2.613281v-2.933594l2.5625 1.421875c.402343.222656.835937.328125 1.265625.328125.917968 0 1.808594-.484375 2.285156-1.34375.699219-1.261719.246094-2.851562-1.015625-3.554688zm0 0"/></g><path d="m376.117188 451.03125h-24.785157c-3.894531 0-7.050781-3.15625-7.050781-7.050781v-70.535157c0-3.894531 3.15625-7.050781 7.050781-7.050781h24.785157c3.894531 0 7.054687 3.15625 7.054687 7.050781v70.535157c0 3.894531-3.160156 7.050781-7.054687 7.050781zm0 0" fill="#3c5a73"/><path d="m214.890625 338.871094.117187-12.65625c.023438-2.855469-2.265624-5.1875-5.121093-5.214844l-13.546875-.121094c-1.554688-7.769531-4.628906-14.996094-8.898438-21.355468l9.457032-9.285157c2.035156-2 2.066406-5.269531.066406-7.304687l-8.867188-9.03125c-2-2.035156-5.269531-2.066406-7.304687-.066406l-9.601563 9.429687c-6.386718-4.296875-13.648437-7.378906-21.457031-8.929687l.121094-13.066407c.027343-2.851562-2.265625-5.183593-5.117188-5.210937l-12.660156-.117188c-2.851563-.023437-5.183594 2.269532-5.210937 5.121094l-.121094 13.238281c-7.867188 1.539063-15.183594 4.628907-21.613282 8.945313l-9.027343-9.195313c-2-2.035156-5.269531-2.0625-7.304688-.066406l-9.03125 8.871094c-2.039062 1.996093-2.066406 5.265625-.066406 7.304687l9.167969 9.335938c-4.34375 6.457031-7.441406 13.808594-8.976563 21.714844l-12.757812-.113282c-2.855469-.027344-5.1875 2.261719-5.210938 5.117188l-.117187 12.65625c-.027344 2.851562 2.265625 5.1875 5.117187 5.214844l13.027344.117187c1.578125 7.894531 4.726563 15.230469 9.109375 21.664063l-9.148438 8.976562c-2.035156 2-2.0625 5.269531-.066406 7.304688l8.871094 9.03125c1.996094 2.035156 5.265625 2.066406 7.304688.066406l9.394531-9.222656c6.449219 4.28125 13.78125 7.328124 21.660156 8.820312l-.117187 12.972656c-.027344 2.851563 2.265624 5.183594 5.117187 5.210938l12.65625.113281c2.855469.027344 5.1875-2.265625 5.210937-5.117187l.121094-13.332032c7.796875-1.597656 15.039063-4.730468 21.402344-9.066406l9.238281 9.410156c2 2.035156 5.269531 2.0625 7.304688.066406l9.03125-8.871093c2.035156-1.996094 2.066406-5.265625.066406-7.304688l-9.484375-9.660156c4.234375-6.378906 7.261719-13.617187 8.773438-21.398437l13.277343.121093c2.855469.027344 5.1875-2.265625 5.214844-5.117187zm-72.796875 29.824218c-23.144531 2.449219-42.554688-16.960937-40.101562-40.105468 1.789062-16.859375 15.34375-30.414063 32.207031-32.203125 23.140625-2.449219 42.550781 16.960937 40.097656 40.101562-1.785156 16.863281-15.34375 30.417969-32.203125 32.207031zm0 0" fill="#a5c8cd"/></svg>