<?xml version="1.0" encoding="UTF-8"?>
<svg width="14px" height="21.6px" viewBox="0 0 16 16" version="1.1" xmlns="http://www.w3.org/2000/svg" xmlns:xlink="http://www.w3.org/1999/xlink">
    <!-- Generator: Sketch 62 (91390) - https://sketch.com -->
    <title>角色 </title>
    <desc>Created with Sketch.</desc>
    <g id="页面-1" stroke="none" stroke-width="1" fill="none" fill-rule="evenodd">
        <g id="图标" transform="translate(-80.000000, -456.000000)" fill="#FFC058" fill-rule="nonzero">
            <g id="角色-" transform="translate(80.000000, 456.000000)">
                <polygon id="路径" points="7.54046154 0.206153846 7.54046154 0.0830769231 8.20015385 0.0830769231 8.20015385 0.206153846 7.54046154 0.206153846"></polygon>
                <polygon id="路径" points="8.28876923 0.156923077 7.49123077 0.156923077 7.49123077 0.105641026 7.49123077 0.0748717949 7.50107692 0.0338461538 8.27892308 0.0338461538 8.25923077 0.0953846154"></polygon>
                <path d="M2.40076923,0.0633846154 L11.9613846,0.0633846154 C13.8026154,0.0633846154 14.9841538,1.23507692 14.9841538,3.08615385 L14.9841538,3.84430769 C14.9841538,4.17907692 14.8167692,4.51384615 14.3933846,4.43507692 C13.97,4.43507692 13.8026154,4.17907692 13.8912308,3.76553846 C13.8912308,3.34215385 13.8912308,3.00738462 13.8026154,2.59384615 C13.6352308,1.75692308 13.1330769,1.25476923 12.2961538,1.25476923 L2.82415385,1.25476923 C1.89861538,1.25476923 1.22907692,2.01292308 1.22907692,3.01723077 L1.22907692,12.1446154 C1.22907692,13.3163077 1.89861538,13.9070769 2.99153846,13.9070769 L4.66538462,13.9070769 C5.08876923,13.9070769 5.42353846,14.1630769 5.33492308,14.4978462 C5.33492308,15 5.07892308,15.1673846 4.66538462,15.1673846 C3.82846154,15.1673846 3.32630769,15.0787692 2.23338462,15.0787692 C1.14046154,15.0787692 0.0573185979,13.9858462 0.0573185979,12.9027692 L0.0573185979,2.328 C0.0475384615,1.24492308 1.14046154,0.319384615 2.40076923,0.0633846154 Z" id="路径"></path>
                <path d="M4.66538462,15.2166154 C4.27153846,15.2166154 3.95646154,15.1969231 3.61184615,15.1772308 C3.218,15.1575385 2.81430769,15.128 2.23338462,15.128 C1.11092308,15.128 0.00815384615,14.0252308 0.00815384615,12.9027692 L0.00815384615,2.328 C0.00815384615,1.28430769 1.03215385,0.289846154 2.40076923,0.0141538462 L11.9712308,0.0141538462 C13.8321538,0.0141538462 15.0432308,1.21538462 15.0432308,3.08615385 L15.0432308,3.84430769 C15.0432308,4.08061538 14.9644615,4.27753846 14.8266154,4.39569231 C14.7183077,4.48430769 14.5706154,4.51384615 14.3933846,4.48430769 C14.1964615,4.48430769 14.0389231,4.42523077 13.9404615,4.30707692 C13.8321538,4.17907692 13.8026154,3.992 13.8518462,3.75569231 C13.8518462,3.34215385 13.8518462,3.01723077 13.7632308,2.60369231 C13.5958462,1.74707692 13.0838462,1.304 12.306,1.304 L2.82415385,1.304 C1.92815385,1.304 1.27830769,2.02276923 1.27830769,3.01723077 L1.27830769,12.1446154 C1.27830769,13.2473846 1.88876923,13.8578462 2.99153846,13.8578462 L4.66538462,13.8578462 C4.93123077,13.8578462 5.17738462,13.9563077 5.30538462,14.1236923 C5.394,14.232 5.42353846,14.3698462 5.38415385,14.5076923 C5.38415385,14.9901538 5.15769231,15.2166154 4.66538462,15.2166154 Z M2.40076923,0.112615385 C1.09123077,0.378461538 0.0967692308,1.33353846 0.0967692308,2.328 L0.0967692308,12.8929231 C0.0967692308,13.9464615 1.17,15.0196923 2.22353846,15.0196923 C2.80446154,15.0196923 3.218,15.0393846 3.61184615,15.0689231 C3.94661538,15.0886154 4.27153846,15.1083077 4.65553846,15.1083077 C5.08876923,15.1083077 5.27584615,14.9212308 5.27584615,14.488 L5.27584615,14.4781538 C5.30538462,14.3698462 5.28569231,14.2615385 5.21676923,14.1729231 C5.10846154,14.0350769 4.89184615,13.9464615 4.65553846,13.9464615 L2.98169231,13.9464615 C1.81,13.9464615 1.17,13.3064615 1.17,12.1347692 L1.17,2.99753846 C1.17,1.96369231 1.87892308,1.18584615 2.81430769,1.18584615 L12.2961538,1.18584615 C13.1232308,1.18584615 13.6746154,1.67815385 13.8518462,2.56430769 C13.9404615,2.98769231 13.9404615,3.32246154 13.9404615,3.74584615 C13.9010769,3.96246154 13.9207692,4.12 14.0093846,4.22830769 C14.0881538,4.32676923 14.2161538,4.376 14.4032308,4.376 C14.5607692,4.40553846 14.6789231,4.38584615 14.7675385,4.30707692 C14.8758462,4.21846154 14.9447692,4.04123077 14.9447692,3.83446154 L14.9447692,3.08615385 C14.9447692,1.28430769 13.7829231,0.112615385 11.9712308,0.112615385 L2.40076923,0.112615385 Z" id="形状"></path>
                <path d="M11.1244615,3.34215385 C12.3847692,3.43076923 13.3890769,4.10030769 13.8912308,5.35076923 C14.3933846,6.60123077 14.1472308,7.78276923 13.2216923,8.78707692 C12.8869231,9.12184615 12.9656923,9.21046154 13.3103077,9.45661538 C14.6493846,10.3821538 15.4863077,11.5538462 15.6635385,13.2276923 C15.7521538,13.7298462 15.5749231,14.0646154 15.1613846,14.1532308 C14.8266154,14.2418462 14.5706154,13.8972308 14.4918462,13.3950769 C14.2358462,11.4652308 12.4832308,9.79138462 10.7207692,9.87015385 C9.46046154,9.95876923 8.62353846,10.7070769 7.86538462,11.7113846 C7.53061538,12.2135385 7.27461538,12.8043077 7.19584615,13.3852308 C7.19584615,13.8873846 6.86107692,14.1433846 6.52630769,14.0547692 C6.19153846,13.9661538 5.93553846,13.6313846 6.02415385,13.2178462 C6.19153846,11.544 7.11707692,10.3624615 8.45615385,9.44676923 C8.79092308,9.19076923 8.79092308,9.112 8.54476923,8.856 C7.70784615,7.76307692 7.45184615,6.59138462 7.954,5.33107692 C8.43646154,4.09046154 9.618,3.34215385 11.1244615,3.34215385 L11.1244615,3.34215385 Z M10.9570769,8.61969231 C12.1287692,8.61969231 12.9656923,7.69415385 12.9656923,6.52246154 C12.9656923,5.35076923 12.0401538,4.42523077 10.8684615,4.42523077 C9.77553846,4.42523077 8.85984615,5.35076923 8.85984615,6.52246154 C8.85984615,7.69415385 9.78538462,8.61969231 10.9570769,8.61969231 Z M4.83276923,5.51815385 L2.90292308,5.51815385 C2.40076923,5.51815385 2.14476923,5.26215385 2.14476923,4.92738462 C2.14476923,4.59261538 2.47953846,4.33661538 2.90292308,4.33661538 L6.76261538,4.33661538 C7.26476923,4.33661538 7.52076923,4.59261538 7.52076923,4.92738462 C7.52076923,5.26215385 7.26476923,5.51815385 6.76261538,5.51815385 L4.83276923,5.51815385 L4.83276923,5.51815385 Z M4.33061538,7.61538462 L5.83707692,7.61538462 C6.17184615,7.61538462 6.42784615,7.78276923 6.42784615,8.11753846 C6.42784615,8.54092308 6.17184615,8.70830769 5.83707692,8.70830769 L2.73553846,8.70830769 C2.40076923,8.70830769 2.14476923,8.45230769 2.14476923,8.11753846 C2.14476923,7.78276923 2.40076923,7.61538462 2.73553846,7.61538462 L4.33061538,7.61538462 L4.33061538,7.61538462 Z" id="形状"></path>
                <path d="M15.0530769,14.2221538 C14.9644615,14.2221538 14.8856923,14.2024615 14.8167692,14.1532308 C14.6296923,14.0350769 14.5016923,13.7692308 14.4426154,13.4147692 C14.1866154,11.4750769 12.4536923,9.85046154 10.7207692,9.92923077 C9.38169231,10.0178462 8.54476923,10.904 7.90476923,11.7507692 C7.55030769,12.2824615 7.32384615,12.8535385 7.24507692,13.4049231 C7.24507692,13.6707692 7.15646154,13.8873846 6.98907692,14.0153846 C6.85123077,14.1236923 6.68384615,14.1532308 6.51646154,14.1138462 C6.18169231,14.0350769 5.88630769,13.6904615 5.97492308,13.2178462 C6.13246154,11.6916923 6.93,10.4412308 8.42661538,9.41723077 C8.594,9.28923077 8.66292308,9.22030769 8.67276923,9.15138462 C8.67276923,9.08246154 8.61369231,9.01353846 8.50538462,8.90523077 C7.61923077,7.75323077 7.42230769,6.552 7.90476923,5.33107692 C8.41676923,4.05107692 9.62784615,3.28307692 11.1343077,3.28307692 C12.4536923,3.37169231 13.4481538,4.10030769 13.9404615,5.33107692 C14.4426154,6.58153846 14.2063077,7.79261538 13.2610769,8.81661538 C13.1133846,8.96430769 13.0543077,9.05292308 13.0641538,9.12184615 C13.074,9.20061538 13.1724615,9.28923077 13.3398462,9.41723077 C14.7970769,10.4215385 15.5453846,11.6326154 15.7029231,13.2276923 C15.7915385,13.7692308 15.6044615,14.1138462 15.1613846,14.2024615 C15.122,14.2123077 15.0826154,14.2221538 15.0530769,14.2221538 L15.0530769,14.2221538 Z M10.8290769,9.83076923 C12.562,9.83076923 14.2752308,11.4652308 14.5213846,13.3950769 C14.5706154,13.7101538 14.6986154,13.9563077 14.8561538,14.0646154 C14.9447692,14.1236923 15.0333846,14.1335385 15.1318462,14.1138462 C15.6241538,14.0153846 15.6536923,13.592 15.5946154,13.2473846 C15.4370769,11.6818462 14.6986154,10.4904615 13.2709231,9.50584615 C13.074,9.35815385 12.9656923,9.26953846 12.9558462,9.14153846 C12.946,9.03323077 13.0149231,8.93476923 13.1823077,8.75753846 C14.098,7.75323077 14.3244615,6.58153846 13.842,5.37046154 C13.3693846,4.17907692 12.3946154,3.47015385 11.1146154,3.39138462 C9.64753846,3.39138462 8.47584615,4.12984615 7.97369231,5.37046154 C7.50107692,6.56184615 7.698,7.72369231 8.55461538,8.84615385 C8.68261538,8.96430769 8.75153846,9.06276923 8.74169231,9.16123077 C8.73184615,9.26953846 8.63338462,9.368 8.45615385,9.496 C6.95953846,10.52 6.19153846,11.7113846 6.04384615,13.2375385 C5.96507692,13.6510769 6.22107692,13.9563077 6.50661538,14.0252308 C6.64446154,14.0646154 6.78230769,14.0350769 6.89061538,13.9464615 C7.03830769,13.8381538 7.11707692,13.6412308 7.11707692,13.4049231 C7.19584615,12.8338462 7.43215385,12.2430769 7.79646154,11.7015385 C8.44630769,10.8252308 9.30292308,9.92923077 10.6813846,9.83076923 L10.8290769,9.83076923 L10.8290769,9.83076923 Z M5.83707692,8.75753846 L2.73553846,8.75753846 C2.37123077,8.75753846 2.09553846,8.48184615 2.09553846,8.11753846 C2.09553846,7.77292308 2.34169231,7.56615385 2.73553846,7.56615385 L5.83707692,7.56615385 C6.23092308,7.56615385 6.47707692,7.77292308 6.47707692,8.11753846 C6.47707692,8.52123077 6.24076923,8.75753846 5.83707692,8.75753846 L5.83707692,8.75753846 Z M2.73553846,7.66461538 C2.40076923,7.66461538 2.194,7.832 2.194,8.11753846 C2.194,8.42276923 2.42046154,8.65907692 2.73553846,8.65907692 L5.83707692,8.65907692 C6.08323077,8.65907692 6.37861538,8.57046154 6.37861538,8.11753846 C6.37861538,7.832 6.18169231,7.66461538 5.83707692,7.66461538 L2.73553846,7.66461538 Z M10.9570769,8.66892308 C9.75584615,8.66892308 8.81061538,7.72369231 8.81061538,6.52246154 C8.81061538,5.34092308 9.73615385,4.376 10.8684615,4.376 C12.0696923,4.376 13.0149231,5.32123077 13.0149231,6.52246154 C13.0149231,7.75323077 12.1287692,8.66892308 10.9570769,8.66892308 Z M10.8684615,4.47446154 C9.78538462,4.47446154 8.90907692,5.39015385 8.90907692,6.52246154 C8.90907692,7.67446154 9.80507692,8.57046154 10.9570769,8.57046154 C12.0795385,8.57046154 12.9164615,7.69415385 12.9164615,6.52246154 C12.9164615,5.38030769 12.0204615,4.47446154 10.8684615,4.47446154 Z M6.76261538,5.56738462 L2.90292308,5.56738462 C2.41061538,5.56738462 2.09553846,5.32123077 2.09553846,4.92738462 C2.09553846,4.57292308 2.45,4.28738462 2.90292308,4.28738462 L6.76261538,4.28738462 C7.25492308,4.28738462 7.57,4.53353846 7.57,4.92738462 C7.57,5.32123077 7.25492308,5.56738462 6.76261538,5.56738462 Z M2.90292308,4.39569231 C2.50907692,4.39569231 2.194,4.632 2.194,4.93723077 C2.194,5.272 2.45984615,5.47876923 2.90292308,5.47876923 L6.76261538,5.47876923 C7.20569231,5.47876923 7.47153846,5.28184615 7.47153846,4.93723077 C7.47153846,4.59261538 7.20569231,4.39569231 6.76261538,4.39569231 L2.90292308,4.39569231 Z" id="形状"></path>
            </g>
        </g>
    </g>
</svg>