<?xml version="1.0" encoding="UTF-8"?>
<svg width="14px" height="21.6px" viewBox="0 0 16 15" version="1.1" xmlns="http://www.w3.org/2000/svg" xmlns:xlink="http://www.w3.org/1999/xlink">
    <!-- Generator: Sketch 62 (91390) - https://sketch.com -->
    <title>租户</title>
    <desc>Created with Sketch.</desc>
    <g id="页面-1" stroke="none" stroke-width="1" fill="none" fill-rule="evenodd">
        <g id="图标" transform="translate(-232.000000, -427.000000)" fill="#31A2FA">
            <g id="租户" transform="translate(232.000000, 427.000000)">
                <g id="形状">
                    <path d="M9.47765926,1.84857143 C9.25959605,1.08649117 8.42141734,0.633704973 7.60534534,0.837142852 L3.0163406,1.98142857 C2.34705696,2.14834241 1.88142715,2.71447572 1.88132676,3.36142857 L1.88132676,13.2142857 L1.11649265,13.2142857 C0.843213616,13.2142435 0.590674038,13.3503764 0.454021473,13.5713945 C0.317368908,13.7924126 0.317368908,14.0647303 0.454021473,14.2857484 C0.590674038,14.5067665 0.843213616,14.6428572 1.11649265,14.6428572 L14.8835068,14.6428572 C15.1567859,14.6428572 15.4093254,14.5067665 15.545978,14.2857484 C15.6826306,14.0647303 15.6826306,13.7924126 15.545978,13.5713945 C15.4093254,13.3503764 15.1567859,13.2142435 14.8835068,13.2142857 L14.1186727,13.2142857 L14.1186727,8.10857143 L14.107965,7.94285715 C14.0389917,7.39301651 13.636074,6.92989212 13.0739093,6.75428572 L10.0145728,5.8 L9.85242798,5.75857143 C9.7468479,5.73748434 9.63916496,5.72694884 9.53119765,5.72714285 L9.52966798,2.21714285 C9.52959568,2.09269453 9.51211143,1.9687885 9.47765926,1.84857143 L9.47765926,1.84857143 Z M7.99999974,2.21714285 L7.99999974,13.2142857 L3.41099502,13.2142857 L3.41099502,3.36142857 L7.99999974,2.21857143 L7.99999974,2.21714285 Z M9.52966798,7.15714285 L12.5890045,8.11 L12.5890045,13.2142857 L9.52966798,13.2142857 L9.52966798,7.15571428 L9.52966798,7.15714285 Z" fill-rule="nonzero"></path>
                </g>
            </g>
        </g>
    </g>
</svg>