<?xml version="1.0" encoding="UTF-8"?>
<svg width="14px" height="21.6px" viewBox="0 0 14 15" version="1.1" xmlns="http://www.w3.org/2000/svg" xmlns:xlink="http://www.w3.org/1999/xlink">
    <!-- Generator: Sketch 62 (91390) - https://sketch.com -->
    <title>用户</title>
    <desc>Created with Sketch.</desc>
    <g id="页面-1" stroke="none" stroke-width="1" fill="none" fill-rule="evenodd">
        <g id="图标" transform="translate(-232.000000, -549.000000)" fill="#409EFF" fill-rule="nonzero">
            <g id="用户" transform="translate(232.000000, 549.000000)">
                <path d="M11.3272481,4.47628997 C11.3272481,1.99954579 9.34771319,0.0111736963 6.88197675,0.0111736963 C4.41624031,0.0111736963 2.43670543,1.99954579 2.43670543,4.47628997 C2.43670543,5.97628997 3.20073644,7.30187136 4.31205426,8.13908067 C1.81158915,9.04605741 0.00569767917,11.4530342 0.00569767917,14.2437318 C0.00569767917,14.592569 0.28352714,14.8716388 0.630813954,14.8716388 C0.978100769,14.8716388 1.25593023,14.592569 1.25593023,14.2437318 C1.25593023,11.3134993 3.68693798,8.94140625 6.70833333,8.94140625 L6.88197675,8.94140625 C9.34771319,8.94140625 11.3272481,6.95303416 11.3272481,4.47628997 Z M3.68693799,4.47628997 C3.68693799,2.6972202 5.11081395,1.26698764 6.88197675,1.26698764 C8.65313954,1.26698764 10.0770155,2.6972202 10.0770155,4.47628997 C10.0770155,6.25535974 8.65313954,7.68559229 6.88197675,7.68559229 C5.11081395,7.68559229 3.68693799,6.25535974 3.68693799,4.47628997 Z M11.7787209,9.95303416 C11.5356202,9.67396438 11.2577907,9.39489461 10.9452326,9.15070857 C10.6674031,8.94140625 10.2853876,8.97628997 10.0770155,9.25535974 C9.86864341,9.53442951 9.90337209,9.91815044 10.1812016,10.1274528 C10.4243023,10.3367551 10.6674031,10.5460574 10.8757752,10.7902435 C11.7092636,11.7321039 12.1954651,12.9530342 12.1954651,14.2437318 C12.1954651,14.592569 12.4732946,14.8716388 12.8205814,14.8716388 C13.1678682,14.8716388 13.4456977,14.592569 13.4456977,14.2437318 C13.410969,12.6390807 12.8205814,11.1390807 11.7787209,9.95303416 L11.7787209,9.95303416 Z" id="形状"></path>
            </g>
        </g>
    </g>
</svg>