<svg class="img-fluid" id="outputsvg" xmlns="http://www.w3.org/2000/svg" width="512" height="512" viewBox="0 0 5120 5120"><g id="l4bDjNfnXu16B7IjbHH19Rl" fill="rgb(25,116,164)" style="transform: none;"><g><path id="pzAMS2wPd" d="M568 5110 c-149 -18 -268 -77 -379 -190 -83 -84 -135 -174 -166 -290 -17 -61 -18 -187 -18 -2070 0 -1883 1 -2009 18 -2070 62 -230 238 -406 467 -467 61 -17 190 -18 2070 -18 1880 0 2009 1 2070 18 229 61 405 237 467 467 17 61 18 187 18 2070 0 1883 -1 2009 -18 2070 -61 227 -233 401 -462 467 -56 17 -187 18 -2030 19 -1084 1 -2000 -2 -2037 -6z m3182 -289 c249 -22 658 -85 678 -105 5 -6 -112 -384 -123 -394 -3 -3 -44 0 -92 6 -49 5 -89 9 -91 8 -1 -2 -22 -72 -46 -155 -24 -84 -46 -155 -50 -158 -3 -3 -52 1 -108 11 -188 30 -271 37 -523 43 -366 9 -653 -19 -855 -83 -119 -37 -331 -136 -404 -188 -170 -123 -256 -279 -256 -465 0 -226 116 -456 348 -690 62 -63 111 -116 109 -118 -7 -6 -235 121 -342 192 -217 144 -346 249 -500 406 -213 218 -317 374 -386 579 -71 212 -40 406 95 594 102 143 244 242 482 336 233 93 571 165 894 190 142 11 1015 4 1170 -9z m-3469 -443 c513 -943 1151 -1622 1998 -2127 288 -173 376 -218 686 -354 334 -147 486 -197 895 -293 135 -31 250 -62 256 -68 6 -6 30 -58 54 -116 23 -58 112 -267 196 -465 84 -198 160 -378 168 -400 7 -22 51 -125 96 -230 45 -104 84 -196 87 -202 32 -80 -828 237 -1343 495 -344 172 -642 357 -954 590 -267 201 -426 339 -723 631 -93 91 -166 157 -163 146 3 -11 32 -139 66 -285 34 -146 124 -530 200 -855 76 -324 137 -591 135 -594 -5 -5 -160 100 -445 301 -107 76 -292 205 -410 288 -118 84 -312 220 -431 303 -118 84 -252 177 -297 207 -45 30 -82 60 -82 65 0 7 93 18 245 30 153 12 245 23 245 29 0 24 -152 793 -288 1456 -55 267 -119 580 -142 695 -23 116 -79 374 -126 575 -71 309 -97 460 -80 460 2 0 73 -127 157 -282z m4319 -113 c68 -14 126 -27 128 -30 8 -8 -70 -285 -80 -285 -22 0 -263 41 -267 46 -5 5 4 43 50 217 12 44 27 77 34 77 7 0 68 -11 135 -25z m-393 -284 c62 -9 115 -20 117 -22 4 -4 -62 -280 -68 -286 -4 -4 -259 37 -264 42 -2 2 11 67 30 144 38 163 18 149 185 122z m573 -97 c69 -9 127 -18 129 -20 5 -5 -61 -267 -70 -278 -7 -8 -241 19 -260 30 -7 4 63 284 71 284 3 0 61 -7 130 -16z m-1076 -23 c32 -6 61 -13 64 -15 2 -3 -10 -58 -27 -122 -17 -64 -30 -119 -27 -121 4 -4 73 -14 194 -29 27 -3 42 -10 42 -19 0 -27 -22 -115 -28 -115 -4 0 -38 7 -77 15 -305 63 -820 72 -1060 18 -92 -20 -202 -71 -252 -116 -83 -75 -140 -229 -130 -350 15 -180 177 -378 492 -603 121 -86 426 -264 452 -264 7 0 13 -5 13 -11 0 -17 -35 -6 -220 68 -282 111 -443 198 -661 353 -118 84 -180 145 -251 245 -108 152 -149 268 -149 421 -1 223 105 393 305 488 204 99 402 143 751 170 89 7 508 -3 569 -13z m713 -217 c59 -9 109 -17 111 -19 4 -3 -58 -267 -64 -274 -5 -5 -244 40 -248 48 -3 4 9 64 25 134 26 107 34 127 50 127 10 0 67 -7 126 -16z"></path></g></g></svg>