<svg id="outputsvg" xmlns="http://www.w3.org/2000/svg" viewBox="0 0 309.3 44.74"><defs><style>.cls-1{fill:#001429;}.cls-2{fill:#1f73a4;}.cls-3{isolation:isolate;font-size:26.04px;fill:#fff;font-family:PingFang-SC-Medium, PingFang SC;font-weight:500;}</style></defs><title>1-1</title><rect class="cls-1" width="309.3" height="44.74"/><g id="l4bDjNfnXu16B7IjbHH19Rl"><path id="pzAMS2wPd" class="cls-2" d="M8,38.53a3.7,3.7,0,0,1-2.57-1.32,4.38,4.38,0,0,1-1.16-2c-.08-.41-.08-1.24-.08-14s0-13.57.08-14A4.34,4.34,0,0,1,7.43,4.1C7.84,4,8.75,4,21.42,4S35,4,35.41,4.1a4.31,4.31,0,0,1,3.14,3.14c.25.42.25,1.25.25,14s0,13.58-.08,14a4.86,4.86,0,0,1-3.23,3.23c-.41.08-1.24.08-13.74.17C14.46,38.62,8.26,38.53,8,38.53Zm21.52-2a26.05,26.05,0,0,0,4.55-.75s-.74-2.56-.83-2.65h-.66a1.89,1.89,0,0,0-.58.09s-.16-.5-.33-1.08-.33-1.08-.33-1.08a3.84,3.84,0,0,0-.74.09c-1.25.16-1.83.24-3.56.33a18.82,18.82,0,0,1-5.8-.58,14.29,14.29,0,0,1-2.73-1.24,3.78,3.78,0,0,1-1.74-3.15A6.72,6.72,0,0,1,19.1,21.9a4.53,4.53,0,0,0,.74-.83,22.83,22.83,0,0,0-2.31,1.32,20.37,20.37,0,0,0-3.4,2.73A11.4,11.4,0,0,0,11.48,29a4.3,4.3,0,0,0,.67,4.06,6.65,6.65,0,0,0,3.22,2.32,21,21,0,0,0,6.05,1.32C22.58,36.71,28.45,36.63,29.53,36.55ZM6,33.57A35.7,35.7,0,0,1,19.6,19.16a35.67,35.67,0,0,1,4.63-2.4,28.92,28.92,0,0,1,6-2,14.58,14.58,0,0,0,1.74-.5,5.46,5.46,0,0,0,.33-.74c.17-.42.75-1.83,1.33-3.15s1.07-2.57,1.16-2.73.33-.83.66-1.57a13.34,13.34,0,0,0,.58-1.41c.25-.58-5.63,1.57-9.11,3.39a39.7,39.7,0,0,0-6.45,4,36.08,36.08,0,0,0-4.89,4.3c-.66.58-1.16,1.08-1.07,1a9.74,9.74,0,0,0,.41-1.9c.25-1,.83-3.56,1.33-5.79s.91-4,.91-4.06-1.08.66-3,2.07c-.75.5-2,1.41-2.82,2s-2.15,1.49-2.9,2.06-1.73,1.16-2,1.41a2.62,2.62,0,0,0-.58.42,7.71,7.71,0,0,0,1.65.16c1.08.08,1.66.17,1.66.17,0,.16-1,5.38-2,9.85-.41,1.82-.83,3.89-1,4.72s-.5,2.56-.83,3.89a13,13,0,0,0-.58,3.14A10.69,10.69,0,0,0,6,33.57Zm29.3-.75c.5-.08.83-.16.83-.16a7.44,7.44,0,0,0-.58-1.91,6.1,6.1,0,0,0-1.74.25,7.1,7.1,0,0,0,.33,1.49c.09.33.17.5.25.5S34.83,32.9,35.32,32.82Zm-2.73-1.9c.42-.08.75-.17.83-.17a14.8,14.8,0,0,0-.5-1.9s-1.74.25-1.82.25.08.41.17,1C31.6,31.17,31.52,31.08,32.59,30.92Zm3.89-.66a3.78,3.78,0,0,0,.91-.17s-.41-1.82-.49-1.9a11.26,11.26,0,0,0-1.74.16,8.39,8.39,0,0,0,.49,1.91C35.65,30.34,36.07,30.26,36.48,30.26Zm-7.28-.17a1,1,0,0,0,.41-.08l-.16-.83-.17-.83s.5-.08,1.33-.16c.16,0,.24-.09.24-.17a5.52,5.52,0,0,0-.16-.74,1.88,1.88,0,0,1-.5.08,21.05,21.05,0,0,1-7.2.08,5.6,5.6,0,0,1-1.74-.74,3.47,3.47,0,0,1-.91-2.4c.08-1.25,1.16-2.57,3.31-4.06a26.2,26.2,0,0,1,3.06-1.82c.09,0,.09,0,.09-.08s-.25,0-1.49.49a17.92,17.92,0,0,0-4.47,2.4,6.78,6.78,0,0,0-1.74,1.66,4.3,4.3,0,0,0-1,2.81A3.53,3.53,0,0,0,20.18,29a12.69,12.69,0,0,0,5,1.16C26,30.17,28.78,30.17,29.2,30.09Zm4.88-1.49c.42-.08.75-.08.75-.16l-.42-1.83a10.75,10.75,0,0,0-1.65.34s.08.41.16.91c.17.74.25.82.33.82A5,5,0,0,0,34.08,28.6Z" transform="translate(0 1.05)"/></g><text class="cls-3" transform="translate(44.23 30.1)">数字化工具集管理系统</text></svg>