<svg t="1640590511468" class="icon" viewBox="0 0 1024 1024" version="1.1" xmlns="http://www.w3.org/2000/svg" p-id="6113" width="200" height="200"><path d="M854.6 320.4l-247-247c-6-6-14.1-9.4-22.6-9.4H192c-17.7 0-32 14.3-32 32v832c0 17.7 14.3 32 32 32h640c17.7 0 32-14.3 32-32V343c0-8.5-3.4-16.6-9.4-22.6zM617 173.2L754.8 311H617V173.2zM224 896V128h329v215c0 17.7 14.3 32 32 32h215v521H224z" fill="#264097" p-id="6114"></path><path d="M521 485h155c4.4 0 8 3.6 8 8v48c0 4.4-3.6 8-8 8H521c-4.4 0-8-3.6-8-8v-48c0-4.4 3.6-8 8-8zM348 613h328c4.4 0 8 3.6 8 8v48c0 4.4-3.6 8-8 8H348c-4.4 0-8-3.6-8-8v-48c0-4.4 3.6-8 8-8zM348 741h328c4.4 0 8 3.6 8 8v48c0 4.4-3.6 8-8 8H348c-4.4 0-8-3.6-8-8v-48c0-4.4 3.6-8 8-8zM499.6 447.3L411 560.8c-4.1 5.2-11.6 6.2-16.8 2.1-0.8-0.6-1.5-1.3-2.1-2.1l-53-67.8c-2-2.6-1.6-6.4 1-8.4 1.1-0.8 2.4-1.3 3.7-1.3h34.6c2.5 0 4.8 1.1 6.3 3.1l16.8 21.6 52.5-67.3c1.5-1.9 3.8-3.1 6.3-3.1h34.6c3.3 0 6 2.7 6 6 0 1.4-0.4 2.7-1.3 3.7z" fill="#264097" p-id="6115"></path></svg>
