<svg width="16" height="16" viewBox="0 0 48 48" fill="none" xmlns="http://www.w3.org/2000/svg">
<path d="M33.46 20.73C34.01 20.73 34.54 20.29 34.64 19.76C34.74 19.23 34.37 18.79 33.82 18.79C33.27 18.79 32.74 19.23 32.64 19.76C32.54 20.29 32.91 20.73 33.46 20.73Z" fill="#1890FF"/>
<path d="M33.46 28.98C34.01 28.98 34.54 28.54 34.64 28.01C34.74 27.48 34.37 27.04 33.82 27.04C33.27 27.04 32.74 27.48 32.64 28.01C32.54 28.54 32.91 28.98 33.46 28.98Z" fill="#1890FF"/>
<path d="M33.46 35.95C34.01 35.95 34.54 35.5099 34.64 34.9799C34.74 34.4499 34.37 34.0099 33.82 34.0099C33.27 34.0099 32.74 34.4499 32.64 34.9799C32.54 35.5099 32.91 35.95 33.46 35.95Z" fill="#1890FF"/>
<path d="M40.99 12.15C40.74 9.29 33.23 7 24 7C14.77 7 7.26 9.29 7.01 12.15C7 12.2 7 12.25 7 12.3V35.38C7 35.65 7.07 35.92 7.2 36.19C8.44 38.74 15.49 40.69 24 40.69C32.51 40.69 39.56 38.74 40.8 36.19C40.93 35.92 41 35.65 41 35.38V12.3C41 12.25 41 12.2 40.99 12.15ZM10.94 12.15C12.96 11.17 17.48 10 24 10C30.53 10 35.05 11.17 37.07 12.15C37.18 12.2 37.28 12.25 37.37 12.3C35.53 13.31 30.88 14.61 24 14.61C17.13 14.61 12.48 13.31 10.64 12.3C10.73 12.25 10.83 12.2 10.94 12.15ZM10 15.3C10.67 15.62 11.45 15.9 12.31 16.15C13.71 16.57 15.33 16.91 17.11 17.15C19.21 17.45 21.54 17.61 24 17.61C26.46 17.61 28.79 17.45 30.89 17.15C32.67 16.91 34.29 16.57 35.69 16.15C36.55 15.9 37.33 15.62 38 15.3V20.78C36.75 21.48 34.38 22.32 30.88 22.84H30.87C28.92 23.12 26.63 23.3 24 23.3C21.37 23.3 19.08 23.12 17.13 22.84H17.12C13.62 22.32 11.25 21.48 10 20.78V15.3V15.3ZM38 35.03L37.37 35.38C36.89 35.64 36.23 35.92 35.38 36.19C32.96 36.98 29.09 37.69 24 37.69C18.91 37.69 15.04 36.98 12.63 36.19C11.78 35.92 11.12 35.72 10.64 35.46L10 34.92V30.7C10.67 31 11.45 31.28 12.31 31.54C15.36 32.44 19.46 32.99 24 32.99C28.54 32.99 32.64 32.44 35.69 31.54C36.55 31.28 37.33 31 38 30.7V35.03ZM30.85 30.53C28.91 30.81 26.62 30.99 24 30.99C21.38 30.99 19.09 30.81 17.15 30.53C13.63 30.02 11.25 29.18 10 28.47V23C10.67 23.31 11.43 23.59 12.29 23.85H12.3C13.7 24.26 15.33 24.6 17.13 24.85C17.14 24.85 17.14 24.85 17.14 24.85H17.15C19.24 25.14 21.56 25.3 24 25.3C26.44 25.3 28.76 25.14 30.85 24.85H30.86C30.86 24.85 30.86 24.85 30.87 24.85C32.67 24.6 34.3 24.26 35.7 23.85H35.71C36.57 23.59 37.33 23.31 38 23V28.47C36.75 29.18 34.37 30.02 30.85 30.53Z" fill="#1890FF"/>
</svg>
