<?xml version="1.0" encoding="UTF-8"?>
<svg width="16px" height="16px" viewBox="0 0 16 16" version="1.1" xmlns="http://www.w3.org/2000/svg" xmlns:xlink="http://www.w3.org/1999/xlink">
    <!-- Generator: Sketch 62 (91390) - https://sketch.com -->
    <title>六性管理</title>
    <desc>Created with Sketch.</desc>
    <g id="页面-1" stroke="none" stroke-width="1" fill="none" fill-rule="evenodd">
        <g id="图标" transform="translate(-82.000000, -518.000000)" fill="#1E77FF" fill-rule="nonzero">
            <g id="六性管理" transform="translate(82.000000, 518.000000)">
                <path d="M14.2089688,8 C14.2089688,7.19936 14.5596888,6.47936 15.1177688,5.9808 C15.3776088,5.74976 15.4435288,5.36704 15.2681688,5.0656 L14.0214488,2.91712 C13.8518577,2.62369217 13.5007223,2.48808677 13.1779288,2.59136 C12.9032849,2.67858401 12.6168106,2.72283964 12.3286488,2.72256 C11.0025688,2.72256 9.8947288,1.80096 9.6278488,0.5728 C9.55700495,0.239587425 9.26322769,0.000993371581 8.9225688,0 L6.4496088,0 C6.1104088,0 5.8172888,0.23808 5.7443288,0.5728 C5.4774488,1.8016 4.3696088,2.72256 3.0435288,2.72256 C2.75536697,2.72283964 2.46889273,2.67858401 2.1942488,2.59136 C1.87145527,2.48808677 1.52031987,2.62369217 1.3507288,2.91712 L0.104008797,5.06496 C-0.0695796955,5.36712534 -0.00702589834,5.74966587 0.253768797,5.9808 C0.831643319,6.49284199 1.1624813,7.22790806 1.1625688,8 C1.1624813,8.77209194 0.831643319,9.50715801 0.253768797,10.0192 C-0.00543120313,10.25024 -0.0713512031,10.63296 0.104008797,10.9344 L1.3507288,13.08288 C1.5216088,13.37728 1.8716888,13.51168 2.1942488,13.40864 C2.46889273,13.321416 2.75536697,13.2771604 3.0435288,13.27744 C4.3696088,13.27744 5.4774488,14.19904 5.7443288,15.4272 C5.81517264,15.7604126 6.1089499,15.9990066 6.4496088,16 L8.9225688,16 C9.2617688,16 9.5548888,15.76192 9.6278488,15.4272 C9.8947288,14.1984 11.0025688,13.27744 12.3286488,13.27744 C12.6249688,13.27744 12.9104088,13.32352 13.1779288,13.40864 C13.5004888,13.51104 13.8499288,13.37792 14.0214488,13.08288 L15.2681688,10.93504 C15.4417573,10.6328747 15.3792035,10.2503341 15.1184088,10.0192 C14.5405343,9.50715801 14.2096963,8.77209194 14.2096088,8 L14.2089688,8 Z M13.1676888,12.14912 C12.3776347,11.9709348 11.5519129,12.039745 10.8022488,12.34624 C10.3448755,12.5334579 9.92771877,12.8067825 9.5734488,13.15136 C9.12540463,13.5859345 8.79224241,14.1249316 8.6038488,14.72 L6.7696088,14.72 C6.58075221,14.1250311 6.24714874,13.5862516 5.7987288,13.152 C5.44475899,12.8070323 5.02781774,12.533272 4.5705688,12.3456 C3.82091442,12.0390644 2.99518005,11.9702532 2.2051288,12.14848 L1.2860888,10.58816 C1.4748888,10.3904 1.6425688,10.1728 1.7846488,9.9392 C2.66696711,8.49243485 2.46212404,6.63254397 1.2860888,5.41248 L2.2044888,3.85088 C2.99454583,4.0290235 3.82025492,3.9602144 4.5699288,3.65376 C5.02730205,3.46654206 5.44445882,3.19321747 5.7987288,2.84864 C6.24677297,2.4140655 6.57993518,1.87506842 6.7683288,1.28 L8.6025688,1.28 C8.79142538,1.87496895 9.12502885,2.41374845 9.5734488,2.848 C9.9280088,3.1936 10.3414488,3.46496 10.8016088,3.6544 C11.5512729,3.96089501 12.3769947,4.02970515 13.1670488,3.85152 L14.0860888,5.41184 C13.8970541,5.60960672 13.7299008,5.82718492 13.5875288,6.0608 C12.7052105,7.50756515 12.9100536,9.36745603 14.0860888,10.58752 L13.1676888,12.14912 L13.1676888,12.14912 Z" id="形状"></path>
                <path d="M7.6860888,5.12 C6.54283889,5.12 5.48643241,5.72991653 4.91480745,6.71999998 C4.34318249,7.71008344 4.34318249,8.92991656 4.91480745,9.92000002 C5.48643241,10.9100835 6.54283889,11.52 7.6860888,11.52 C9.4534,11.52 10.8860888,10.0873112 10.8860888,8.32 C10.8860888,6.5526888 9.4534,5.12 7.6860888,5.12 L7.6860888,5.12 Z M9.1945688,9.82848 C8.7913688,10.23168 8.2556888,10.45312 7.6860888,10.45312 C7.1164888,10.45312 6.5808088,10.23168 6.1776088,9.82848 C5.77632732,9.42922989 5.55140884,8.88606099 5.55296074,8.32 C5.55296074,7.7504 5.7744088,7.21472 6.1776088,6.81152 C6.57685891,6.41023852 7.12002781,6.18532005 7.6860888,6.18687194 C8.2556888,6.18687194 8.7913688,6.40832 9.1945688,6.81152 C9.5977688,7.21472 9.8192088,7.7504 9.8192088,8.32 C9.8192088,8.8896 9.5977688,9.42528 9.1945688,9.82848 L9.1945688,9.82848 Z" id="形状"></path>
            </g>
        </g>
    </g>
</svg>