<svg width="15" height="15" viewBox="0 0 16 16" fill="none" xmlns="http://www.w3.org/2000/svg">
<path d="M12.817 0.929932H3.0137C2.43036 0.929932 1.95703 1.40327 1.95703 1.9866V13.8299C1.95703 14.4133 2.43036 14.8866 3.0137 14.8866H12.8137C13.397 14.8866 13.8704 14.4133 13.8704 13.8299V1.9866C13.8737 1.40327 13.4004 0.929932 12.817 0.929932ZM12.8737 13.8299C12.8737 13.8599 12.847 13.8866 12.817 13.8866H3.0137C2.9837 13.8866 2.95703 13.8599 2.95703 13.8299V1.9866C2.95703 1.9566 2.9837 1.92993 3.0137 1.92993H12.8137C12.8437 1.92993 12.8704 1.9566 12.8704 1.9866V13.8299H12.8737Z" fill="#1890FF"/>
<path d="M11.334 3.10669H9.33398C8.78065 3.10669 8.33398 3.55336 8.33398 4.10669V6.10669C8.33398 6.66002 8.78065 7.10669 9.33398 7.10669H11.334C11.8873 7.10669 12.334 6.66002 12.334 6.10669V4.10669C12.334 3.55336 11.8873 3.10669 11.334 3.10669ZM11.334 6.10669H9.33398V4.10669H11.334V6.10669Z" fill="#1890FF"/>
<path d="M7.66602 3.68335H3.66602V4.68335H7.66602V3.68335Z" fill="#1890FF"/>
<path d="M7.66602 5.77002H3.66602V6.77002H7.66602V5.77002Z" fill="#1890FF"/>
<path d="M12.3327 8.67334H3.66602V9.67334H12.3327V8.67334Z" fill="#1890FF"/>
<path d="M12.3327 11.2366H3.66602V12.2366H12.3327V11.2366Z" fill="#1890FF"/>
</svg>
