<svg width="14" height="21.6" viewBox="0 0 14 21.6" fill="none" xmlns="http://www.w3.org/2000/svg">
<path d="M10.968 3.6L7.6 0.232L7.368 0H6.8H0.8C0.36 0 0 0.368 0 0.82V15.18C0 15.632 0.36 16 0.8 16H10.4C10.84 16 11.2 15.632 11.2 15.18V4.4V3.932V3.832L10.968 3.6ZM7.6 1.368L9.832 3.6H8C7.78 3.6 7.6 3.42 7.6 3.2V1.368ZM0.8 15.18V0.82H6.8V3.2C6.8 3.86 7.34 4.4 8 4.4H10.4V15.18H0.8Z" fill="#1890FF"/>
<path d="M3.2 5.1998C3.64 5.1998 4 5.5598 4 5.9998C4 6.4398 3.64 6.7998 3.2 6.7998C2.76 6.7998 2.4 6.4398 2.4 5.9998C2.4 5.5598 2.76 5.1998 3.2 5.1998ZM3.2 4.7998C2.536 4.7998 2 5.3358 2 5.9998C2 6.6638 2.536 7.1998 3.2 7.1998C3.864 7.1998 4.4 6.6638 4.4 5.9998C4.4 5.3358 3.864 4.7998 3.2 4.7998Z" fill="#1890FF"/>
<path d="M9.60059 5.80029H5.60059V6.20029H9.60059V5.80029Z" fill="#1890FF"/>
<path d="M3.2 8.38389C3.64 8.38389 4 8.74389 4 9.18389C4 9.62389 3.64 9.98389 3.2 9.98389C2.76 9.98389 2.4 9.62389 2.4 9.18389C2.4 8.74389 2.76 8.38389 3.2 8.38389ZM3.2 7.98389C2.536 7.98389 2 8.51989 2 9.18389C2 9.84789 2.536 10.3839 3.2 10.3839C3.864 10.3839 4.4 9.84789 4.4 9.18389C4.4 8.52389 3.864 7.98389 3.2 7.98389Z" fill="#1890FF"/>
<path d="M9.60059 8.98438H5.60059V9.38437H9.60059V8.98438Z" fill="#1890FF"/>
<path d="M9.60059 12.1709H5.60059V12.5709H9.60059V12.1709Z" fill="#1890FF"/>
<path d="M3.20055 12.9153L2.34055 12.0593L2.06055 12.3393L3.20055 13.4833L5.14055 11.5393L4.86055 11.2593L3.20055 12.9153Z" fill="#1890FF"/>
</svg>
