<?xml version="1.0" encoding="UTF-8"?>
<svg width="16px" height="13px" viewBox="0 0 16 13" version="1.1" xmlns="http://www.w3.org/2000/svg" xmlns:xlink="http://www.w3.org/1999/xlink">
    <!-- Generator: Sketch 62 (91390) - https://sketch.com -->
    <title>基线</title>
    <desc>Created with Sketch.</desc>
    <g id="页面-1" stroke="none" stroke-width="1" fill="none" fill-rule="evenodd">
        <g id="图标" transform="translate(-82.000000, -605.000000)" fill="#31A2FA" fill-rule="nonzero">
            <path d="M98,616.049995 L98,608.9 C98,608.3618 97.7753281,607.873005 97.414,607.52135 C97.0526719,607.169695 96.552,606.95 96,606.95 L93.69,606.95 L92.5546719,605.289255 C92.4333438,605.113755 92.2306719,605 92,605 L88,605 C87.7826719,605.001295 87.5733281,605.102695 87.4453281,605.289255 L86.31,606.95 L84,606.95 C83.448,606.95 82.9466719,607.169055 82.586,607.52135 C82.2253281,607.873645 82,608.3618 82,608.9 L82,616.049995 C82,616.588195 82.2246719,617.07699 82.586,617.428645 C82.9473281,617.7803 83.448,618 84,618 L96,618 C96.552,618 97.0533281,617.78094 97.414,617.428645 C97.7746719,617.07635 98,616.588195 98,616.049995 Z M96.6666875,616.049995 C96.6666875,616.229395 96.5926719,616.391245 96.4713438,616.50954 C96.3500156,616.627835 96.1840156,616.699985 96.0000156,616.699985 L84.0000156,616.699985 C83.8160156,616.699985 83.6500156,616.627835 83.5286875,616.50954 C83.4073594,616.391245 83.3333594,616.229395 83.3333594,616.049995 L83.3333594,608.9 C83.3333594,608.7206 83.4073594,608.55875 83.5286875,608.440455 C83.6500156,608.32216 83.8160156,608.25001 84.0000156,608.25001 L86.6666875,608.25001 C86.8973594,608.25001 87.1000156,608.136255 87.2213594,607.960755 L88.3566875,606.30001 L91.6433594,606.30001 L92.7786875,607.960755 C92.9066875,608.1473 93.1160156,608.2487 93.3333594,608.25001 L96.0000313,608.25001 C96.1840313,608.25001 96.3500313,608.32216 96.4713594,608.440455 C96.5926875,608.55875 96.6666875,608.7206 96.6666875,608.9 L96.6666875,616.049995 Z M93.3333281,612.149995 C93.3333281,611.252995 92.9593281,610.43919 92.3573281,609.8516 C91.7553281,609.26401 90.92,608.9 90,608.9 C89.08,608.9 88.2453281,609.26465 87.6426719,609.8516 C87.0400156,610.43855 86.6666719,611.252995 86.6666719,612.149995 C86.6666719,613.046995 87.0406719,613.8608 87.6426719,614.44839 C88.2446719,615.03598 89.08,615.39999 90,615.39999 C90.92,615.39999 91.7546719,615.03534 92.3573281,614.44839 C92.9599844,613.86144 93.3333281,613.046995 93.3333281,612.149995 L93.3333281,612.149995 Z M92,612.149995 C92,612.68885 91.7766719,613.17504 91.414,613.528645 C91.0513281,613.88225 90.5526719,614.099995 90,614.099995 C89.4473281,614.099995 88.9486719,613.88225 88.586,613.528645 C88.2233281,613.17504 88,612.68885 88,612.149995 C88,611.61114 88.2233281,611.12495 88.586,610.771345 C88.9486719,610.41774 89.4473281,610.199995 90,610.199995 C90.5526719,610.199995 91.0513281,610.41774 91.414,610.771345 C91.7766719,611.12495 92,611.61114 92,612.149995 Z" id="基线"></path>
        </g>
    </g>
</svg>