<?xml version="1.0" encoding="UTF-8"?>
<svg width="15px" height="16px" viewBox="0 0 15 16" version="1.1" xmlns="http://www.w3.org/2000/svg" xmlns:xlink="http://www.w3.org/1999/xlink">
    <!-- Generator: Sketch 62 (91390) - https://sketch.com -->
    <title>更改日志</title>
    <desc>Created with Sketch.</desc>
    <g id="页面-1" stroke="none" stroke-width="1" fill="none" fill-rule="evenodd">
        <g id="图标" transform="translate(-581.000000, -453.000000)" fill="#67C8B5" fill-rule="nonzero">
            <g id="更改日志" transform="translate(581.500000, 453.000000)">
                <path d="M1.872,3.416 L1.816,3.416 L1.816,1.256 C1.816,1.224 1.824,1.2 1.832,1.192 L8.848,1.192 C9.168,1.192 9.432,0.928 9.432,0.608 L9.432,0.584 C9.432,0.264 9.168,1.687539e-14 8.848,1.687539e-14 L1.808,1.687539e-14 C1.152,0.024 0.624,0.584 0.648,1.256 L0.648,3.416 L0.584,3.416 C0.264,3.416 2.21156427e-13,3.68 2.21156427e-13,4 L2.21156427e-13,4.024 C2.21156427e-13,4.344 0.264,4.608 0.584,4.608 L1.872,4.608 C2.192,4.608 2.456,4.344 2.456,4.024 L2.456,4 C2.456,3.68 2.192,3.416 1.872,3.416 Z M1.872,8.416 L0.584,8.416 C0.264,8.416 2.22044605e-13,8.68 2.22044605e-13,9 L2.22044605e-13,9.024 C2.22044605e-13,9.344 0.264,9.608 0.584,9.608 L1.872,9.608 C2.192,9.608 2.456,9.344 2.456,9.024 L2.456,9 C2.456,8.672 2.192,8.416 1.872,8.416 Z M1.872,5.912 L0.584,5.912 C0.264,5.912 2.22044605e-13,6.176 2.22044605e-13,6.496 L2.22044605e-13,6.52 C2.22044605e-13,6.84 0.264,7.104 0.584,7.104 L1.872,7.104 C2.192,7.104 2.456,6.84 2.456,6.52 L2.456,6.496 C2.456,6.176 2.192,5.912 1.872,5.912 Z M13.256,2.784 L12.024,1.52 C11.792,1.28 11.464,1.144 11.128,1.152 C10.792,1.16 10.472,1.312 10.248,1.56 L4.824,7.584 C4.768,7.648 4.728,7.72 4.704,7.8 L3.632,11.104 C3.56,11.32 3.616,11.552 3.768,11.712 C3.88,11.824 4.032,11.888 4.184,11.888 C4.248,11.888 4.312,11.88 4.368,11.856 L7.584,10.752 C7.68,10.72 7.76,10.664 7.832,10.592 L13.288,4.52 C13.736,4.024 13.72,3.264 13.256,2.784 Z M6.328,9.936 L5.104,10.352 L5.512,9.096 L6.328,9.936 Z M10.152,6.256 L7.384,9.328 L6.064,7.976 L8.832,4.904 L10.152,6.256 L10.152,6.256 Z M11.192,2.352 L12.432,3.624 C12.456,3.648 12.456,3.688 12.44,3.712 L10.952,5.368 L9.632,4.008 L11.12,2.352 C11.128,2.344 11.144,2.336 11.168,2.336 C11.168,2.336 11.176,2.336 11.192,2.352 Z" id="形状"></path>
                <path d="M11.912,14.264 C11.912,14.296 11.904,14.32 11.896,14.328 L1.832,14.328 C1.824,14.32 1.816,14.296 1.816,14.264 L1.816,12.104 L1.872,12.104 C2.192,12.104 2.456,11.84 2.456,11.52 L2.456,11.496 C2.456,11.176 2.192,10.912 1.872,10.912 L0.584,10.912 C0.264,10.912 3.86357613e-13,11.176 3.86357613e-13,11.496 L3.86357613e-13,11.52 C3.86357613e-13,11.84 0.264,12.104 0.584,12.104 L0.648,12.104 L0.648,14.256 C0.632,14.928 1.152,15.496 1.816,15.52 L11.92,15.52 C12.576,15.496 13.104,14.936 13.088,14.264 L13.088,7.64 C13.088,7.32 12.824,7.056 12.504,7.056 C12.184,7.056 11.92,7.32 11.92,7.64 L11.92,14.264 L11.912,14.264 Z" id="路径"></path>
            </g>
        </g>
    </g>
</svg>