<?xml version="1.0" encoding="UTF-8"?>
<svg width="15px" height="15px" viewBox="0 0 15 15" version="1.1" xmlns="http://www.w3.org/2000/svg" xmlns:xlink="http://www.w3.org/1999/xlink">
    <!-- Generator: Sketch 62 (91390) - https://sketch.com -->
    <title>管理，设置</title>
    <desc>Created with Sketch.</desc>
    <g id="页面-1" stroke="none" stroke-width="1" fill="none" fill-rule="evenodd">
        <g id="图标" transform="translate(-82.000000, -579.000000)" fill="#1E77FF" fill-rule="nonzero">
            <g id="管理，设置" transform="translate(82.000000, 579.000000)">
                <path d="M9.89120313,0.51984375 L9.47576563,1.5448125 C13.5939219,3.2136875 14.5546406,8.467125 11.5166406,11.4889687 L12.2964062,12.2730312 C15.87,8.719375 14.7852812,2.50304687 9.89120313,0.51984375 Z M1.53335937,5.01359375 L0.503046875,4.61184375 C-1.77671875,10.4628906 4.15192187,16.2544063 9.95632812,13.8354375 L9.5308125,12.8144844 C4.57240625,14.8825625 -0.37278125,9.90520312 1.53335937,5.01360938 L1.53335937,5.01359375 Z M7.21425,1.1128125 L7.21425,0.006875 C5.294,0.006875 3.48640625,0.75696875 2.1245625,2.11904687 L2.90648437,2.90096875 C4.05953125,1.74784375 5.58953125,1.1128125 7.21425,1.1128125 Z" id="形状"></path>
                <path d="M9.57703125,5.76664062 L10.25425,5.07304688 L9.38607812,4.27264063 L8.73040625,4.88592188 C8.43782264,4.69251853 8.11092626,4.55690175 7.76735937,4.48639063 L7.76735937,3.69328125 L6.6614375,3.69328125 L6.6614375,4.48648437 C6.34025,4.55192187 6.04089062,4.67576562 5.77048437,4.84232812 L5.2154375,4.25417187 L4.47671875,5.073125 L4.97984375,5.57432813 C4.7516875,5.88784375 4.5856875,6.24920313 4.50553125,6.64248438 L3.71232812,6.64248438 L3.71232812,7.74840625 L4.50545312,7.74840625 C4.58448437,8.13640625 4.74704687,8.49353125 4.97032812,8.80425 L4.51976562,9.2439375 L5.2154375,10.007375 L5.689125,9.49935937 C5.98406149,9.6958901 6.3142307,9.8335119 6.6614375,9.90464062 L6.6614375,10.6975312 L7.767375,10.6975312 L7.767375,9.90471875 C8.15135938,9.82648437 8.50528125,9.66671875 8.81376562,9.44696875 L9.38617187,9.98889062 L10.2112031,9.24392187 L9.5836875,8.61376562 C9.74217188,8.35001562 9.86040625,8.0594375 9.92376562,7.74840625 L10.7165781,7.74840625 L10.7165781,6.64240625 L9.9236875,6.64240625 C9.8594375,6.32728125 9.73889062,6.033125 9.57704688,5.76664062 L9.57703125,5.76664062 Z M7.21457812,8.8545 C6.29978125,8.8545 5.55570312,8.11032813 5.55570312,7.19560938 C5.55570312,6.28089062 6.29984375,5.53671875 7.2145625,5.53671875 C8.12928125,5.53671875 8.8734375,6.28089062 8.8734375,7.195625 C8.8734375,8.11035937 8.129375,8.8545 7.2145625,8.8545 L7.21457812,8.8545 Z" id="形状"></path>
            </g>
        </g>
    </g>
</svg>