<?xml version="1.0" encoding="UTF-8"?>
<svg width="14px" height="16px" viewBox="0 0 14 16" version="1.1" xmlns="http://www.w3.org/2000/svg" xmlns:xlink="http://www.w3.org/1999/xlink">
    <!-- Generator: Sketch 62 (91390) - https://sketch.com -->
    <title>偏离单</title>
    <desc>Created with Sketch.</desc>
    <g id="页面-1" stroke="none" stroke-width="1" fill="none" fill-rule="evenodd">
        <g id="图标" transform="translate(-582.000000, -481.000000)" fill="#28B672">
            <g id="偏离单" transform="translate(582.500000, 481.000000)">
                <g id="形状">
                    <path d="M4.06757812,8.13666667 L3.03164062,8.13666667 C2.71679687,8.13666667 2.48489583,7.91 2.48489583,7.59666667 C2.48489583,7.28333333 2.71510417,7.055 3.03164062,7.055 L4.06757812,7.055 C4.38242187,7.055 4.61432292,7.28333333 4.61432292,7.59666667 C4.61432292,7.85666667 4.39427083,8.13666667 4.06757812,8.13666667 Z M9.32174479,3.83833333 L3.03164062,3.83833333 C2.71679687,3.83833333 2.48489583,3.61 2.48489583,3.29666667 C2.48489583,2.985 2.71510417,2.75666667 3.03164062,2.75666667 L9.32174479,2.75666667 C9.63828125,2.75666667 9.86848958,2.985 9.86848958,3.29666667 C9.86679687,3.56 9.6484375,3.83833333 9.32174479,3.83833333 Z M11.8049479,8.265 C11.4884115,8.265 11.2582031,8.03666667 11.2582031,7.72333333 L11.2582031,1.90666667 C11.2582031,1.46 10.8908854,1.09666667 10.4389323,1.09666667 L1.91445312,1.09666667 C1.4625,1.09666667 1.09518229,1.46 1.09518229,1.90666667 L1.09518229,12.1 C1.09518229,12.5466667 1.4625,12.91 1.91445312,12.91 L3.56315104,12.91 C3.8796875,12.91 4.10989583,13.1383333 4.10989583,13.4516667 C4.10989583,13.7116667 3.88984375,13.9933333 3.56315104,13.9933333 L1.91445312,13.9933333 C0.859895833,13.9933333 0.00338541667,13.145 0.00338541667,12.1016667 L0.00338541667,1.90833333 C0.0473958333,0.881666667 0.922526042,0.015 1.91445312,0.015 L10.4389323,0.015 C11.4917969,0.015 12.35,0.863333333 12.35,1.90666667 L12.35,7.725 C12.35,8.03666667 12.1197917,8.265 11.8049479,8.265 Z M9.32174479,5.96833333 L3.03164062,5.96833333 C2.71679687,5.96833333 2.48489583,5.74 2.48489583,5.42666667 C2.48489583,5.11333333 2.71510417,4.885 3.03164062,4.885 L9.32174479,4.885 C9.63828125,4.885 9.86848958,5.11333333 9.86848958,5.42666667 C9.86679687,5.74 9.63828125,5.96833333 9.32174479,5.96833333 Z" fill-rule="nonzero"></path>
                    <path d="M12.7291667,12.1333333 C12.7291667,14.1181333 11.0887292,15.7333333 9.07291667,15.7333333 C7.05710417,15.7333333 5.41666667,14.1181333 5.41666667,12.1333333 C5.41666667,10.1485333 7.05710417,8.53333333 9.07291667,8.53333333 C11.0887292,8.53333333 12.7291667,10.1485333 12.7291667,12.1333333 Z M11.9166667,12.1333333 C11.9166667,10.5893333 10.6410417,9.33333333 9.07291667,9.33333333 C7.50479167,9.33333333 6.22916667,10.5893333 6.22916667,12.1333333 C6.22916667,13.6773333 7.50479167,14.9333333 9.07291667,14.9333333 C10.6410417,14.9333333 11.9166667,13.6773333 11.9166667,12.1333333 Z M7.85416667,11.7333333 L8.90472917,11.7333333 L7.56735417,13.0501333 L8.14179167,13.6157333 L9.47916667,12.2989333 L9.47916667,13.3333333 L10.2916667,13.3333333 L10.2916667,10.9333333 L7.85416667,10.9333333 L7.85416667,11.7333333 Z" fill-rule="nonzero"></path>
                </g>
            </g>
        </g>
    </g>
</svg>