<?xml version="1.0" encoding="UTF-8"?>
<svg width="15px" height="16px" viewBox="0 0 15 16" version="1.1" xmlns="http://www.w3.org/2000/svg" xmlns:xlink="http://www.w3.org/1999/xlink">
    <!-- Generator: Sketch 62 (91390) - https://sketch.com -->
    <title>文档</title>
    <desc>Created with Sketch.</desc>
    <g id="页面-1" stroke="none" stroke-width="1" fill="none" fill-rule="evenodd">
        <g id="图标" transform="translate(-81.000000, -487.000000)" fill="#3FBD5A" fill-rule="nonzero">
            <g id="文档" transform="translate(81.000000, 487.000000)">
                <path d="M10.1,10.653125 L4.233,10.653125 C3.82975841,10.6569217 3.50379674,10.9828834 3.5,11.386125 C3.5,11.786125 3.833,12.053125 4.233,12.053125 L10.167,12.053125 C10.5702416,12.0493283 10.8962033,11.7233666 10.9,11.320125 C10.833,10.986125 10.5,10.653125 10.1,10.653125 M10.1,7.320125 L4.233,7.320125 C3.82975841,7.32392174 3.50379674,7.64988341 3.5,8.053125 C3.5,8.386125 3.833,8.720125 4.233,8.720125 L10.167,8.720125 C10.5706272,8.71631986 10.8967451,8.38975705 10.9,7.986125 C10.8371505,7.59544792 10.4955974,7.31110492 10.1,7.320125 M4.233,5.320125 L7.367,5.320125 C7.77062724,5.31631986 8.09674514,4.98975705 8.1,4.586125 C8.09620326,4.18288341 7.77024159,3.85692174 7.367,3.853125 L4.233,3.853125 C3.833,3.920125 3.5,4.253125 3.5,4.586125 C3.5,4.986125 3.833,5.320125 4.233,5.320125" id="形状"></path>
                <path d="M11.79,14.5571456 L2.598,14.5571456 C2.279865,14.5589927 1.9741618,14.4337145 1.74882727,14.2091311 C1.52349274,13.9845477 1.3971945,13.6792645 1.39799617,13.361125 L1.39799617,2.594125 C1.39799617,1.930125 1.932,1.398125 2.598,1.398125 L8.859,1.398125 L8.859,3.458125 C8.859,4.522125 9.725,5.386125 10.791,5.386125 L12.989,5.386125 L12.989,13.427125 C12.989,14.026125 12.457,14.5571456 11.79,14.5571456 Z M12.99,3.990125 L10.658,3.990125 C10.458,3.990125 10.258,3.790125 10.258,3.591125 L10.258,1.398125 L12.989,3.990125 L12.99,3.990125 Z M14.388,3.990125 L10.192,0.002125 L2.598,0.002125 C1.199,0.003125 0,1.133125 0,2.594125 L0,13.427125 C0,14.823125 1.2,15.953125 2.598,15.953125 L11.79,15.953125 C13.19,15.953125 14.388,14.823125 14.388,13.361125 L14.388,3.990125 Z" id="形状"></path>
            </g>
        </g>
    </g>
</svg>