<?xml version="1.0" encoding="UTF-8"?>
<svg width="16px" height="16px" viewBox="0 0 16 16" version="1.1" xmlns="http://www.w3.org/2000/svg" xmlns:xlink="http://www.w3.org/1999/xlink">
    <!-- Generator: Sketch 62 (91390) - https://sketch.com -->
    <title>icon-压缩包</title>
    <desc>Created with Sketch.</desc>
    <g id="页面-1" stroke="none" stroke-width="1" fill="none" fill-rule="evenodd">
        <g id="图标" transform="translate(-725.000000, -696.000000)" fill="#1E77FF" fill-rule="nonzero">
            <g id="icon-压缩包" transform="translate(725.000000, 696.000000)">
                <polygon id="路径" opacity="0.275274368" points="0 5.33333333 16 5.33333333 16 10.6633333 0 10.6633333"></polygon>
                <path d="M16,5.33333333 L16,0.977777771 C16,0.444444438 15.5555556,0 15.0222222,0 L0.977777771,0 C0.444444438,0 0,0.444444438 0,0.977777771 L0,5.33333333 L16,5.33333333 Z" id="路径" opacity="0.185849144"></path>
                <path d="M0,10.6666667 L0,14.9333333 C0,15.5555556 0.444444438,16 0.977777771,16 L15.0222222,16 C15.5555556,16 16,15.5555556 16,15.0222222 L16,10.6666667 L0,10.6666667 Z" id="路径" opacity="0.189546131"></path>
                <polygon id="路径" opacity="0.396949405" points="6.22222223 0 9.77777777 0 9.77777777 16 6.22222223 16"></polygon>
                <path d="M9.86666667,6.93333333 L9.86666667,9.15555556 L6.13333333,9.15555556 L6.13333333,6.93333333 L9.86666667,6.93333333 M10.4,6.04444444 L5.5111111,6.04444444 C5.42222221,6.04444444 5.24444444,6.13333333 5.24444444,6.3111111 L5.24444444,9.86666667 C5.24444444,9.95555556 5.33333333,10.1333333 5.5111111,10.1333333 L10.4888889,10.1333333 C10.5777778,10.1333333 10.7555556,10.0444444 10.7555556,9.86666667 L10.7555556,6.3111111 C10.5777778,6.13333333 10.4888889,6.04444444 10.4,6.04444444 L10.4,6.04444444 Z" id="形状"></path>
            </g>
        </g>
    </g>
</svg>