<?xml version="1.0" encoding="UTF-8"?>
<svg width="16px" height="16px" viewBox="0 0 16 16" version="1.1" xmlns="http://www.w3.org/2000/svg" xmlns:xlink="http://www.w3.org/1999/xlink">
    <!-- Generator: Sketch 62 (91390) - https://sketch.com -->
    <title>需求管理</title>
    <desc>Created with Sketch.</desc>
    <g id="页面-1" stroke="none" stroke-width="1" fill="none" fill-rule="evenodd">
        <g id="图标" transform="translate(-82.000000, -550.000000)" fill="#FF6900" fill-rule="nonzero">
            <g id="需求管理" transform="translate(82.000000, 550.000000)">
                <path d="M14.5506667,3.41866667 C14.4530141,3.27933308 14.2884458,3.20268058 14.1189531,3.21758341 C13.9494603,3.23248625 13.8007932,3.33668032 13.7289531,3.49091675 C13.6571129,3.64515317 13.6730141,3.82599975 13.7706667,3.96533333 C14.6000438,5.14702408 15.0436465,6.5563066 15.0406667,8 C15.0406667,11.882 11.882,15.0406667 8,15.0406667 C4.118,15.0406667 0.959333328,11.882 0.959333328,8 C0.959333328,4.118 4.118,0.959333328 8,0.959333328 C8.95066667,0.959333328 9.87266667,1.14533333 10.7406667,1.51266667 C10.8978434,1.58079736 11.0794917,1.55934622 11.2164749,1.45647773 C11.3534581,1.35360923 11.4247065,1.1851458 11.4031024,1.01520585 C11.3814984,0.845265901 11.2703648,0.699988261 11.112,0.634666672 C10.1274178,0.218302936 9.06899815,0.00471439572 8,0.00665340853 C3.59266667,0.00665340853 0.00666667188,3.59266667 0.00666667188,8 C0.00666667188,12.4073333 3.59266667,15.9933333 8,15.9933333 C12.4073333,15.9933333 15.9933526,12.4073333 15.9933526,8 C15.9969481,6.36057144 15.4929948,4.76021681 14.5506667,3.41866667 L14.5506667,3.41866667 Z M12.8646667,2.74266667 C13.0354396,2.74266667 13.1932403,2.65156039 13.2786268,2.50366667 C13.3640133,2.35577296 13.3640133,2.17356039 13.2786268,2.02566667 C13.1932403,1.87777295 13.0354396,1.78666667 12.8646667,1.78666667 C12.6006746,1.78666667 12.3866667,2.00067456 12.3866667,2.26466667 C12.3866667,2.52865878 12.6006746,2.74266667 12.8646667,2.74266667 L12.8646667,2.74266667 Z" id="形状"></path>
                <path d="M4.80133333,11.558 L4.80133333,4.442 L7.82533333,4.442 C8.586,4.442 9.138,4.506 9.48266667,4.634 C9.82733334,4.762 10.1033333,4.98933333 10.31,5.316 C10.5173333,5.64266667 10.6206667,6.01666667 10.6206667,6.43733333 C10.6206667,6.97133333 10.464,7.412 10.15,7.76 C9.836,8.108 9.36666667,8.32733333 8.74266667,8.41733333 C9.05333334,8.59866666 9.31,8.79733333 9.512,9.014 C9.714,9.23066667 9.98666667,9.616 10.33,10.1693333 L11.1986667,11.5573333 L9.48,11.5573333 L8.44133333,10.0093333 C8.07266666,9.45533333 7.82,9.10666666 7.684,8.96266667 C7.56585864,8.83074113 7.41768008,8.72921138 7.252,8.66666667 C7.1,8.61333334 6.85866667,8.58666667 6.52866667,8.58666667 L6.238,8.58666667 L6.238,11.5573333 L4.80133333,11.5573333 L4.80133333,11.558 Z M6.238,7.45133333 L7.30066667,7.45133333 C7.99,7.45133333 8.42,7.422 8.592,7.364 C8.76333333,7.306 8.898,7.20533333 8.99466667,7.06333333 C9.09133334,6.92133333 9.14,6.74266666 9.14,6.52933333 C9.14,6.29 9.076,6.09666666 8.948,5.94933333 C8.82,5.802 8.64,5.70933333 8.40666667,5.67 C8.29,5.654 7.94066667,5.646 7.358,5.646 L6.238,5.646 L6.238,7.45133333 L6.238,7.45133333 Z" id="形状"></path>
            </g>
        </g>
    </g>
</svg>