<?xml version="1.0" encoding="UTF-8"?>
<svg width="16px" height="16px" viewBox="0 0 16 16" version="1.1" xmlns="http://www.w3.org/2000/svg" xmlns:xlink="http://www.w3.org/1999/xlink">
    <title>标准件备份 B</title>
    <g id="页面-1" stroke="none" stroke-width="1" fill="none" fill-rule="evenodd">
        <g id="图标" transform="translate(-120.000000, -667.000000)" fill-rule="nonzero">
            <g id="标准件备份-B" transform="translate(120.000000, 667.000000)">
                <path d="M8.79277992,-6.27646083e-14 C9.12870881,0.00097957873 9.418407,0.236260782 9.48826719,0.564846738 C9.75144159,1.77595388 10.8438994,2.68475757 12.1515669,2.68475757 C12.4357276,2.68503332 12.7182242,2.64139218 12.9890547,2.55537926 C13.3073663,2.45353997 13.6536262,2.5872625 13.8208626,2.87661612 L13.8208626,2.87661612 L15.050272,4.99526472 C15.2231971,5.29251926 15.1581924,5.66992524 14.9019603,5.89775728 C14.3516292,6.38939483 14.0057789,7.09939771 14.0057789,7.88892092 L14.0057789,7.88892092 C14.0064963,8.65029245 14.3327406,9.37515221 14.9025914,9.88008456 C15.159765,10.1080094 15.2214502,10.4852384 15.050272,10.7832082 L15.050272,10.7832082 L14.9594228,10.9418437 C14.6306307,10.7341495 14.26713,10.5713477 13.8722037,10.4614472 L13.884605,10.4405135 C12.7248989,9.23738997 12.5229001,7.40332347 13.3929675,5.97664649 C13.5333627,5.74627513 13.6981951,5.53171797 13.884605,5.33669722 L13.884605,5.33669722 L12.9783258,3.79804209 C12.1992415,3.97375316 11.3849848,3.90589843 10.6457297,3.60365907 C10.1919589,3.41684943 9.7842595,3.14925723 9.43462253,2.80845585 C8.99242884,2.38023383 8.66345742,1.84893522 8.47722309,1.26222735 L8.47722309,1.26222735 L6.6684513,1.26222735 C6.4826735,1.84903331 6.15413721,2.38054648 5.71231408,2.80908696 C5.36296311,3.14888001 4.95159851,3.41840952 4.50057583,3.60302796 C3.76131109,3.90522728 2.94706688,3.97308097 2.16797969,3.79741097 L2.16797969,3.79741097 L1.26233157,5.33732834 C2.4220377,6.54045186 2.62403655,8.37451837 1.75396912,9.80119535 C1.61386189,10.0315518 1.44851011,10.2461305 1.26233157,10.4411446 L1.26233157,10.4411446 L2.16861081,11.9797997 C2.94769228,11.8040476 3.76196143,11.8719033 4.50120694,12.1741828 C4.95210704,12.3592489 5.36325911,12.6292081 5.71231408,12.969386 C6.15450777,13.397608 6.48347919,13.9289066 6.66971353,14.5156145 L6.66971353,14.5156145 L8.47848531,14.5156145 C8.48190979,14.5047978 8.48538277,14.4939999 8.48890408,14.483221 C8.4685062,14.6706157 8.45816916,14.8620739 8.45816916,15.0571048 C8.45816916,15.3137528 8.47726515,15.5538941 8.51379069,15.7784309 L6.35415669,15.7778418 C6.0182278,15.7768623 5.72852961,15.5415811 5.65866942,15.2129951 C5.39549502,14.001888 4.30303725,13.0930843 2.99536972,13.0930843 C2.71120898,13.0928085 2.42871241,13.1364497 2.15788187,13.2224626 C1.83980058,13.3240719 1.4945814,13.191538 1.32607405,12.9012257 L1.32607405,12.9012257 L0.0966646176,10.7825771 C-0.0762605289,10.4853226 -0.0112558205,10.1079166 0.244345217,9.88008456 C0.814196018,9.37515221 1.14044035,8.65029245 1.14052663,7.88892092 C1.14044035,7.12754939 0.814196018,6.40268963 0.244345217,5.89775728 C-0.0128283736,5.66983242 -0.0745136184,5.29260342 0.0966646176,4.99463361 L0.0966646176,4.99463361 L1.32607405,2.87661612 C1.49331037,2.5872625 1.83957029,2.45353997 2.15788187,2.55537926 C2.42871241,2.64139218 2.71120898,2.68503332 2.99536972,2.68475757 C4.30303725,2.68475757 5.39549502,1.77658499 5.65866942,0.564846738 C5.73061638,0.234774286 6.01966644,-6.27646083e-14 6.35415669,-6.27646083e-14 L6.35415669,-6.27646083e-14 Z" id="形状结合备份-3" fill="#1E77FF"></path>
                <g id="螺丝" transform="translate(9.333333, 10.666667)" fill="#1E77FF">
                    <path d="M1.07371795,5.10576923 C0.886538462,5.10576923 0.710897436,5.03141026 0.579487179,4.89615385 L0.332051282,4.64230769 C0.0621794872,4.36538462 0.0621794872,3.91410256 0.332051282,3.63717949 L2.36089744,1.55576923 C2.38525641,1.53076923 2.41794872,1.51730769 2.4525641,1.51730769 C2.48717949,1.51730769 2.52051282,1.53141026 2.54423077,1.55576923 L3.5974359,2.63653846 C3.64615385,2.68653846 3.64615385,2.76602564 3.5974359,2.81538462 L1.56794872,4.89551282 C1.43653846,5.03076923 1.26089744,5.10576923 1.07371795,5.10576923 Z M2.45192308,1.8275641 L0.515384615,3.81474359 C0.341666667,3.99294872 0.341666667,4.28397436 0.515384615,4.46217949 L0.762820513,4.71602564 C0.846153846,4.80128205 0.956410256,4.84871795 1.07371795,4.84871795 C1.19102564,4.84871795 1.30128205,4.80192308 1.38461538,4.71602564 L3.32628205,2.72435897 L2.45192308,1.8275641 Z" id="形状" stroke="#1E77FF" stroke-width="0.2"></path>
                    <path d="M2.45192308,1.8275641 L0.515384615,3.81474359 C0.341666667,3.99294872 0.341666667,4.28397436 0.515384615,4.46217949 L0.762820513,4.71602564 C0.846153846,4.80128205 0.956410256,4.84871795 1.07371795,4.84871795 C1.19102564,4.84871795 1.30128205,4.80192308 1.38461538,4.71602564 L3.32628205,2.72435897 L2.45192308,1.8275641 Z" id="形状" opacity="0.125306"></path>
                    <path d="M1.87884615,4.52179487 C1.86987179,4.52179487 1.86025641,4.52051282 1.85128205,4.51858974 L0.812820513,4.28974359 C0.743589744,4.27435897 0.7,4.20641026 0.715384615,4.13717949 C0.730769231,4.06794872 0.798717949,4.02435897 0.867948718,4.03974359 L1.90641026,4.26858974 C1.97564103,4.28397436 2.01923077,4.35192308 2.00384615,4.42115385 C1.99038462,4.48076923 1.93782051,4.52179487 1.87884615,4.52179487 Z M2.59871795,3.78269231 C2.58974359,3.78269231 2.58076923,3.78205128 2.57179487,3.77948718 L0.830769231,3.40512821 C0.761538462,3.39038462 0.717307692,3.32179487 0.732692308,3.2525641 C0.747435897,3.18333333 0.816025641,3.13910256 0.88525641,3.15448718 L2.62628205,3.52884615 C2.69551282,3.54358974 2.73974359,3.61217949 2.72435897,3.68141026 C2.71153846,3.74166667 2.65833333,3.78269231 2.59871795,3.78269231 L2.59871795,3.78269231 Z M2.79102564,2.86987179 C2.78205128,2.86987179 2.77307692,2.86923077 2.76410256,2.86666667 L1.59935897,2.61602564 C1.53012821,2.60128205 1.48589744,2.53269231 1.50128205,2.46346154 C1.51602564,2.39423077 1.58461538,2.35 1.65384615,2.36538462 L2.81858974,2.61602564 C2.88782051,2.63076923 2.93205128,2.69935897 2.91666667,2.76858974 C2.90320513,2.82884615 2.85064103,2.86987179 2.79102564,2.86987179 L2.79102564,2.86987179 Z" id="形状"></path>
                    <path d="M4.27179487,3.51666667 C4.15961538,3.51666667 4.05448718,3.47179487 3.975,3.39038462 L1.79871795,1.15705128 C1.63846154,0.992948718 1.63653846,0.727564103 1.79423077,0.566025641 L2.05384615,0.299358974 C2.19551282,0.153846154 2.38589744,0.0737179487 2.58846154,0.0737179487 C2.79679487,0.0737179487 2.99358974,0.157692308 3.14230769,0.31025641 L3.65833333,0.83974359 C3.75512821,0.939102564 3.75576923,1.09935897 3.66025641,1.1974359 C3.61089744,1.24807692 3.61282051,1.33141026 3.66410256,1.38397436 L3.76282051,1.48525641 C3.78717949,1.51025641 3.81923077,1.52435897 3.85320513,1.52435897 C3.88461538,1.52435897 3.91410256,1.51217949 3.93589744,1.48910256 C3.98269231,1.44102564 4.04551282,1.41410256 4.11282051,1.41410256 C4.18141026,1.41410256 4.24551282,1.44166667 4.29358974,1.49102564 L4.80961538,2.02051282 C5.11025641,2.32884615 5.11474359,2.82564103 4.81987179,3.1275641 L4.56025641,3.39423077 C4.48333333,3.47371795 4.38141026,3.51666667 4.27179487,3.51666667 L4.27179487,3.51666667 Z M2.58846154,0.330128205 C2.45512821,0.330128205 2.33076923,0.382692308 2.23717949,0.478205128 L1.9775641,0.744871795 C1.91602564,0.807692308 1.91794872,0.912820513 1.98205128,0.978205128 L4.15833333,3.21153846 C4.18910256,3.24294872 4.22948718,3.26089744 4.27179487,3.26089744 C4.31153846,3.26089744 4.34871795,3.24487179 4.37692308,3.21666667 L4.63653846,2.95 C4.83525641,2.74615385 4.83012821,2.41025641 4.62628205,2.20064103 L4.11410256,1.675 C4.04423077,1.74358974 3.95192308,1.78141026 3.85384615,1.78141026 C3.75064103,1.78141026 3.65320513,1.73974359 3.58012821,1.66474359 L3.48076923,1.56346154 C3.33397436,1.41282051 3.33141026,1.16923077 3.475,1.01987179 C3.475,1.01923077 3.475,1.01923077 3.47435897,1.01858974 L2.95833333,0.489102564 C2.85833333,0.386538462 2.72692308,0.330128205 2.58846154,0.330128205 Z" id="形状" stroke="#1E77FF" stroke-width="0.2"></path>
                </g>
                <text id="B" fill="#1273FF" font-family="PingFangSC-Semibold, PingFang SC" font-size="8" font-weight="500">
                    <tspan x="5.33333333" y="11.1666667">B</tspan>
                </text>
            </g>
        </g>
    </g>
</svg>