<?xml version="1.0" encoding="UTF-8"?>
<svg width="14px" height="15px" viewBox="0 0 14 15" version="1.1" xmlns="http://www.w3.org/2000/svg" xmlns:xlink="http://www.w3.org/1999/xlink">
    <!-- Generator: Sketch 62 (91390) - https://sketch.com -->
    <title>任务管理</title>
    <desc>Created with Sketch.</desc>
    <g id="页面-1" stroke="none" stroke-width="1" fill="none" fill-rule="evenodd">
        <g id="图标" transform="translate(-723.000000, -608.000000)" fill="#F96868">
            <g id="任务管理" transform="translate(723.000000, 608.000000)">
                <g id="任务管理备份">
                    <path d="M1.18413409,1.75358864 C1.18413409,1.43438864 1.44944318,1.17377045 1.77278864,1.17377045 L11.7318068,1.17377045 C12.0554795,1.17377045 12.3203523,1.43438864 12.3203523,1.75358864 L12.3203523,5.84155227 C12.3203523,6.16151591 12.5856614,6.42093409 12.9097705,6.42093409 C13.231783,6.42227357 13.4945531,6.16354687 13.4982068,5.84155227 L13.4982068,1.75358864 C13.4982068,0.797625 12.7039159,0.0144613636 11.7319159,0.0144613636 L1.77278864,0.0144613636 C0.801552273,0.0144613636 0.00671590909,0.797625 0.00671590909,1.75358864 L0.00671590909,11.3570795 C0.00671590909,12.9513341 1.33217045,14.2555194 2.95140682,14.2555194 L3.20613409,14.2555194 C3.52788161,14.2566197 3.79044275,13.9982934 3.79457045,13.6765705 C3.79080013,13.3545207 3.52820475,13.0956739 3.20613409,13.0965341 L2.95140682,13.0965341 C1.97918864,13.0965341 1.18413409,12.3133705 1.18413409,11.3570795 L1.18413409,1.75358864 Z" id="路径" fill-rule="nonzero"></path>
                </g>
                <g id="任务管理-(2)" transform="translate(2.000000, 3.000000)">
                    <path d="M1.70244731,7.88281841 C0.789250206,7.88281841 0,7.09356822 0,6.1803711 C0,5.26717397 0.789250192,4.47792378 1.70244731,4.47792378 C2.61564442,4.47792378 3.40489463,5.26717397 3.40489463,6.1803711 C3.40489463,7.09356822 2.61564443,7.88281841 1.70244731,7.88281841 Z M1.70244731,5.42575313 C1.2868606,5.42575313 0.949652083,5.76296165 0.949652083,6.17854836 C0.949652083,6.59413507 1.2868606,6.93134357 1.70244731,6.93134357 C2.11803402,6.93134357 2.45524254,6.59413506 2.45524254,6.17854836 C2.45524254,5.7647844 2.11621127,5.42575313 1.70244731,5.42575313 L1.70244731,5.42575313 Z M9.36144996,1.86045661 L5.38741736,1.86045661 C5.18134526,1.86045661 5.01438175,1.61074003 5.01438175,1.36102347 C5.01438175,1.1113069 5.18134526,0.908981777 5.38741736,0.908981777 L9.36295414,0.908981777 C9.56902624,0.908981777 9.73598975,1.13500261 9.73598975,1.38471919 C9.73448557,1.63443577 9.56752205,1.86045661 9.36144996,1.86045661 L9.36144996,1.86045661 Z M1.55115917,2.41639497 C1.44908524,2.41639497 1.32331558,2.40545848 1.23946913,2.33437129 L0.335385766,1.58157606 C0.153110898,1.41935142 0.154933636,1.11859789 0.311690037,0.930854769 C0.468446425,0.743111646 0.745504237,0.713947676 0.93689285,0.863413057 L1.52381793,1.35190972 L2.7377686,0.137959074 C2.85077901,0.0213031517 3.0184719,-0.0260883063 3.17705104,0.0140121593 C3.33563018,0.0559353765 3.45775434,0.178059539 3.49967756,0.336638678 C3.54160077,0.495217817 3.54160077,0.686606429 3.42312211,0.799616862 L1.89383592,2.30520731 C1.80634399,2.394522 1.66781509,2.41639497 1.55115917,2.41639497 L1.55115917,2.41639497 Z" id="形状" fill-rule="nonzero"></path>
                    <path d="M11.1736184,7.95317559 C11.1875661,7.83760897 11.1995213,7.72204234 11.1995213,7.60249066 C11.1995213,7.48293897 11.1895587,7.36737234 11.1736184,7.25180572 L11.9347641,6.65603984 C12.0025101,6.60224159 12.0224354,6.50460772 11.9785998,6.42490659 L11.2592972,5.17758406 C11.213469,5.09987547 11.1218127,5.06799502 11.0401191,5.09987547 L10.1434815,5.46052303 C9.95817635,5.31905355 9.75493849,5.19750933 9.53576041,5.10585305 L9.4002685,4.15143213 C9.38432828,4.06774595 9.31060474,4 9.22094099,4 L7.78034322,4 C7.69067946,4 7.61695592,4.06575342 7.60300824,4.15143213 L7.46751633,5.10585305 C7.25033078,5.19750933 7.04510039,5.31506848 6.85979528,5.46052303 L5.96315767,5.09987547 C5.88146402,5.06998755 5.78781521,5.09987547 5.7439796,5.17758406 L5.02467697,6.42490659 C4.97884883,6.50261519 4.99877411,6.60024906 5.0685126,6.65603984 L5.82766577,7.25180572 C5.81371806,7.36737234 5.80176291,7.4849315 5.80176291,7.60249066 C5.80176291,7.72204234 5.81172555,7.83760897 5.82766577,7.95317559 L5.0685126,8.54894147 C5.00076664,8.60273972 4.98084136,8.70037359 5.02467697,8.78007472 L5.7439796,10.0273973 C5.78980774,10.1051059 5.88146403,10.1369863 5.96315767,10.1051058 L6.85979528,9.74445828 C7.04510039,9.88592777 7.24833825,10.007472 7.46751633,10.0991283 L7.60300824,11.0535492 C7.61695594,11.1372354 7.69067947,11.2049813 7.78034322,11.2049813 L9.21894846,11.2049813 C9.30861222,11.2049813 9.38233575,11.1392279 9.39628346,11.0535492 L9.53177536,10.0991283 C9.74896091,10.007472 9.9541913,9.88991283 10.1394964,9.74445828 L11.036134,10.1051058 C11.1178277,10.1349938 11.2114765,10.1051058 11.2553121,10.0273973 L11.9746147,8.78007472 C12.0204428,8.70236612 12.0005176,8.60473225 11.9307791,8.54894147 L11.1736184,7.95317559 L11.1736184,7.95317559 Z M8.49964585,8.86176836 C7.80425356,8.86176836 7.24036813,8.29788294 7.24036813,7.60249066 C7.24036813,6.90709838 7.80425355,6.34321295 8.49964585,6.34321295 C9.19503813,6.34321295 9.75892355,6.90709838 9.75892355,7.60249066 C9.75892355,8.29788294 9.19503813,8.86176836 8.49964585,8.86176836 L8.49964585,8.86176836 Z" id="形状" fill-rule="nonzero"></path>
                </g>
            </g>
        </g>
    </g>
</svg>