<svg width="12" height="18" viewBox="0 0 15 21" fill="none" xmlns="http://www.w3.org/2000/svg">
<path d="M12.52 2.425V18.505H1.5V1.5H11.59L10.09 0H1.5C0.67 0 0 0.67 0 1.5V18.505C0 19.335 0.67 20.005 1.5 20.005H12.52C13.35 20.005 14.02 19.335 14.02 18.505V3.925L12.52 2.425Z" fill="#1890FF"/>
<path d="M12.5448 2.44999V3.49999H10.5448V1.49999H11.5898L10.1448 0.0549927C9.6298 0.194993 9.2248 0.604993 9.0948 1.12499C9.0598 1.24499 9.0448 1.36999 9.0448 1.49999V3.49999C9.0448 4.32999 9.7148 4.99999 10.5448 4.99999H12.5448C12.6748 4.99999 12.8048 4.98499 12.9248 4.94999C13.4448 4.81499 13.8498 4.40999 13.9898 3.89499L12.5448 2.44999Z" fill="#1890FF"/>
<path d="M14.0199 3.925V4.575L13.2849 5.31L11.4749 3.5L10.5449 2.575L8.79492 0.825L9.61992 0H10.0899L11.5899 1.5L12.5199 2.425L14.0199 3.925Z" fill="#1890FF"/>
<path d="M4.08484 6.34998C4.35984 6.34998 4.58484 6.57498 4.58484 6.84998C4.58484 7.12498 4.35984 7.34998 4.08484 7.34998C3.80984 7.34998 3.58484 7.12498 3.58484 6.84998C3.58484 6.57498 3.80984 6.34998 4.08484 6.34998ZM4.08484 4.84998C2.97984 4.84998 2.08484 5.74498 2.08484 6.84998C2.08484 7.95498 2.97984 8.84998 4.08484 8.84998C5.18984 8.84998 6.08484 7.95498 6.08484 6.84998C6.08484 5.74498 5.18984 4.84998 4.08484 4.84998Z" fill="#1890FF"/>
<path d="M11.1848 6.185H6.90979V7.685H11.1848V6.185Z" fill="#1890FF"/>
<path d="M4.08484 10.525C4.35984 10.525 4.58484 10.75 4.58484 11.025C4.58484 11.3 4.35984 11.525 4.08484 11.525C3.80984 11.525 3.58484 11.3 3.58484 11.025C3.58484 10.75 3.80984 10.525 4.08484 10.525ZM4.08484 9.02502C2.97984 9.02502 2.08484 9.92002 2.08484 11.025C2.08484 12.13 2.97984 13.025 4.08484 13.025C5.18984 13.025 6.08484 12.13 6.08484 11.025C6.08484 9.92002 5.18984 9.02502 4.08484 9.02502Z" fill="#1890FF"/>
<path d="M11.1848 10.36H6.90979V11.86H11.1848V10.36Z" fill="#1890FF"/>
<path d="M11.1849 14.205H6.90991V15.705H11.1849V14.205Z" fill="#1890FF"/>
<path d="M3.77486 17.105L2.23486 15.565L3.29486 14.505L3.77486 14.985L5.47486 13.285L6.53486 14.345L3.77486 17.105Z" fill="#1890FF"/>
</svg>
