<?xml version="1.0" encoding="UTF-8"?>
<svg width="15px" height="16px" viewBox="0 0 15 16" version="1.1" xmlns="http://www.w3.org/2000/svg" xmlns:xlink="http://www.w3.org/1999/xlink">
    <!-- Generator: Sketch 62 (91390) - https://sketch.com -->
    <title>技术通知单</title>
    <desc>Created with Sketch.</desc>
    <g id="页面-1" stroke="none" stroke-width="1" fill="none" fill-rule="evenodd">
        <g id="图标" transform="translate(-431.000000, -520.000000)" fill="#68CC85" fill-rule="nonzero">
            <g id="技术通知单" transform="translate(431.000000, 520.000000)">
                <path d="M6.36363636,2.36363636 L6.36363636,3.45454545 L2,3.45454545 C1.49818181,3.45454545 1.09090909,3.84872727 1.09090908,4.33454545 L1.09090908,13.4836364 C1.09090908,13.9694545 1.49818181,14.3636364 2,14.3636364 L10,14.3636364 C10.5018182,14.3636364 10.9090909,13.9694545 10.9090909,13.4836364 L10.9090909,8 L12,8 L12,13.5083636 C12,14.5832727 11.1047273,15.4545455 10,15.4545455 L2,15.4545455 C0.895272719,15.4545455 0,14.5832727 0,13.5083636 L0,4.30981819 C0,3.23490909 0.895272719,2.36363636 2,2.36363636 L6.36363636,2.36363636 Z M3.27272727,8.36363636 L8,8.36363636 C8.19487215,8.36363636 8.37494144,8.4675994 8.47237751,8.63636363 C8.56981359,8.80512785 8.56981359,9.01305396 8.47237751,9.18181819 C8.37494144,9.35058241 8.19487215,9.45454545 8,9.45454545 L3.27272727,9.45454545 C3.07785512,9.45454545 2.89778583,9.35058241 2.80034975,9.18181819 C2.70291368,9.01305396 2.70291368,8.80512785 2.80034975,8.63636363 C2.89778583,8.4675994 3.07785512,8.36363636 3.27272727,8.36363636 L3.27272727,8.36363636 Z M3.27272727,5.45454545 L7.27272727,5.45454545 C7.57397349,5.45454545 7.81818181,5.69875377 7.81818181,6 C7.81818181,6.30124623 7.57397349,6.54545455 7.27272727,6.54545455 L3.27272727,6.54545455 C2.97148104,6.54545455 2.72727272,6.30124623 2.72727272,6 C2.72727272,5.69875377 2.97148104,5.45454545 3.27272727,5.45454545 Z M3.27272727,11.2727273 L5.09090908,11.2727273 C5.39215531,11.2727273 5.63636362,11.5169356 5.63636362,11.8181818 C5.63636362,12.119428 5.39215531,12.3636364 5.09090908,12.3636364 L3.27272727,12.3636364 C2.97148104,12.3636364 2.72727272,12.119428 2.72727272,11.8181818 C2.72727272,11.5169356 2.97148104,11.2727273 3.27272727,11.2727273 Z M8.72727272,0 C9.02851895,0 9.27272727,0.244208319 9.27272727,0.545454547 L9.27272727,2.36363636 C9.27272727,2.66488259 9.02851895,2.90909091 8.72727272,2.90909091 C8.42602649,2.90909091 8.18181817,2.66488259 8.18181817,2.36363636 L8.18181817,0.545454547 C8.18181817,0.400791007 8.23928554,0.262052508 8.34157811,0.159759938 C8.44387068,0.0574673676 8.58260918,0 8.72727272,0 L8.72727272,0 Z M14.3636364,6 C14.3636364,6.30124623 14.119428,6.54545455 13.8181818,6.54545455 L12,6.54545455 C11.6987538,6.54545455 11.4545455,6.30124623 11.4545455,6 C11.4545455,5.69875377 11.6987538,5.45454545 12,5.45454545 L13.8181818,5.45454545 C14.119428,5.45454545 14.3636364,5.69875377 14.3636364,6 L14.3636364,6 Z M12.8065455,1.84 C12.9089136,1.9423026 12.966429,2.08109407 12.966429,2.22581818 C12.966429,2.37054229 12.9089136,2.50933376 12.8065455,2.61163636 L11.52,3.89745455 C11.3050838,4.09771555 10.9701747,4.09180647 10.7624569,3.88408859 C10.554739,3.67637071 10.5488299,3.34146164 10.7490909,3.12654545 L12.0341818,1.84 C12.24714,1.62730663 12.5921327,1.62730663 12.8050909,1.84 L12.8065455,1.84 Z" id="形状"></path>
            </g>
        </g>
    </g>
</svg>